<svg data-name="Layer 1" xmlns="http://www.w3.org/2000/svg" viewBox="0 0 287 287"><title>fav</title><path d="M162.92 144.18a11.61 11.61 0 0 1 .18-2.33c.68-2.45.65-5 1.11-7.48.59-3.23.93-6.53 1.44-9.79.19-1.2.27-2.42.43-3.62.05-.38-.31-.81 0-1.12a1.34 1.34 0 0 0 .35-1.15 1.42 1.42 0 0 1 .47-1.25 1.64 1.64 0 0 1 0-.49c.45-1.95.46-4 1-5.89.35-1.17.09-2.41.39-3.58a41.82 41.82 0 0 0 1-7c.25-2.86.06-5.74.53-8.59a.66.66 0 0 0-.53-.82c-.4 0-.28.41-.32.65-.37 2.54-.54 5.1-.72 7.66a33 33 0 0 1-.8 6.39 5.44 5.44 0 0 0-.4 2.45c.35 1.43-.46 2.62-.44 4 0 .95-.89 1.68-.75 2.63a9.22 9.22 0 0 1-.28 2.7c-.11.77-.74 1.49-.58 2.16.26 1.11-.32 2-.54 2.95-.4 1.71-.21 3.52-1 5.15a.75.75 0 0 0 0 .33A27.3 27.3 0 0 1 163 132a29 29 0 0 1-.52 4.35c-.47 1.83-.46 3.78-.82 5.64-.58 3-.84 6.14-1.87 9.12a32.65 32.65 0 0 0-1.33 6.13c-.49 3.49-2 6.67-3.13 10-.77 2.33-1.61 4.64-2.38 7s-1.11 4.67-1.77 7a33.22 33.22 0 0 0-1 4.13 49.19 49.19 0 0 1-1.49 7.29c-.11.17.09.47-.24.54a.15.15 0 0 1-.12-.08c0-.28.19-.35.38-.46-.28-.17-.15-.44-.16-.68 0-2 .5-3.89.65-5.84.28-3.5 1.35-6.85 1.88-10.3.21-1.37.92-2.61.89-4.07a10.4 10.4 0 0 1 .47-3.51c.62-1.79.75-3.69 1.44-5.48.52-1.37.55-2.93 1-4.39.68-2.27 1.15-4.6 1.73-6.9a25.13 25.13 0 0 0 .7-2.58c.19-1.4.93-2.69.75-4.15a.56.56 0 0 1 .12-.31c.64-1 .6-2.27 1.09-3.35.73-1.58.71-3.36 1.32-5a36.3 36.3 0 0 0 1.11-5.31c.21-1 0-2.16.4-3a11.73 11.73 0 0 0 .56-3.52c.27-1.77.6-3.55.88-5.33.31-2 .71-4.05 1.09-6.07a21.84 21.84 0 0 1 .3-2.83c.58-1.76.68-3.6 1.27-5.37a36.18 36.18 0 0 0 1.13-6.18 8.78 8.78 0 0 0 .35-2.63 2.85 2.85 0 0 1 .26-1.95 1.09 1.09 0 0 0 .15-.79 8.33 8.33 0 0 1 .47-3.72 20.44 20.44 0 0 0 .53-6 .62.62 0 0 0-.37-.53c-.26-.13-.44.15-.5.33a8.71 8.71 0 0 0-.78 2.33c-.22 2.76-.71 5.49-1 8.24-.46 4.07-1.17 8.11-1.92 12.13-.5 2.67-1 5.35-1.36 8-.45 3.69-1.37 7.29-1.94 11-.34 2.21-.79 4.41-1.17 6.62-.44 2.54-1 5.07-1.57 7.57-.62 2.67-1.3 5.34-2.11 8s-1.42 5.13-2.09 7.7q-.85 3.26-1.62 6.53c-.47 2-.89 3.94-1.34 5.91s-.9 3.89-1.37 5.84c-.41 1.72-.69 3.46-1 5.2-.59 3.15-1.32 6.28-1.83 9.45a1 1 0 0 1-.64.88c.2.08.5.16.41.43-.23.69 0 1.44-.36 2.1l-.07.21h-.06l.16-.16c-.29-.55 0-1.11-.05-1.66 0-.29.22-.58 0-.87a5.88 5.88 0 0 0 .16-1.72 8.89 8.89 0 0 1 .07-2.18 42.16 42.16 0 0 0 .64-5.37c.26-1.85.18-3.73.46-5.6a28.72 28.72 0 0 0 .23-5.79c-.09-1.61-.06-3.23-.07-4.83v-3.47c-.1-2.91 0-5.82-.16-8.73a25.63 25.63 0 0 1 .06-5.73c.13-.79-.06-1.63 0-2.43.19-2.65.26-5.31.39-8 0-.7-.32-1.42 0-2.06a6.24 6.24 0 0 0 .28-2.27 27.5 27.5 0 0 1 .12-3.24c.4-2.24-.09-4.47-.22-6.68a66.88 66.88 0 0 0-.6-7.62 8.34 8.34 0 0 1-.16-2.83 5.09 5.09 0 0 0 0-2.25c-.71-2.53-.36-5.16-.82-7.74a35.29 35.29 0 0 1-.18-6.72 43.28 43.28 0 0 1-.1-5.24 9.79 9.79 0 0 0 0-2.45c-.13-1.08-.12-2.23-.24-3.33a49.25 49.25 0 0 0-1.65-8 6.91 6.91 0 0 0-2-3.8c-.48-.39-.76-.24-1 .22a2.72 2.72 0 0 0-.12.75c0 .18-.09.35-.28.38s-.23-.2-.29-.34a26.69 26.69 0 0 1-.84-4.24 22.61 22.61 0 0 0-1-2.92c-.17-.48-1.17-.62-1.14-.33.08.77-.4 1.47-.23 2.2.45 2 .11 4 .24 5.93a.51.51 0 0 1-.08.32 3.92 3.92 0 0 0-.49 3.06c.21 1.46 0 2.91.14 4.36a3 3 0 0 1 0 1.15 12.24 12.24 0 0 0-.42 3.44c-.06 1.65-.08 3.3-.28 4.95-.33 2.74-.53 5.5-.83 8.25-.15 1.4-.26 2.81-.36 4.22-.08 1.19 0 2.41 0 3.62-.06 3.27-.11 6.54-.23 9.81-.13 3.71.21 7.41 0 11.12-.14 3.06-.25 6.13-.14 9.19.1 2.59.29 5.18.43 7.77s.23 5.13.32 7.7c.11 3.25.1 6.51.37 9.76.19 2.24.25 4.49.29 6.73 0 2 .25 3.95.22 5.94 0 1.2.21 2.46.26 3.68.11 3 .52 5.91.66 8.87a59 59 0 0 1 .42 6.11c0 .18.08.49-.13.51s-.2-.3-.23-.48c-.23-1.52-.67-3-.91-4.52-.4-2.47-1.1-4.9-1.56-7.37-.42-2.25-1.42-4.36-1.65-6.66s-1.24-4.7-1.62-7.12a41.9 41.9 0 0 0-2-8.16 10.12 10.12 0 0 1-.66-2.57 26.32 26.32 0 0 0-1.49-6.42c-.09-.26-.23-.51-.3-.78-.68-2.48-1.22-5-1.88-7.47-.78-2.89-1.87-5.68-2.55-8.6a53.19 53.19 0 0 0-1.48-5.26c-.72-2.07-1.07-4.24-2.1-6.23a39.06 39.06 0 0 1-2.2-6.2c-1-3.24-1.85-6.56-3-9.77-.89-2.47-1.35-5.09-2.6-7.44a1.15 1.15 0 0 0-.83-.72c-.51-.07-.18.42-.28.62a5.22 5.22 0 0 0-.64 2.87 24.54 24.54 0 0 0 2.35 7 51.31 51.31 0 0 1 2.59 6.11c.56 1.64 1 3.32 1.59 5 .48 1.36 1 2.73 1.55 4.08.82 2.08 1.62 4.17 2.32 6.3.52 1.56.87 3.17 1.28 4.76.14.53-.05 1.13.26 1.63.06.22.12.43.17.65s0 .33-.11.37-.3-.13-.32-.3c-.1-.69-.68-1.19-.75-1.87-.22-2.18-1.44-4-1.86-6.16-.29-1.46-1.32-2.65-1.56-4.14a3.88 3.88 0 0 0-.3-1.3 32.66 32.66 0 0 1-2.13-5.45c-.74-2.05-1.8-4-2.48-6-.17-.52-.84-.74-.89-1.3-.13-1.67-1.12-3-1.65-4.53a81.08 81.08 0 0 0-3.52-7.78.92.92 0 0 0-1-.63c-.43.05-.34.53-.36.84-.06.88.75 1.69.22 2.62a.25.25 0 0 0 .08.23c.52.36.48 1 .72 1.47a60.74 60.74 0 0 0 3.49 7.12 46.64 46.64 0 0 1 3.4 7.28c.8 1.87 1.42 3.82 2.13 5.74.57 1.52 1.13 3 1.75 4.54s.85 3.09 1.39 4.6c.31.86.46 1.77.69 2.67.17-.07.32-.1.37.14s-.05.24-.22.22a.74.74 0 0 0 0 .58 35.14 35.14 0 0 1 1.3 4 34.81 34.81 0 0 0 2.23 5.57v-.06c-.31.22-.17.5-.09.77l.81 2.74c.8 2.68 1.65 5.35 2.4 8s1.44 5.19 2.13 7.78c.48 1.8.73 3.63 1.2 5.43.72 2.78 1.27 5.62 1.75 8.47.38 2.24.94 4.44 1.45 6.66.26 1.12.58 2.23.87 3.35 0 .16.09.37-.09.45s-.22-.11-.3-.22a18.35 18.35 0 0 1-1.5-2.71 5.74 5.74 0 0 0-2.49-2.87c-.24-.12-.39-.36-.32-.54.29-.73-.31-1.07-.59-1.55s-.55-.63-.62-1a8.29 8.29 0 0 0-1.77-3.26c-.61-.88-1.26-1.75-1.87-2.61-.72-1-1.13-2.27-2.09-3.17a1.3 1.3 0 0 1-.36-.55 15.8 15.8 0 0 0-2.86-4.84 12.16 12.16 0 0 0-1.55-1.65c-.41-.38-.22-1-.68-1.37a8.14 8.14 0 0 1-1.52-2c-1.09-1.9-2.34-3.69-3.52-5.53a52.29 52.29 0 0 0-3.15-4.5c-.62-.77-.55-2.15-1.93-2.29 0 0-.08-.18-.1-.28a10.72 10.72 0 0 0-1.2-2.57c-.65-1.19-1.89-1.84-2.5-3.09-.72-1.46-1.72-2.77-2.41-4.26a30.46 30.46 0 0 0-3.06-4.97 20.3 20.3 0 0 0-2.43-3.3 2.7 2.7 0 0 1-.7-1c-.45-1.14-1.14-2.17-1.68-3.26-.69-1.39-1.88-2.47-2.28-4.05a6 6 0 0 0-2.29-3.54c-.33-.23-.65-.54-.95 0a4.27 4.27 0 0 0 .41 2.65 9.78 9.78 0 0 1 1.3 1.84c1.42 2.12 2.8 4.26 4.19 6.4q1.92 3 3.81 5.94c1.31 2.05 2.6 4.12 3.9 6.18a3.82 3.82 0 0 1 .65 1.29c-.48-.19-.57-.74-1-1-.08-.06-.11-.19-.18-.28-.8-1.18-1.19-2.69-2.65-3.36a.58.58 0 0 1-.27-.31 11.53 11.53 0 0 0-1.93-3.13c-1.25-1.64-2.34-3.39-3.7-5a32 32 0 0 1-2.49-2.93 6.32 6.32 0 0 0-2-1.68c-.28-.18-1-.42-.88.2a4.82 4.82 0 0 0 1 2.6c1.56 1.61 2.52 3.63 4 5.3a.48.48 0 0 1 0 .08c1 1.64 1.93 3.29 3 4.84 1.23 1.82 2.12 3.82 3.42 5.6a73.15 73.15 0 0 1 4.2 7c1.21 2.12 2.56 4.15 3.8 6.25 1.39 2.35 3 4.56 4.5 6.86.67 1 1.38 2 2.1 3a38.15 38.15 0 0 1 3.65 5.71c.33.68.6 1.38 1 2.05 1.76 3.12 3.63 6.18 5.31 9.35a116.34 116.34 0 0 0 6.64 10.2c.62.93 1.29 1.83 1.9 2.77.17.26.44.79 0 .8s-1.27 0-1.37-.81a2.16 2.16 0 0 0-.93-1.34c-.85-.75-1.84-1.38-2.2-2.57-.09-.31-.43-.64-.78-.43s-.42.54-.16 1c.37.66 1 1.23 1.14 1.91a3.21 3.21 0 0 0 1.11 1.81c1 .8 1.57 2.06 2.73 2.7.13.07.2.26.28.41a2.49 2.49 0 0 0 1.48 1.3c.49.16.82.37.58 1a.49.49 0 0 0 .18.61c.85.57 1.1 1.59 1.76 2.3.1.11.17.25.05.37s-.26 0-.38-.06a6.86 6.86 0 0 1-1.13-1.13c-.76-.74-1.56-1.45-2.25-2.24-1.2-1.39-2.09-3-3.44-4.31-.51-.48-1.19-.62-1.67-1.19a4.36 4.36 0 0 1-1.27-2c-.06-.18-.32-.23-.31-.13 0 .61-.35.22-.49.19a5.5 5.5 0 0 1-2.44-1.78 46 46 0 0 0-3.88-3.3c-.32-.24-.85-.11-1-.52s-.75-.74-1.15-1.07c-.16-.13-.37-.36-.57-.11s0 .47.17.58a9 9 0 0 1 1.51 1.3c1 1.05 2.21 1.88 3.16 3.05a7.35 7.35 0 0 0 2.55 2.4c2.16.92 2.86 3.25 4.64 4.5a.43.43 0 0 1 .12.22 2.75 2.75 0 0 0 1.19 1.53 7.37 7.37 0 0 1 2.22 2.71 18.87 18.87 0 0 0 2.8 3.2c1.33 1.49 3 2.68 4.29 4.22 1.06 1.27 2 2.68 3.15 3.88a1.93 1.93 0 0 1 .52 1.38c0 .19.17.43 0 .55s-.41-.14-.55-.28q-1.31-1.3-2.58-2.64a10.49 10.49 0 0 1-1.37-1.58 15.88 15.88 0 0 0-3-3.54 21.88 21.88 0 0 1-3.66-4c-.11-.16-.24-.37-.45-.34-.5.07-.71-.31-.94-.6a9.61 9.61 0 0 0-1.28-1.54 1.1 1.1 0 0 1-.31-1 1.26 1.26 0 0 1-1-.16 10.77 10.77 0 0 1-2.19-2.27c-1.61-2.25-3.94-3.74-5.73-5.78a9.75 9.75 0 0 0-2.21-1.71c-.62-.39-.89-1.08-1.36-1.59a44.39 44.39 0 0 0-4.16-3.82c-1.88-1.59-3.34-3.58-5.31-5.08-1.23-.93-2.34-2-3.5-3a31.58 31.58 0 0 1-3.63-3.27 22.21 22.21 0 0 0-3.18-3.08c-1-.84-1.92-1.88-2.89-2.81-1.26-1.21-2.2-2.71-3.61-3.76a16.92 16.92 0 0 1-2.27-2.19 19.1 19.1 0 0 0-3.37-3.37 3.76 3.76 0 0 1-.73-.82c-.07-.08-.15-.21-.13-.28s.24-.13.36-.11a5 5 0 0 1 .55.17c.63.19.79.87 1.28 1.22a28.86 28.86 0 0 1 3.64 3.17c1.74 1.71 3.6 3.29 5.39 5 .77.72 1.67 1.3 2.39 2a30.58 30.58 0 0 0 3.14 3 2.38 2.38 0 0 1 .82.93c.51 1.16 1.92 1.4 2.56 2.44a.18.18 0 0 0 .15.05c.1 0 .25 0 .3-.1s0-.22-.13-.26c-.58-.28-.71-1-1.23-1.34-.28-.2-.28-.42.18-.41a3.73 3.73 0 0 0 .74-.15c.25-.05.26-.17.1-.34-.5-.49-1-1-1.5-1.47-.3-.28-.68-.46-.62-1 0-.34-.47-.74-.62-.6-.65.59-1.1.18-1.48-.23a24.7 24.7 0 0 0-2.73-2.4 34.33 34.33 0 0 1-3.56-3.44c-.57-.61-1.34-.92-1.88-1.59a5 5 0 0 0-1-1.19 7.42 7.42 0 0 1-2-1.55 10.24 10.24 0 0 0-1.72-1.94c-1.81-1.54-3.56-3.14-5.36-4.68-2.43-2.08-4.5-4.53-6.89-6.65a8.82 8.82 0 0 0-1.46-.79c-.47-.29-.9-.7-1.32.05h-.24c-.91.16-1.5-.56-2.18-.92s-.89-.41-1.2 0 0 1 .35 1.36c.12.14.51.12.42.33-.34.81.36.9.77 1.18 1 .68 2 1.29 2.88 2a48.55 48.55 0 0 1 4.84 5.06c1.73 1.95 3.66 3.72 5.44 5.62.81.86 1.75 1.58 2.57 2.41a20.55 20.55 0 0 0 2.93 3c.75.5 1.11 1.33 1.78 1.86a30.78 30.78 0 0 1 3.67 3.59c2 2.23 4.29 4.11 6.45 6.14 1.31 1.23 2.64 2.44 4 3.59 1.76 1.46 3.39 3.09 5.06 4.68 3 2.81 5.85 5.68 8.83 8.46 2.23 2.08 4.52 4.11 6.66 6.29 1.53 1.56 3 3.21 4.66 4.61a13.74 13.74 0 0 1 1.58 1.54c2.41 2.76 4.78 5.57 7.33 8.21 1.21 1.25 2.36 2.54 3.56 3.8.29.31.53.8 1.1.53.38-.18.58.09.78.32s0 .5-.14.74-.57.55-.56 1c0 .19-.16.25-.36.26a3.9 3.9 0 0 0-1.63.64c-.26.13-.71.23-.51.62a.64.64 0 0 0 1 .24c.41-.33 1.06-.25 1.31-.83.06-.15.27-.19.42 0 .63.81 1.22.34 1.66-.16a63.79 63.79 0 0 1 5.78-5.72c.4-.35.92-.49 1.24-1a10.38 10.38 0 0 1 2.17-2.55 7.12 7.12 0 0 0 1.54-1.63 8.61 8.61 0 0 1 .68-.74c1.26-1.37 2.74-2.53 4-4 .26-.31.48-.77.91-.85a1.17 1.17 0 0 0 .91-1.07 1.49 1.49 0 0 1 .53-.87c.89-1 2.09-1.64 3-2.64a25 25 0 0 0 2.35-2.49c.6-.86 2-1.14 2-2.49 0-.06.16-.17.26-.18.39 0 .53-.37.78-.59.72-.66 1.35-1.44 2.07-2 1.41-1.18 2.27-2.81 3.66-4 .8-.68 1.37-1.62 2.11-2.38a12.39 12.39 0 0 0 .95-1.14c.71-.93 1.86-1.38 2.46-2.33a28.19 28.19 0 0 1 4.58-4.95c.8-.77 1.63-1.52 2.36-2.35a9.61 9.61 0 0 1 1.89-2c.74-.48 1.15-1.31 1.77-1.85 1-.87 1.58-2.07 2.65-2.83a50.7 50.7 0 0 0 4.2-3.68c.1-.09.11-.22 0-.25-1.08-.21-.13-.54 0-.74.32-.57 1.08-.34 1.5-.83 1-1.14 1.86-2.37 2.95-3.43.28-.28.83-.45.86-.68.16-1.17 1.15-1.81 1.78-2.55 1-1.14 2.41-1.85 3.39-3.11.52-.67.75-1.62 1.64-2a.16.16 0 0 0 .06-.14c-.25-.87.51-1.22 1-1.61a25.93 25.93 0 0 0 2.45-2.76c.75-.87 2.1-1.12 2.4-2.47a1.28 1.28 0 0 1 1.13-.87c.21 0 .3-.26.15-.35-.78-.49 0-.66.19-.82.6-.44 1.18-.91 1.77-1.36 1.12-.85 1.34-2.54 2.74-3.21a.58.58 0 0 0 .24-.34.66.66 0 0 0-.2-.77c-.27-.18-.33.23-.51.29-1.4.47-1.84 2.23-3.49 2.49a5.14 5.14 0 0 0-1.91 1.15 88.79 88.79 0 0 0-6.63 6 .64.64 0 0 0-.24.68c.2.55-.21.74-.54.89a10.09 10.09 0 0 0-3 2.6c-.18.19-1.18.6-.15 1.11.09 0 0 .2-.07.29a7.4 7.4 0 0 1-.81 1.06 59.56 59.56 0 0 0-5.13 5.89c-2.74 3.2-5.51 6.37-8.16 9.64-1.83 2.26-4 4.17-5.79 6.48-1 1.28-2.46 2.05-3.3 3.45-.14.23-.38.52-.61.55-.65.09-.93.57-1.29 1-2.85 3.37-6 6.5-8.91 9.79-2.37 2.65-5.17 4.89-7.64 7.46-1.59 1.66-3.37 3.12-5 4.78-1.08 1.12-2.07 2.32-3.16 3.42-.69.69-1.48 1.28-2.14 2-1.63 1.79-3.14 3.68-4.91 5.33-1 .94-2 1.89-3 2.85-.17.16-.27.5-.59.3s-.17-.44-.12-.69c.09-.47.65-.68.7-1.13.14-1.12 1-1.76 1.61-2.56 1.16-1.6 2.51-3 3.74-4.6.24-.3.66-.51.67-1a1.92 1.92 0 0 0-1 .8 30.31 30.31 0 0 0-2.37 2.71c-.14.21-.41.57-.64.42s0-.51.14-.73c.8-1.39 1.44-2.86 2.38-4.19 2.47-3.47 4.69-7.11 7.5-10.33 1.33-1.53 2.26-3.34 3.58-4.86a10 10 0 0 0 1.3-1.54 33.56 33.56 0 0 1 2.56-3.73c1.32-1.76 2.26-3.73 3.58-5.48.8-1.06 1.2-2.4 1.92-3.53 1.46-2.3 2.74-4.71 4.41-6.9 1-1.31 1.72-2.84 2.6-4.23a72.71 72.71 0 0 0 4.8-8.57 15.31 15.31 0 0 1 1.49-3 10.6 10.6 0 0 0 1.73-3.07 18.21 18.21 0 0 1 1.67-3 30 30 0 0 1 2.29-3.83c1-1.4 1.71-3.06 2.78-4.48.62-.81.86-1.9 1.39-2.7.84-1.25 1.36-2.64 2.14-3.89s1.19-2.35 1.95-3.45a12.93 12.93 0 0 0 1.71-3.51c.42-1.33.65-2.84 1.63-3.91a7.83 7.83 0 0 0 1.36-2.87 1.28 1.28 0 0 0-.4-1.38c-.35-.32-.69-.32-.87.12-.44 1.08-1.63 1.55-2.07 2.62a5.54 5.54 0 0 1-.23.63c-.86 1.72-1.72 3.44-2.68 5.1-.83 1.44-1.78 2.8-2.55 4.27-.58 1.1-1.45 2-2.08 3a14.13 14.13 0 0 1-1.29 1.64c-.08.1-.25.21-.34.18s-.12-.3-.07-.42c.2-.49.45-1 .67-1.45A16.42 16.42 0 0 1 191 131a11.58 11.58 0 0 0 1.45-2.68 37.26 37.26 0 0 1 2.44-5.12 4 4 0 0 0 .45-1.27 8.28 8.28 0 0 1 .7-2 .74.74 0 0 1 .86-.51c.59.16.75-.25.84-.66a2.87 2.87 0 0 0-.07-1.42c-.18-.58-.52-.72-1.09-.47a4.41 4.41 0 0 0-2.46 3.08c-.29 1-.54 2.06-.91 3.05-1 2.63-2.46 5-3.59 7.59a12 12 0 0 1-1.72 3.53c-.24.26-.16.79-.7.81a.8.8 0 0 1 .06.82 27.28 27.28 0 0 1-1.95 4.09c-.2.38 0 1.23-1 .87-.07 0-.29.13-.32.24-.21.62-.74 1.09-.93 1.67-.89 2.64-2.77 4.73-3.92 7.22-.61 1.34-1.44 2.58-2.13 3.89A60.22 60.22 0 0 1 174 159c-.76 1.14-1.55 2.28-2.22 3.47-1.09 1.93-2.24 3.84-3.31 5.78a31.49 31.49 0 0 1-2.46 3.49c-1.66 2.19-2.85 4.7-4.4 7a107.11 107.11 0 0 0-7 11.73c-1 1.87-1.87 3.77-2.94 5.58-.7 1.19-1 2.55-1.79 3.7-.15.24-.31.73-.57.61s-.28-.68-.15-1a19 19 0 0 0 .64-2.34c.64-2.51 1.34-5 2-7.52.37-1.5 1.08-2.88 1.43-4.38a22 22 0 0 1 .59-2.77 24.16 24.16 0 0 0 1.67-5.64 2.56 2.56 0 0 1 .3-1 13.82 13.82 0 0 0 1.37-3.86 38.06 38.06 0 0 1 1.66-5.38c.13-.34.46-.69.29-1.09a1.75 1.75 0 0 1 .34-1.65 4.35 4.35 0 0 0 .62-1.38c.38-2.06 1.32-3.95 1.84-6 .6-2.29 1.66-4.45 2.29-6.73.5-1.82.84-3.71 1.42-5.49.77-2.37 1.16-4.82 1.87-7.2.17-.56-.08-1.12.09-1.66a21.51 21.51 0 0 0 .74-3.69 3 3 0 0 1 .65-1.67c-.28-.86.16-1.65.25-2.48.22-2.05.34-4.12.7-6.14.26-1.51.48-3 .78-4.52a75.32 75.32 0 0 0 1.08-7.76 13.08 13.08 0 0 1 .75-3.51c.64-1.64.63-3.38 1.07-5 .13-.51-.19-1.15.39-1.55A6.31 6.31 0 0 1 174 96a14.51 14.51 0 0 0 .59-4.52c0-.48-.41-.56-.74-.69s-.45-.06-.55.21c-.67 1.9-1.63 3.7-1.8 5.77-.22 2.61-.52 5.22-1 7.81-.35 2.07-.63 4.16-.86 6.24s-.78 4.09-1 6.18c-.16 1.77-.75 3.5-1 5.27-.47 2.9-.85 5.81-1.27 8.72a20.15 20.15 0 0 1-.34 2.23q-.89 3.4-1.88 6.76a31.16 31.16 0 0 1-1.34 4.22zm-23.14 46.92h-.05l.14-.12c-.08 0-.2-.07-.2-.21s0 0 .05-.05l.14.26zm14.2-16a.31.31 0 0 1-.13-.36c.05-.15.05-.41.26-.35s.1.28 0 .43a2.55 2.55 0 0 1-.18.27zm-52.4-32.78c1.43 1.77 2.67 3.67 3.95 5.54 1.53 2.24 3 4.52 4.52 6.78s3.1 4.59 4.67 6.88c1.41 2.06 2.83 4.12 4.24 6.18.83 1.22 1.55 2.54 2.45 3.69 1.49 1.88 2.27 4.11 3.43 6.15 1.55 2.72 3.26 5.34 5 7.93a44.35 44.35 0 0 1 3.49 5.81 31.8 31.8 0 0 0 1.79 3.18c.5.79.69 1.72 1.18 2.51.07.12.13.28 0 .38s-.31 0-.41-.15a24.17 24.17 0 0 1-2.8-4.08 19.19 19.19 0 0 0-1.88-2.82c-.47-.61-.72-1.39-1.45-1.8l-.13.15a26.31 26.31 0 0 0 2.26 4.48c.22.36.61.88.28 1.11-.49.35-.73-.41-.84-.66a18.16 18.16 0 0 0-2.08-2.91 1.36 1.36 0 0 1-.31-.75 1.42 1.42 0 0 0-.61-1.16 4.5 4.5 0 0 1-1.38-1.74c-1.15-2.14-2.76-4-3.82-6.19a21.48 21.48 0 0 1-1.47-2.41c-.59-1.89-2-3.21-2.84-5a28.88 28.88 0 0 0-1.93-3.42c-.66-1-1.16-2.18-1.87-3.2-.93-1.34-1.71-2.76-2.74-4-1.88-2.35-3.18-5.1-4.92-7.55-1.38-1.94-2.62-4-3.88-6a37.24 37.24 0 0 0-2-3.18s0-.12-.08-.15c-.92-.69-1.09-1.75-1.51-2.74s-1.48-1.61-2-2.54a20 20 0 0 0-1.55-2.54c0-.06 0-.16-.06-.24s.16-.07.21 0c.23.13.59.06.7.39a2.87 2.87 0 0 0 .9 1.21 9 9 0 0 1 1.89 2.65c.52 1.06 1.4 1.85 2 2.88.88 1.57 2 3 3 4.55.86 1.33 1.64 2.71 2.55 4 1.56 2.2 2.87 4.55 4.34 6.81a40.41 40.41 0 0 1 2.38 3.87c.43.85 1 1.64 1.53 2.49a.39.39 0 0 0 .39.26 1.61 1.61 0 0 1-.21-.32c-.66-1.84-1.91-3.36-2.8-5.08a16.42 16.42 0 0 0-1.49-2.35 22.35 22.35 0 0 1-1.09-2.1c-1-1.66-2.16-3.19-3.14-4.84-1.78-3-3.64-5.94-5.47-8.9a1.52 1.52 0 0 1-.28-1zm43-50.07c.6 1.94.36 4 .5 5.93.21 3 0 6-.08 9-.05 3.81.16 7.62.32 11.42a58.12 58.12 0 0 1-.18 6.21c-.05.76 0 1.51 0 2.26-.07 2.72-.55 5.4-.58 8.12a50.5 50.5 0 0 1-.43 6.21 10.2 10.2 0 0 0-.05 2.68 11.32 11.32 0 0 1-.27 2c-.06 1.38-.25 2.75-.25 4.13 0 2.76-.16 5.51-.3 8.27a17.73 17.73 0 0 0 .07 2.61 37.78 37.78 0 0 1 .06 4.05 56.55 56.55 0 0 1-.09 7c-.28 2.08-.41 4.17-.62 6.25-.13 1.32-.18 2.67-.31 4a64.66 64.66 0 0 1-.89 7.3c0 .2 0 .63-.29.58s-.17-.45-.13-.68a11 11 0 0 0 0-3.46 11.9 11.9 0 0 1 0-3.33 34.42 34.42 0 0 0 0-3.45 6.4 6.4 0 0 1 .23-1.65 3.61 3.61 0 0 0 .2-1.32 15.24 15.24 0 0 1 0-2.42c.16-2.66.12-5.34.38-8 .12-1.23-.16-2.49-.1-3.74a25.76 25.76 0 0 0 .14-3A82.25 82.25 0 0 1 142 151c.08-2.32-.09-4.62 0-6.93s-.1-4.85-.16-7.27c0-2-.08-4-.13-6.05a69.46 69.46 0 0 0-.72-8.5c-.21-1.41-.22-2.85-.32-4.27-.21-3.16-.47-6.31-.61-9.47-.11-2.33-.4-4.64-.54-7-.09-1.57-.08-3.15-.24-4.71-.09-.87-.24-1.76-.35-2.64-.21-1.72 0-3.45-.08-5.18-.12-2.93.3-5.85.33-8.78a30.07 30.07 0 0 1 .26-4.54c.18-1.08-.22-2.18 0-3.27a.33.33 0 0 0 0-.24c-.14-.17-.54-.3-.18-.56s.53.12.68.33a9.9 9.9 0 0 1 1.06 3.5c.55 2.4 1 4.82 1.53 7.23.32 1.5.65 3 1 4.51a1.89 1.89 0 0 0 .1.41c.07.15.17.36.35.32s.19-.3.15-.5c-.25-1-.46-2-.75-2.94a55.4 55.4 0 0 1-1.38-6.86c0-.18-.1-.51.06-.54s.17.29.23.45a44.31 44.31 0 0 1 1.35 5.79 68.24 68.24 0 0 1 1.48 7.61 3.32 3.32 0 0 1 .06.59c0 .16 0 .4-.19.43s-.2-.29-.34-.4a.69.69 0 0 0-.06.79zm-5.31 95.33a1.89 1.89 0 0 0 0-.75c-.68-2.56-.6-5.22-.87-7.82-.33-3.24-.44-6.53-.59-9.8-.1-2.18-.2-4.37-.31-6.55-.1-2 0-4-.19-6-.11-1.31-.14-2.62-.28-3.93a25 25 0 0 1 .07-3.25 1.75 1.75 0 0 0 0-.5c-.47-1.65 0-3.33-.2-5-.28-2.3-.17-4.65-.33-7a46.59 46.59 0 0 1-.22-5.74c.06-1.26.18-2.53.12-3.79-.1-2.13.17-4.25 0-6.38-.08-1 .19-2 .2-2.93 0-2.18-.31-4.36-.15-6.55.06-.88-.3-1.87-.19-2.6a17.9 17.9 0 0 0 .3-3.54c-.07-1.77.6-3.42.43-5.22a18.7 18.7 0 0 1 .56-4.3c0-.14.09-.31.24-.3s.21.24.21.39c0 3.51.59 7 .78 10.46.12 2.28.48 4.55.69 6.83.1 1.08-.1 2.18.47 3.21.18.33-.22.72-.18 1.13.16 1.81.26 3.62.43 5.42.37 3.92.3 7.86.71 11.77a46.63 46.63 0 0 1 .07 4.86v5c0 2.14.15 4.28-.06 6.42-.07.78.27 1.61.16 2.31a21.08 21.08 0 0 0-.15 2.8c-.11 3.07 0 6.15-.11 9.23-.09 3.64-.17 7.28-.47 10.9-.24 3-.28 5.92-.44 8.88-.06 1.17-.09 2.33-.1 3.5a.65.65 0 0 1-.16.55h-.27c.17-.55-.26-1.06-.16-1.66zm3.59 12.82c-.08-1.65-.18-3.3-.15-4.95a18.31 18.31 0 0 1 .42-4.43.64.64 0 0 0 0-.41c-.68-1.2.13-2.43-.09-3.63 0-.23.16-.34.28-.49a.55.55 0 0 0 .15-.62 3.73 3.73 0 0 1-.12-2.69 65 65 0 0 0 .71-7.49c.19-2.06.32-4.12.52-6.18a38 38 0 0 0 0-4.18c0-2.39 0-4.78-.1-7.16-.11-1.85.49-3.61.39-5.45-.14-2.72.51-5.42.43-8.12-.08-3.05.51-6.05.37-9.1-.07-1.56.34-3.14.17-4.72a.45.45 0 0 1 .36-.51c.34-.07.31.26.38.44a4 4 0 0 1 .17 1.5 47.1 47.1 0 0 1 0 5.64c-.25 2.22-.55 4.43-.7 6.65-.08 1.1-.49 2.25.18 3.38.29.48-.13 1.12-.15 1.71 0 .79.09 1.56.09 2.33 0 3.25-.12 6.51.1 9.74.27 4.06.38 8.12.27 12.18-.05 1.93-.5 3.82-.54 5.74-.05 2.12-.54 4.17-.64 6.29-.07 1.59-.39 3.21-.52 4.82a33.76 33.76 0 0 0-.33 5.6v.16c-.51 1.79-.2 3.67-.6 5.48-.07.32-.12.54-.5.35a4.57 4.57 0 0 1-.54-1.83zm23.28-23.4c.94-1.21 1.46-2.7 2.3-4s1.23-2.5 2.09-3.61c1.36-1.76 2.18-3.86 3.44-5.69s2.23-3.75 3.37-5.61A50 50 0 0 0 180 153c.48-1 1.18-1.9 1.71-2.89a3 3 0 0 0 .43-1.17 2.48 2.48 0 0 1 .43-1.07 30.53 30.53 0 0 0 2.42-4.56 5 5 0 0 1 2-2.29 6.7 6.7 0 0 0 2-2.56 12 12 0 0 1 3.17-3.94c.08-.06.23-.13.29-.1s.08.3 0 .44c-.53 1-1 2-1.61 2.95-1.89 3-3.85 6-5.58 9.2-2 3.59-3.85 7.23-5.72 10.87-1.69 3.3-3.76 6.37-5.67 9.55-1.76 2.94-3.53 5.88-5.28 8.83-2.49 4.2-5.12 8.31-8 12.27-.57.79-1.2 1.54-1.82 2.3-.11.14-.23.44-.41.34s0-.36.11-.49c1.08-2 1.81-4.15 3.21-5.95a3.35 3.35 0 0 0 .62-1.09 8.15 8.15 0 0 1 1.57-2.85c.37-.45 0-1.2.7-1.42.82-.62.98-1.63 1.57-2.37zm33.8-17.77c1.37-1.5 2.35-3.3 4-4.62.82-.67 1.42-1.75 2.21-2.46 1.61-1.44 2.83-3.22 4.45-4.64 1-.85 2-1.65 2.88-2.57.1-.1.24-.33.4-.17s-.07.29-.18.4c-1.34 1.39-2.48 3-3.72 4.42q-2.86 3.37-6 6.48a23.64 23.64 0 0 0-2.86 3.2 15.67 15.67 0 0 1-1.54 1.66c-1.14 1.2-2.3 2.37-3.47 3.54a2.14 2.14 0 0 1-.48.28c-.07-.22.08-.38.19-.53s.26-.3.54-.63a33.81 33.81 0 0 1 3.58-4.38zm-36 19.47c-1.56 2.36-2.89 4.86-4.32 7.3-1.2 2.05-2.38 4.12-3.5 6.22-.55 1-1.41 1.82-2 2.81-.12.2-.35.4-.55.24s.08-.34.18-.48a19.55 19.55 0 0 0 2.25-4.17c.79-1.91 2-3.54 2.94-5.38a44 44 0 0 1 2.86-4.79 35.17 35.17 0 0 1 2.35-3.34c.85-1 1.48-2.23 2.3-3.3.13-.17.25-.51.47-.37s-.09.36-.15.54a5.51 5.51 0 0 1-1 1.74 20.05 20.05 0 0 1-1.85 2.96zM144 76.23a13.39 13.39 0 0 1 .58 2.18 71.87 71.87 0 0 1 .85 7.68c0 .19.14.48-.05.54s-.36-.28-.41-.45a9.22 9.22 0 0 1-.27-1.39c-.39-2.68-.77-5.37-1.16-8.05 0-.25-.14-.49 0-.75s.37.01.46.24zm-6.41 126.07c0 .16.1.38-.08.46s-.27-.14-.38-.24c-1-.94-1.45-2.29-2.16-3.44v-.2c0-.06.18 0 .23.07.21.22.39.48.62.56.76.89 1.85 1.49 1.77 2.79zm-5.48-2.67a3.8 3.8 0 0 0-1.51-2.4.32.32 0 0 1 .06-.51c.18-.14.3 0 .42.14.66.64.81 1.6 1.41 2.27.07.08.1.2.16.29.19.26.5.46.46.85l-.88-.52s-.11-.07-.12-.12zm13.6.61a10.71 10.71 0 0 1-.19 3.44c0 .07-.11.17-.16.17-.2 0-.07-.15-.07-.24a22.39 22.39 0 0 1 .16-3.25v-.16c0-.05.25-.11.26.04zm8.78-27.14c.18-.74.35-1.49.57-2.22 0-.16.33-.16.3.11a7 7 0 0 1-.63 2.14s-.13 0-.19.07-.06-.08-.05-.1zm-22 22c0-.1-.11-.22 0-.3a.24.24 0 0 1 .36.09c.31.49.59 1 .87 1.51a.27.27 0 0 1-.06.38s-.15-.12-.13-.11a5 5 0 0 1-1.09-1.6zm8.73-121.88c0-.12.13-.07.17 0a1.08 1.08 0 0 1 .14.8c0 .09-.13.08-.22 0a1.2 1.2 0 0 1-.14-.83zm26.44 99.15c.12.11 0 .26 0 .38s-.16.16-.27.07-.09-.25 0-.36.11-.23.22-.12zm-4.78-27.42a.24.24 0 0 1 0 .07h-.06v-.11zm-4.94 46.91h.07l-.09.08s-.05-.09-.03-.11zm-48-15.77a10.73 10.73 0 0 1-2.55-1.22c-.28-.17-.7-.35-.4-.85.1-.17 0-.33-.21-.37a5.94 5.94 0 0 1-2.58-1.65c-1.14-1-2.37-2-3.5-3-2.42-2.26-4.85-4.52-7.2-6.85-3.16-3.14-6.35-6.24-9.67-9.22-1.77-1.59-3.45-3.25-5.13-4.94a12.45 12.45 0 0 0-2.7-2.24 31.71 31.71 0 0 1-4-3.25 4.08 4.08 0 0 0-.9-.61c-.36-.15-.69-.29-.59-.85s-.5-.63-.68-1-.38-.47-.15-.77.46-.06.69 0a6.55 6.55 0 0 1 2.11 1.19 85 85 0 0 1 7.94 7.37c1 1 2.07 2.07 3 3.16a7.83 7.83 0 0 0 1.67 1.37 19.64 19.64 0 0 1 3.51 3.22 23.43 23.43 0 0 1 2.58 2.47 34.58 34.58 0 0 0 3.7 3.67A11.78 11.78 0 0 0 97.5 164a7.39 7.39 0 0 1 1.67 1.69 15.55 15.55 0 0 0 3.07 2.93 3.42 3.42 0 0 1 .73.57c1.21 1.46 2.79 2.53 4.08 3.9a16.48 16.48 0 0 0 2.85 2.7c.1.07.09.19 0 .3zm5 5.9a5.13 5.13 0 0 1-1.61-2.22 2 2 0 0 0-1.54-1.4 1.09 1.09 0 0 1-.6-.28c-.21-.23-.51-.47-.22-.78s.37.15.55.24a8.17 8.17 0 0 1 2.82 2.32 13.52 13.52 0 0 0 2.21 2.28c.41.31.19.8.44 1.22a3.78 3.78 0 0 0 1.8 1.53c.89.41 1.19 1.34 2 1.83a6 6 0 0 1 1.47 1.23 10 10 0 0 1 1 1.87c.08.17 0 .38.25.49s.56.22.23.52a.45.45 0 0 1-.72-.17c-.22-.46-.75-.84-.79-1.21-.08-.74-.69-.81-1-1.21a13.87 13.87 0 0 0-2.34-2.15 14.18 14.18 0 0 1-3.22-3.49 3.68 3.68 0 0 0-.77-.61zm40.82 19.6c.75-1.49 2.21-2.36 3.3-3.53s1.81-2.62 3.3-3.37a4.13 4.13 0 0 0 1.09-1.15 21.59 21.59 0 0 1 2-2.11c.09-.08.16-.28.3-.18s0 .3 0 .39c-.34.42-.75.79-1.07 1.22-.79 1.06-2.09 1.68-2.6 3 0 .05 0 .13-.07.15a3.48 3.48 0 0 0-1.44 1.51.84.84 0 0 1-.48.3 1.58 1.58 0 0 0-1.09 1 2.15 2.15 0 0 1-1.13 1.14 1.09 1.09 0 0 0-.61.55c-.26.81-1.06 1.12-1.5 1.75-.12.17-.33.36-.48.24s0-.39.15-.56a3.18 3.18 0 0 1 .3-.37zm14.12-15c1.45-1.54 2.89-3.09 4.35-4.62.31-.32.67-.59 1-.88.1-.09.22-.22.35-.07a.28.28 0 0 1 0 .39c-1.94 1.76-3.47 3.91-5.47 5.6-.12.1-.27.28-.43.11s.02-.37.17-.51zm-17.5 18.57c.63-.72 1.25-1.45 1.88-2.16.12-.14.34-.32.51-.17a.39.39 0 0 1-.07.59 12.22 12.22 0 0 0-1.91 2v.07c-.17.22-.47.36-.65.2s.02-.37.21-.51zM112.61 185c.31.19.62.37.92.58a.47.47 0 0 1 .18.66c-.12.2-.33.08-.53 0-.66-.18-1-.72-1.33-1.21-.11-.15-.27-.35-.09-.52s.4 0 .57.15.21.18.32.27zm10.09 7.68c-.5-.49-1-.94-1.44-1.44-.14-.16-.45-.41-.23-.63s.41.12.55.25c.48.45.94.94 1.38 1.42.2.22.52.56.3.78s-.36-.29-.55-.39zm-17.12-12.92c-.23-.15-.58-.38-.92-.62s-.44-.46-.22-.71.6 0 .72.16a5.12 5.12 0 0 0 .87.9c.22.18.48.46.22.69s-.4-.18-.66-.43zm81.12-11.08c.29-.27.59-.56.9-.84.15-.13.25-.51.48-.31s0 .59-.12.67c-.65.29-1 .88-1.45 1.34-.08.08-.17.18-.27.06a.33.33 0 0 1 0-.3 7.42 7.42 0 0 1 .47-.63zm-7.69 8c.58-.06 1-1.06 1.2-.77.4.45-.64.35-.73.8a.8.8 0 0 1-.14.3c-.09.13-.21.33-.39.2s.05-.3.05-.51zm-59 12.74a1.13 1.13 0 0 0-.75-.47.35.35 0 0 1-.34-.4.78.78 0 0 1 .08-.21 2 2 0 0 1 .41.24c.34.33.66.68 1 1 .11.11.28.19.21.39l-.29-.27zm-27.38-24c-.12-.2-.48-.3-.5-.64 0 0 .13-.14.17-.13a1.05 1.05 0 0 1 .7.65c0 .07.11.13.14.2a1.34 1.34 0 0 1 .16.34c-.2.14-.25-.11-.38-.18a1.71 1.71 0 0 1-.27-.2zm99.84-2.6c.28-.12.45-.54.83-.4.14.05.11.39-.05.4-.44 0-.38.79-.87.54-.27-.1-.07-.36.11-.5zm-89.18 12.78c-.19-.25-.46-.38-.52-.68.33 0 .51.17.67.4l.06.06c.17.27.66.25.63.7zm78.23-1.44l.76-.57a.66.66 0 0 1 .06.21c0 .4-.27.56-.64.6-.12 0-.2.26-.33.08s.1-.23.15-.32zm20.71-20c.11-.12.24-.15.35 0a.27.27 0 0 1 0 .43c-.12.09-.25.27-.39.05a.33.33 0 0 1 .04-.5zm-93.33 25.51c.13-.1.2-.34.3-.25s0 .3-.13.43-.18.22-.35.14zm59.22 9.21a2.78 2.78 0 0 1-.49.27c-.07 0-.08-.11 0-.18a.38.38 0 0 1 .52-.09zm17.61-18.51a.21.21 0 0 1-.06-.29c.05-.1.17-.18.26-.1s0 .19 0 .29-.08.18-.2.09zm-90.87-3.1l-.13-.28a1 1 0 0 1 .18.13 1.13 1.13 0 0 1 .12.2zm95.59-2c.1-.08.19-.17.29-.24s.16-.13.15 0-.12.17-.2.25-.13.12-.24-.01zm-8.93-24.15a.89.89 0 0 1 0-.12h.06a.66.66 0 0 1 0 .12zm-71.62 34.95c.08.09.23.15.15.31a.07.07 0 0 1-.07 0c-.17-.09-.08-.22-.06-.34zm5.4 9.23h-.14v-.15h.13c.02 0 0 .1.01.15zM102 172.9l-.05-.06h.05v.07zm-8-6.39l-.07-.13a.62.62 0 0 1 .18 0v.13zm72.87-49.09h.14l-.17.1zm1.2 71.46v-.08.08zm-48.68-54.7l-.15-.36.16.38zm49.44-4.27v-.05zm5-31v-.06.06zm24.59 21.55v.06-.06zm-54.11-31.07q.17 1.06.35 2.13a1.85 1.85 0 0 1-.37-2.12zm-.26-.74v-.07c0-.01.08-.06.1 0a.09.09 0 0 1 0 .07s-.08.01-.15 0zm.28.74l-.13-.06h.06zm-15.67 97.45c-.85-.07-1-.89-1.34-1.39-2-2.61-3.41-5.59-5.15-8.37s-3.55-5.66-5.16-8.58c0-.09-.19-.14-.13-.28a2.17 2.17 0 0 1 .25.2 29.74 29.74 0 0 1 2.59 3.66 30.38 30.38 0 0 1 1.74 2.86 26.87 26.87 0 0 0 3.12 4.74 25 25 0 0 1 1.77 3.14 12.36 12.36 0 0 0 1.93 3c.26.24.59.55.36 1zm0 0l.22.11a.52.52 0 0 1 .29.62s-.16.11-.19.09c-.22-.15-.13-.4-.18-.6a.88.88 0 0 0-.12-.21zm1.13 1.76l-.29-.25a.25.25 0 0 1 .27.25zm-.39-.13l.28.25a.29.29 0 0 1-.3-.25zm.14-.11l-.13.15v-.24zm-.14-.09zm15.78-7.4v.07c0 .02 0 0-.05 0zm40.32-36.25h-.07a.2.2 0 0 1 0-.07h.07a.21.21 0 0 1-.01.06zM287 143.5A143.5 143.5 0 1 1 143.5 0 143.5 143.5 0 0 1 287 143.5z" fill="#fac4c0"/></svg>