<svg id="Layer_1" data-name="Layer 1" xmlns="http://www.w3.org/2000/svg" viewBox="0 0 52.05 49.74"><title>deco</title><path d="M16.28,45.68c-.17-.5-.28-1-.49-1.53a1.18,1.18,0,0,1-.1-.53,8.86,8.86,0,0,0-.28-1.77,13.3,13.3,0,0,0-.58-2.47c-.25-.67-.35-1.39-.58-2.06s0-1.16-.19-1.73a4.68,4.68,0,0,0-.43-1.16s-.07-.1-.06-.12c.38-.47-.07-.87-.12-1.3A22.89,22.89,0,0,0,13,30.66c-.21-.93-.38-1.87-.63-2.79a3.55,3.55,0,0,1-.15-1.09c0-.27-.22-.39-.21-.63a5.32,5.32,0,0,0,0-1,6.9,6.9,0,0,0-.62-2.37.56.56,0,0,1-.06-.28A7.85,7.85,0,0,0,11,20.88c-.08-.46-.15-.92-.23-1.38a3.62,3.62,0,0,0-.4-1.53c-.09-.13-.07-.33-.12-.5s0-.53-.3-.66c-.07,0-.1-.16-.07-.27a2.51,2.51,0,0,0-.12-1.65,8,8,0,0,1-.38-1.3c0-.06,0-.14,0-.16s.13,0,.17.11c.26.43.5.87.77,1.3.53.84,1,1.69,1.62,2.5.73,1,1.45,2.07,2.09,3.15.41.7.9,1.34,1.31,2,.59,1,1.18,2,1.76,3.05s1.17,2.15,1.76,3.22l.6,1.09c.06.1.1.23.27.21h0a15.21,15.21,0,0,0,1,2.4,15.31,15.31,0,0,1,.83,1.63.32.32,0,0,0,.17.18h0c0-.06.09-.07.14,0s0,.13-.07.16h0c.21.34.44.67.61,1,.3.63.72,1.2,1,1.85s.57,1.29.87,1.94c.37.81.79,1.6,1.12,2.43A20.36,20.36,0,0,1,26.63,45a26.52,26.52,0,0,0,1.14,3.27,1.32,1.32,0,0,0,.1.21l.82-.55a17.93,17.93,0,0,0-.75-1.84,8,8,0,0,0-.9-1.91c-.16-.19,0-.46-.13-.68-.43-.85-.7-1.76-1.1-2.62a14.25,14.25,0,0,1-1-2.34,1.69,1.69,0,0,0-.31-.49c-.39-.53-.44-1.22-.8-1.76-.53-.78-.73-1.73-1.34-2.47-.19-.23-.16-.57-.35-.81,0-.06-.07-.15,0-.19s.11,0,.15.08l.14.24h0c.06.25.3.38.43.58.37.62.76,1.22,1.08,1.86.44.87.85,1.76,1.24,2.66.26.58.51,1.17.79,1.74s.71,1.34,1,2a22.41,22.41,0,0,1,1.1,2.68,10.81,10.81,0,0,0,1.4,2.81l1-.67c-.34-.69-.74-1.34-1.07-2-.64-1.35-1.42-2.62-2.1-3.94a17.06,17.06,0,0,1-1.24-2.59,19.32,19.32,0,0,0-1.28-2.57,23.22,23.22,0,0,0-1.18-2.08c-.69-1.11-1.22-2.31-1.88-3.44-.56-1-1.18-1.91-1.74-2.88-.06-.1-.1-.22-.15-.33a11.5,11.5,0,0,0-1.53-2.44,4.42,4.42,0,0,1-.59-1,18.29,18.29,0,0,0-1.91-3.13c-.63-.86-1-1.86-1.71-2.69S13,16,12.4,15.18s-1.16-1.87-1.8-2.75c-.4-.54-.72-1.13-1.12-1.67,0-.06-.15-.16-.08-.22s.14.06.2.12a25.7,25.7,0,0,1,1.77,2c.88,1,1.66,2,2.55,2.94.36.39.69.85,1.06,1.21.62.6,1.17,1.28,1.77,1.9s1.36,1.41,2,2.16c.92,1.08,1.94,2.08,2.91,3.12.77.82,1.54,1.63,2.29,2.47s1.5,1.7,2.27,2.52,1.9,1.89,2.89,2.78c1.2,1.09,2.24,2.33,3.43,3.43s2.08,2,3.11,2.95c.38.36.74.76,1.13,1.1s.94.8,1.42,1.19l.69.56,1-.71c-.15-.2-.3-.4-.46-.59-.43-.53-.93-1-1.39-1.52-.68-.76-1.3-1.56-2-2.31-.94-1-1.83-2.07-2.75-3.1-.41-.47-.86-.91-1.23-1.41a30.31,30.31,0,0,0-2.41-2.84l-1.84-1.9c-.73-.76-1.43-1.57-2.2-2.29s-1.41-1.45-2.15-2.14a35.94,35.94,0,0,1-2.57-2.59,11.24,11.24,0,0,0-1-.88c-.4-.36-.71-.84-1.13-1.18-.91-.74-1.72-1.57-2.6-2.34a6.65,6.65,0,0,1-.76-.73,1.58,1.58,0,0,0-.47-.34,2.79,2.79,0,0,1-.58-.44,15,15,0,0,0-1.08-1.05,5.19,5.19,0,0,1-1-1,4.82,4.82,0,0,0-1.09-1c-.08-.06-.24-.16-.17-.25s.19,0,.27.09a28.22,28.22,0,0,1,2.54,2c.45.37.88.77,1.33,1.13.71.58,1.4,1.18,2.13,1.73a24.69,24.69,0,0,1,2.2,2.13,16.5,16.5,0,0,1,1.24,1.26,7.73,7.73,0,0,0,.79.83c.9.8,1.8,1.6,2.66,2.45.43.42.91.79,1.35,1.19.22.2.51.29.69.52a4.46,4.46,0,0,0,.85.81,22.05,22.05,0,0,1,2.06,1.78C30,27,31,27.71,31.82,28.52c.24.23.45.48.7.7a25.38,25.38,0,0,1,2,1.85c1.13,1.22,2.24,2.46,3.44,3.61.95.91,2,1.77,2.83,2.76.38.44.82.83,1.19,1.28l.58-.44a13.09,13.09,0,0,1-1.79-1.9,33.55,33.55,0,0,1-2.15-2.63,2.22,2.22,0,0,0-.68-.71,3.64,3.64,0,0,1-.83-.92,29.22,29.22,0,0,0-2.18-2.53,12.35,12.35,0,0,0-2-2.12,12,12,0,0,1-1-1,2.72,2.72,0,0,0-.79-.61c-.28-.11-.4-.44-.62-.65-.86-.78-1.71-1.57-2.59-2.33-.27-.23-.47-.55-.75-.75a11.19,11.19,0,0,1-1.79-1.74c-.85-1-1.79-1.81-2.66-2.74-.34-.36-.72-.71-1.07-1.07s-1-1-1.48-1.51a12.53,12.53,0,0,0-1.86-1.71c-.66-.49-1.22-1.09-1.87-1.58a18.36,18.36,0,0,0-1.86-1.45,3.89,3.89,0,0,1-.7-.65,2.6,2.6,0,0,0-.57-.48.42.42,0,0,1,.45.08c1.14.82,2.33,1.55,3.49,2.34.64.43,1.27.88,1.92,1.28l2.23,1.37c.75.47,1.49.94,2.24,1.4s1.68,1,2.52,1.51c1,.58,2,1.18,3,1.72s2.1,1.17,3.12,1.8,1.91,1.2,2.83,1.84,1.62,1.1,2.41,1.68c1.31,1,2.71,1.78,4,2.77.94.73,1.93,1.38,2.91,2,1.48,1,2.95,2,4.35,3.14l.44.34.46-.44a1.81,1.81,0,0,1-.19-.22.47.47,0,0,0-.29-.2,1.24,1.24,0,0,1-.68-.52,3.84,3.84,0,0,0-.92-.7,15.78,15.78,0,0,0-2.26-1.55c-.73-.36-1.33-.9-2.05-1.26a9.52,9.52,0,0,1-1-.78c-.74-.51-1.49-1-2.22-1.53L38.14,24a5.12,5.12,0,0,0-1.26-.91c-.4-.14-.69-.57-1.07-.81a15.85,15.85,0,0,0-2-1.29c-.7-.32-1.25-.87-2-1.13a11.85,11.85,0,0,0-1.37-.69.25.25,0,0,1-.13-.06c-.4-.51-1-.68-1.52-1a11,11,0,0,0-1-.58c-.89-.53-1.76-1.1-2.67-1.59-.58-.31-1.07-.78-1.66-1-.76-.34-1.39-.88-2.14-1.24a4.54,4.54,0,0,1-1.23-.94,10.07,10.07,0,0,0-1.53-1c-1.23-.89-2.6-1.6-3.77-2.58-.65-.55-1.41-1-2-1.59-.07-.07-.19-.12-.16-.25a21.52,21.52,0,0,1,2.71,1.78,14.51,14.51,0,0,0,1.58,1c.92.5,1.77,1.13,2.71,1.6s1.93.93,2.89,1.4a25.42,25.42,0,0,1,4.06,2.1A14.26,14.26,0,0,0,28.9,16.6a28.06,28.06,0,0,1,3.4,2.23c.69.46,1.29,1.06,2,1.48a12.66,12.66,0,0,1,1.51,1.18,11.93,11.93,0,0,1,1.35,1.05.33.33,0,0,0,.11.09,10.8,10.8,0,0,1,1.89,1.28c.35.22.81.32,1.08.74.16.25.58.28.85.49a4,4,0,0,1,.92.75c.25.33.76.28,1,.58s1,.54,1.36,1.08a2.38,2.38,0,0,0,.88.63,14.38,14.38,0,0,1,2.23,1.72c.78.68,1.57,1.35,2.4,2l.27-.26c-1-.71-1.77-1.61-2.69-2.37A18.27,18.27,0,0,0,45,27.39c-.45-.26-.76-.73-1.23-1-.77-.41-1.41-1-2.15-1.49a.65.65,0,0,1-.14-.16.62.62,0,0,1-.53-.24.58.58,0,0,0-.47-.24c-.2,0-.22-.23-.36-.33-.42-.32-.83-.67-1.26-1-1.17-.85-2.29-1.75-3.47-2.56-.91-.62-1.69-1.41-2.66-2a4.63,4.63,0,0,1-.75-.64,14.23,14.23,0,0,1,1.68.87q1.35.73,2.67,1.5a8.82,8.82,0,0,1,.79.58c1,.76,2,1.54,3.09,2.29.64.45,1.35.81,2,1.3s1.5,1,2.21,1.6,1.45,1.13,2.2,1.65c.94.66,1.84,1.37,2.71,2.1a6.62,6.62,0,0,0,1.72.94l.55-.59a8.23,8.23,0,0,0-1.27-.89,2.75,2.75,0,0,1-1-.86h0c-.3.06-.4-.24-.6-.36a18.67,18.67,0,0,0-1.89-1.22,5.71,5.71,0,0,1-1.32-.85,32.92,32.92,0,0,0-2.74-2.05c-.56-.37-1.09-.77-1.64-1.15-.74-.51-1.42-1.11-2.12-1.67-.28-.23-.66-.33-.84-.69h0a1.3,1.3,0,0,1-.72-.31,9.4,9.4,0,0,0-1.37-.91c-.22-.11-.32-.36-.54-.48-1-.51-1.83-1.14-2.81-1.64-.73-.37-1.42-.84-2.14-1.25-.9-.51-1.9-.84-2.79-1.36s-1.66-.75-2.42-1.27a1.9,1.9,0,0,0-.62-.23c-.25-.06-.5-.12-.62-.4s-.28-.18-.43-.25a16.61,16.61,0,0,1-2.18-1.14A6,6,0,0,0,20,10.32a1.12,1.12,0,0,1-.39-.2A10.55,10.55,0,0,0,17.39,8.9a9.64,9.64,0,0,1-1-.67c-.57-.35-1.22-.56-1.8-.9-1-.58-2-1.13-2.94-1.71a8.29,8.29,0,0,0-.92-.52c-.13-.06-.32-.2-.26-.35s.25,0,.37,0c.59.12,1.11.43,1.7.58.89.23,1.76.53,2.63.81a46.77,46.77,0,0,0,5.79,1.44c1.18.22,2.32.62,3.51.78a13.74,13.74,0,0,1,1.84.31c.93.26,1.88.49,2.81.75.58.16,1.17.26,1.76.38a26.24,26.24,0,0,1,2.59.67c.62.19,1.26.32,1.86.54a32.92,32.92,0,0,1,3.44,1c.24.12.55.1.8.22,0,0,.16,0,.17,0,.17-.4.39-.09.57,0a11.94,11.94,0,0,1,1.87.66c.12.06.22.13.24.27.17-.16.31,0,.47,0a5.24,5.24,0,0,1,1.62.55c1.14.44,2.34.72,3.46,1.22.42.19.82.43,1.23.66a1.93,1.93,0,0,0,1.71.19c.25-.1.32-.25.19-.48a1.25,1.25,0,0,0-.42-.46c-.16-.1-.33-.18-.46.06a.32.32,0,0,1-.42.11,3.61,3.61,0,0,1-.85-.41,1.75,1.75,0,0,0-.53-.25A16.28,16.28,0,0,1,46,13.5a5.06,5.06,0,0,0-1.28-.37,7.18,7.18,0,0,1-1.13-.41L43,12.48c-.05,0-.16-.06-.11-.15s.11-.05.16,0a6.2,6.2,0,0,1,.91.11c.52.13,1.06.13,1.58.29.69.21,1.41.34,2.11.52s1.61.48,2.41.74a2.42,2.42,0,0,1,.26.12h0c.47.19,1,0,1.45.16.19.08.3,0,.31-.23a.56.56,0,0,0-.3-.55A3.42,3.42,0,0,0,50.44,13a4.31,4.31,0,0,1-1.71-.7,5.65,5.65,0,0,0-1.61-.55c-.57-.1-1.11-.33-1.67-.46s-1.22-.41-1.86-.53c-.41-.08-.83-.34-1.27-.4-.77-.1-1.49-.41-2.24-.51a13.1,13.1,0,0,1-1.89-.47,8,8,0,0,1-1.45-.41,4.63,4.63,0,0,0-1.48-.41,6.7,6.7,0,0,1-1.39-.47,31.73,31.73,0,0,0-4.13-1.15c-.7-.15-1.4-.4-2.11-.49-1.19-.16-2.33-.5-3.49-.75-.57-.13-1.11-.41-1.69-.49-.95-.13-1.85-.44-2.8-.58a14.68,14.68,0,0,1-1.94-.35,4.39,4.39,0,0,0-.88-.07c-.88-.06-1.73-.33-2.61-.39-1.86-.12-3.67-.55-5.51-.85-.7-.12-1.35-.37-2-.55-.11,0-.3,0-.27-.18s.22-.09.33-.07a13.25,13.25,0,0,0,1.57.1.84.84,0,0,0,.56-.07c-.15-.14-.34-.07-.51-.09C7.49,2,6.62,2,5.77,1.83a2.49,2.49,0,0,1-1.29-.29c-.15-.12-.39,0-.57-.13s-.21-.12-.18-.25.17-.09.27-.09l1.8,0c1.06,0,2.11.07,3.16.12.43,0,.86,0,1.28,0,.68,0,1.35.06,2,.07,1,0,2-.09,3-.07C16.86,1.12,18.41.94,20,1c1.92.1,3.85.1,5.77.25a.91.91,0,0,0,.7-.09.49.49,0,0,1,.36,0,18.88,18.88,0,0,0,2.08,0c1.26.17,2.53.07,3.79.2,1.83.18,3.66.3,5.5.44a26,26,0,0,0,3.4.22,3.22,3.22,0,0,1,.58.08c.05,0,.12,0,.11.07-.16.48.27.29.39.29a4.41,4.41,0,0,0,1.73-.13c.15-.06.33-.12.44.11a.28.28,0,0,0,.28.14A38.81,38.81,0,0,0,49,2.38a2.25,2.25,0,0,0,.94-.24c.59-.43,1.27,0,1.85-.32.07,0,.22.07.25-.07a.29.29,0,0,0-.17-.3.25.25,0,0,0-.18,0c-.64.23-1.23-.22-1.84-.14l-1,.13c-.12,0-.4.2-.31-.19,0-.08-.09-.13-.16-.06a.56.56,0,0,1-.62.08c-.52-.32-1,0-1.51,0a11.32,11.32,0,0,0-1.61-.09c-.26,0-.6.15-.79-.2a.07.07,0,0,0-.06,0c-.39.16-.76-.06-1.12-.11-.69-.08-1.35.15-2,.1A2.29,2.29,0,0,1,39.35.67c-.08-.06-.31.05-.48.06-.66,0-1.31-.09-2-.14-.28,0-.45.29-.72.21-.1,0-.49.17-.22-.23,0-.05,0-.09-.07-.09a22.49,22.49,0,0,0-2.42.17h0a16,16,0,0,1-1.69,0,7.22,7.22,0,0,0-1.12,0,4.2,4.2,0,0,1-1.22,0c-.48,0-1,0-1.45,0A12.32,12.32,0,0,1,25,.44c-.48-.1-1,.11-1.48,0a5.4,5.4,0,0,0-.64-.06c-.46,0-.93-.12-1.38-.08C20.74.42,20,.19,19.17.26c-.41,0-.84,0-1.27,0-.14,0-.29-.05-.42.06s-.12,0-.14,0C16.92-.06,16.42.28,16,.2a10.93,10.93,0,0,0-1.5,0c-.59,0-1.16.15-1.74.12a.65.65,0,0,1-.43-.1.51.51,0,0,0-.61,0c-.16.11-.37,0-.54,0-.81-.06-1.63,0-2.44,0a3.77,3.77,0,0,1-.44,0,3.11,3.11,0,0,0-1,0A4.53,4.53,0,0,1,5.84,0,2.61,2.61,0,0,0,5.16.1a27.84,27.84,0,0,1-3.55,0C1.32.12,1,.15,1,.6,1.06.7,1,.75.92.73.66.62.48.85.25.88A.28.28,0,0,0,0,1.26c.06.18.23.08.35,0A1.7,1.7,0,0,0,1.07,1c.06-.06.13-.09.19,0s.32.11.48.14.26,0,.27.18,0,.28-.14.34-.18.32-.18.51c0,.76.07,1.51.08,2.27,0,1.6.17,3.2.29,4.8a6,6,0,0,1,0,1c-.08,1,0,1.91,0,2.86,0,1.33-.06,2.67-.1,4-.05,1.78-.06,3.56-.1,5.34,0,1,0,2-.11,3-.07.78-.1,1.57-.12,2.35,0,1.29-.16,2.59-.08,3.89a13.44,13.44,0,0,1,0,2.24c0,.37.1.74,0,1.12a9,9,0,0,0,0,1.84c0,.51-.06,1,0,1.54,0,1.14,0,2.28.07,3.42a21.21,21.21,0,0,1,.08,3.06c0,.51-.17,1-.25,1.52,0,.22-.23.46.13.6.09,0,0,.15,0,.23s.05.48.31.53.31-.11.38-.36.05-.72.38-1c0,0,.05-.09.07-.08.36.1.37-.16.42-.39a3.86,3.86,0,0,0,.2-.7c.08-1.39,0-2.79.06-4.18.08-1,.12-2.07.2-3.1a4.47,4.47,0,0,0-.07-1.13,3.24,3.24,0,0,1,.11-1.07,2.19,2.19,0,0,0-.07-.67c0-.37.1-.71.09-1.07a15,15,0,0,1,0-2.16,10.79,10.79,0,0,0,.1-1.58c0-.25,0-.51.38-.53.09,0,.12-.28,0-.38S4,29,4,28.84s0-.61,0-.92c0-.1,0-.14-.13-.07a1.64,1.64,0,0,0-.27.18c-.14.14-.21.07-.18-.07s-.13-.52,0-.79c0,0,0-.11,0-.12s-.08,0-.12.06a.08.08,0,0,0,0,.06c.12.52-.23,1,0,1.54a1,1,0,0,1,0,.54,13.34,13.34,0,0,0,0,1.89c0,.45-.09.91-.11,1.37C3,33.58,3,34.65,3,35.71a12.6,12.6,0,0,1-.14,2.1c0,.26.12.52,0,.77a2.18,2.18,0,0,1-.12.22s-.08.12-.15.08,0-.08,0-.13a1.64,1.64,0,0,1,0-.48,8.34,8.34,0,0,0,0-2.08,7.38,7.38,0,0,1,0-1.38,18,18,0,0,0-.05-2.28c0-.59,0-1.18,0-1.76a9.7,9.7,0,0,0,0-1.93,13.78,13.78,0,0,1,.1-2.13c0-.67,0-1.35.14-2,.14-1.07,0-2.14.06-3.21A19.38,19.38,0,0,0,2.86,19a3.32,3.32,0,0,1-.08-.91,4.25,4.25,0,0,0,.15-1.21,34.48,34.48,0,0,0,0-3.55,4.7,4.7,0,0,1,0-1.38.55.55,0,0,1,.26-.36.48.48,0,0,1-.22-.41,4.2,4.2,0,0,0-.08-.87c0-.16-.07-.34.1-.47S3,9.71,3,9.63a9.56,9.56,0,0,1-.1-2.36,6.93,6.93,0,0,0-.19-2,4.58,4.58,0,0,1-.07-.91q0-.81,0-1.61c0-.09,0-.22.08-.26s.12.1.18.16a.84.84,0,0,1,.27.58c0,.73.17,1.45.23,2.17S3.29,7.15,3.34,8a8.24,8.24,0,0,0,.13,1.85,3.22,3.22,0,0,1,.16,1.52,1.2,1.2,0,0,0,.11.84.19.19,0,0,1,0,.1c-.16.94.35,1.87,0,2.82a3.21,3.21,0,0,0,0,1.53c.07.65,0,1.28,0,1.92a3.94,3.94,0,0,1-.06.87c0,.09,0,.22.13.23s.13-.12.14-.21a1.38,1.38,0,0,0,0-.69c-.07-.18.13-.31.16-.48a20.1,20.1,0,0,0,.17-2.22,2.4,2.4,0,0,1,.2-1.3c0-.05,0-.29.21-.1,0,0,.09-.06.06-.14a1.9,1.9,0,0,1-.23-1c0-.33.14-.58.15-.89,0-.81-.22-1.59-.28-2.39,0-.46,0-.93,0-1.39a3,3,0,0,1,0-.7c0-.06,0-.13.1-.14s.1.07.1.13c0,.42.26.82.17,1.25a.21.21,0,0,0,.13.24c.26.11.22.28.12.48A1.09,1.09,0,0,0,4.9,11a.41.41,0,0,1,0,.21,10.52,10.52,0,0,0,0,1.67,1.4,1.4,0,0,0,.22.9,3.59,3.59,0,0,1,.24.94c.06.22.19.3.36.26s.18-.25.11-.37a2.58,2.58,0,0,1-.12-1.47.94.94,0,0,0-.13-.7c-.21-.27,0-.53.17-.67s.23.1.26.24c.1.48.18,1,.27,1.44a50.85,50.85,0,0,0,1.12,5.2c.47,1.5.84,3,1.27,4.52.09.33.22.62.33.94A16.66,16.66,0,0,1,9.68,27c.09.53.18,1.06.29,1.59.25,1.17.44,2.35.74,3.5s.48,2.07.77,3.1a32,32,0,0,1,.88,3.45c.15,1,.5,1.84.69,2.78s.37,1.62.58,2.42v0c.07,1,.4,1.88.42,2.86a2.1,2.1,0,0,0,.51,1.09c.17.22.3-.07.33-.21A2.76,2.76,0,0,0,15,46.52a14,14,0,0,1-.14-1.67c-.07-.9-.27-1.78-.4-2.67a5,5,0,0,0-.38-1.56.25.25,0,0,1,0-.18c.24-.66-.1-1.24-.22-1.85,0,0,0-.1,0-.14,0-.2-.1-.4,0-.61a1.67,1.67,0,0,1,.2.6c.24,1,.48,2.07.71,3.11s.45,2,.67,3,.47,2.18.7,3.27a4.27,4.27,0,0,1,.17,1,1.87,1.87,0,0,0,.69.94c.26.08.27-.12.29-.29a2.62,2.62,0,0,0-.39-1.8A9.14,9.14,0,0,1,16.28,45.68Zm4.24-34.27a3,3,0,0,1,.86.46c.09.07,0,.16-.06.13-.29-.15-.58-.33-.86-.51,0,0,0,0,0,0S20.51,11.4,20.53,11.41ZM16.29,4.68c.42,0,.85.08,1.27.14,2.1.34,4.19.79,6.25,1.31l4.36,1.08c1.57.39,3.16.69,4.7,1.18,1.7.54,3.41,1.08,5.13,1.57,1.51.43,3,.75,4.57,1.1.48.11.94.27,1.41.41.06,0,.16,0,.13.14s-.08.06-.12.06a5.25,5.25,0,0,1-2.2-.23,2.92,2.92,0,0,0-1.41-.16,2.2,2.2,0,0,1-1.33-.08,13.34,13.34,0,0,0-2.16-.65,1.08,1.08,0,0,1-.47-.19,1.32,1.32,0,0,0-.49-.23c-.47-.14-1-.19-1.42-.36A21.86,21.86,0,0,0,32.14,9c-.93-.22-1.83-.51-2.78-.68s-1.86-.56-2.82-.68c-.61-.08-1.16-.35-1.76-.46s-1.28-.43-1.94-.51c-.42,0-.78-.31-1.22-.27-.28.14-.4-.2-.66-.22A3.56,3.56,0,0,1,19.6,5.8a1.46,1.46,0,0,0-.53-.14,17.72,17.72,0,0,1-2.83-.83c-.06,0-.22,0-.19-.12S16.21,4.68,16.29,4.68Zm-2.74.19C14,5,14.55,5,15,5.12c1,.3,2,.57,3,.83,1.2.31,2.38.67,3.59.91a8.77,8.77,0,0,1,1.49.34,2.41,2.41,0,0,1,.84.23c.08,0,.25,0,.21.12s-.16,0-.26,0c-.58-.08-1.15-.25-1.73-.3A15.36,15.36,0,0,1,20.43,7a19.23,19.23,0,0,1-2.36-.59c-.84-.29-1.74-.4-2.57-.75a8.54,8.54,0,0,0-2-.58c-.07,0-.22,0-.2-.09S13.45,4.85,13.55,4.88Zm22.38-3.6c.72,0,1.44,0,2.16,0a6.83,6.83,0,0,1,1,0,10.32,10.32,0,0,0,1.87.1q1.93,0,3.86.13c.84.07,1.67.19,2.52.21.07,0,.18,0,.18.07s-.11.07-.18.07c-.56,0-1.12.07-1.68.1-.94.06-1.87-.11-2.81,0-.46,0-1-.12-1.44-.07a18.06,18.06,0,0,1-2.65-.2,14.78,14.78,0,0,1-2.48-.21l-.36,0c-.08,0-.18,0-.22-.1A.93.93,0,0,1,35.93,1.27ZM5.81,11.62c-.1,0-.19,0-.18-.14a1.66,1.66,0,0,0-.28-1.21s0,0,0-.07l.11-.43c.13.11.1.26.12.4s0,.09,0,.14c0,.39.28.73.27,1.13C5.89,11.52,5.91,11.6,5.81,11.62Zm.72-2.1s0,.06,0,.09-.06,0-.07-.06A6.11,6.11,0,0,1,6,7.82c0-.07,0-.16,0-.19s.11.07.17.12c.43.38.28.9.33,1.4A.82.82,0,0,0,6.53,9.52Zm4.58,1.67c.36.36.73.71,1.11,1,1,.86,1.9,1.76,2.89,2.6,1.22,1,2.37,2.12,3.52,3.21,1,.92,1.91,1.89,2.89,2.8a9.2,9.2,0,0,0,.91.81c.25.18.4.54.67.76.73.59,1.34,1.3,2,2s1,1,1.54,1.55a20.35,20.35,0,0,1,1.49,1.52c1.09,1.33,2.33,2.52,3.43,3.84.51.61,1,1.19,1.55,1.8.12.14.36.13.41.29a3.32,3.32,0,0,0,.85,1.13c.64.77,1.24,1.57,1.91,2.31,1,1.13,1.91,2.39,3,3.46,0,0,.12.11.06.19s-.12,0-.17,0a8.16,8.16,0,0,1-1.5-1.15c-.51-.6-1.23-.91-1.75-1.47a7.82,7.82,0,0,0-1.19-1c-.26-.19-.46-.61-.75-.86-.73-.62-1.3-1.39-2-2.06-.31-.3-.7-.52-1-.84-.6-.71-1.34-1.28-2-2-.37-.4-.8-.76-1.21-1.13a20.34,20.34,0,0,1-1.71-1.84c-.67-.76-1.43-1.45-2.06-2.25-.46-.58-1.12-.95-1.49-1.6a.76.76,0,0,0-.16-.16,10.92,10.92,0,0,1-1-1c-.36-.44-.76-.86-1.13-1.29-.57-.67-1.22-1.26-1.81-1.91l-1.94-2.11c-1-1.05-2-2.1-2.86-3.2A21.8,21.8,0,0,1,11.52,12a.83.83,0,0,0-.24-.22c-.21-.15-.24-.44-.48-.59,0,0,.06-.08.09-.08A.28.28,0,0,1,11.11,11.18ZM13.22,9c.11.05.05.16,0,.25,0-.15-.18-.17-.27-.26s-.41-.27-.49-.51C12.78,8.57,12.95,8.86,13.22,9Zm-.83-1.82c.12-.08.15.07.24.09-.09,0-.18.07-.25,0A.07.07,0,0,1,12.39,7.18Zm0,1.24.07,0h-.07ZM8.12,4.86s.08,0,.1,0a4.68,4.68,0,0,1,1.13,1s0,.08-.06.08l-.06,0A9.78,9.78,0,0,1,8.17,5S8.06,4.93,8.12,4.86Zm.13,1c.68.43,1.17,1.1,1.88,1.5,0,0,0,0,0,.06A14.75,14.75,0,0,0,12,9.07c.54.45,1.14.85,1.65,1.32.69.62,1.48,1.1,2.15,1.74s1.33,1,1.95,1.6c1.29,1.22,2.52,2.5,3.69,3.83.94,1.06,2,2,3,3,.24.24.45.51.7.75s.51.24.58.48c.14.55.63.78,1,1.09.74.64,1.51,1.22,2.28,1.83a20.57,20.57,0,0,1,1.76,1.73,1.75,1.75,0,0,1,.41.52c0,.08.15.17,0,.25a.2.2,0,0,1-.27,0c-.44-.54-1.05-.9-1.52-1.4-.9-1-2-1.72-2.94-2.68s-1.85-1.48-2.65-2.36c-.54-.6-1.27-.95-1.81-1.55-.69-.78-1.46-1.49-2.19-2.23a16.56,16.56,0,0,0-1.28-1.3c-.7-.57-1.38-1.17-2.08-1.74a28.4,28.4,0,0,0-2.54-2.08,1.63,1.63,0,0,1-.8-.87c0-.1-.14-.14-.24-.15s-.18,0-.24-.06c-.31-.44-.94-.57-1.1-1.14,0,0-.08-.09-.14-.12A8,8,0,0,1,9.9,8.25c-.52-.5-1-1-1.49-1.57A2,2,0,0,1,8,5.94C8.05,5.76,8.14,5.81,8.26,5.89ZM6.7,10.77s0-.07,0-.07a.12.12,0,0,1,.13.1c.07.24.14.49.2.74a.11.11,0,0,1-.08.14c-.06,0-.07-.05-.09-.1A2.17,2.17,0,0,1,6.7,10.77ZM10.5,25.47c.12.41.17.84.3,1.24a17.65,17.65,0,0,1,.47,1.93c.24,1.15.58,2.28.77,3.44.12.68.31,1.35.45,2s.29,1.56.5,2.31c.14.5.12,1,.29,1.5a3.94,3.94,0,0,1,.24,1.4,1.25,1.25,0,0,0,.1.65c.07.14-.06.22-.09.34s-.05,0-.08.05-.05-.06-.05-.09A8.69,8.69,0,0,0,13.09,39a11.43,11.43,0,0,0-.16-1.41,2.52,2.52,0,0,1-.38-1.31s0,0,0-.07a16.21,16.21,0,0,0-.38-1.58c-.24-1-.49-2-.66-3-.22-1.29-.67-2.54-.82-3.85-.08-.71-.28-1.39-.41-2.09-.1-.53-.3-1-.42-1.57a12.61,12.61,0,0,0-.47-1.65A19.09,19.09,0,0,0,8.69,20a9.39,9.39,0,0,1-.3-1.2c-.35-1-.43-2.07-.74-3.09a2,2,0,0,1-.11-1,.62.62,0,0,0-.17-.54.59.59,0,0,1-.14-.33A7.92,7.92,0,0,0,7,12.35c0-.11-.2-.42.06-.46s.21.25.26.43A11.49,11.49,0,0,0,8,14.39h.09a2.45,2.45,0,0,0-.11-1,8.37,8.37,0,0,0-.3-1.45,10.55,10.55,0,0,1-.4-2.12c0-.07,0-.16.08-.18s.11.06.12.12c.09.39.32.74.42,1.14a13.88,13.88,0,0,0,.44,1.53A19.37,19.37,0,0,1,9,15.3c.26,1.34.55,2.68.91,4a19.66,19.66,0,0,1,.85,3c.08.63.27,1.26.39,1.89.2,1.07.4,2.14.61,3.21s.46,2.38.7,3.56.49,2.32.71,3.48c.19,1,.39,1.93.5,2.9a.68.68,0,0,1-.22-.38c-.36-1.48-.7-3-1.07-4.43-.21-.81-.33-1.65-.54-2.46a9.73,9.73,0,0,1-.32-1,7.2,7.2,0,0,0-.27-1.18,18.6,18.6,0,0,0-.71-2.43.7.7,0,0,1,0-.16A.17.17,0,0,0,10.5,25.47Z" style="fill:#bc9139"/><path d="M10.42,10.53l0,.12h0s0-.09,0-.13h0Z" style="fill:#bc9139"/><path d="M19.68,11l.14,0c.07,0,.16.07.13.14s-.13,0-.19,0a.13.13,0,0,1-.07-.15h0Z" style="fill:#bc9139"/><path d="M24.62,7.72c-.07,0-.12,0-.12-.11s.05-.08.1-.06.12,0,.12.11S24.67,7.72,24.62,7.72Z" style="fill:#bc9139"/><path d="M31.73,17.61l0,0h.06Z" style="fill:#bc9139"/><path d="M15.67,4.66h.05l0,0Z" style="fill:#bc9139"/><path d="M5.84,24.39a4.69,4.69,0,0,0-.41,1.17c0,.14-.1.32.14.38.08,0,.1.1.05.18a2.59,2.59,0,0,0-.28,1.31c0,.67-.12,1.34-.14,2,0,1.45-.09,2.89-.09,4.34,0,1.95,0,3.89-.12,5.83-.05,1-.05,2.07,0,3.11a5.44,5.44,0,0,1-.14,1.49,13.85,13.85,0,0,0-.25,2.26,1.78,1.78,0,0,1-.09.47c-.06.16-.12.3.08.44s0,.35.1.52,0,.26.19.28.16-.13.21-.22a2.86,2.86,0,0,0,.28-1,37.11,37.11,0,0,0,.16-4.73c0-.63,0-1.28,0-1.92a3.42,3.42,0,0,1,.09-.94,8.58,8.58,0,0,0,.08-2.08,10.23,10.23,0,0,0,0-1.56,15.1,15.1,0,0,1,0-2.27,5.14,5.14,0,0,1,.1-1.5,3.23,3.23,0,0,0,0-1,6.79,6.79,0,0,1,0-1.85,1.5,1.5,0,0,0,0-.4c-.08-.82.07-1.64,0-2.47a7.2,7.2,0,0,1,0-1.71c0-.05,0-.09-.09-.09Z" style="fill:#bc9139"/><path d="M5.54,21a2.24,2.24,0,0,0,.19,1.18.89.89,0,0,1,0,.91.47.47,0,0,0-.1.27c0,.13,0,.3.17.31s.07-.16.1-.24A3.57,3.57,0,0,0,6,21.87a5.91,5.91,0,0,1,0-1.39c0-.22-.19-.3-.24-.51a1.65,1.65,0,0,1,.08-1c.15-.4,0-.78,0-1.17a2.6,2.6,0,0,0,.07-.84,4.35,4.35,0,0,0-.26-.89c0-.08-.11-.13-.07-.23s.1-.24-.09-.23a.2.2,0,0,0-.17.27c.08.21,0,.49.13.62s0,.46.06.69a6.06,6.06,0,0,1-.05,1.39,6.19,6.19,0,0,0,.09,2.07A1.61,1.61,0,0,1,5.54,21Z" style="fill:#bc9139"/><path d="M12,2.35a7.42,7.42,0,0,0,2.11.06,5.68,5.68,0,0,0,2.06,0,1.8,1.8,0,0,1,.69,0,9.43,9.43,0,0,0,1.27,0c.05,0,.14,0,.15,0s-.08-.11-.13-.11c-.23,0-.47,0-.71,0-.57-.08-1.16.13-1.72-.11,0,0,0,0-.07,0a1.52,1.52,0,0,1-.91,0,.36.36,0,0,0-.24.06.69.69,0,0,1-.66,0,.94.94,0,0,0-.7,0,.48.48,0,0,1-.36,0c-.33-.17-.67,0-1-.07-.09,0-.21,0-.22.08s.13.11.22.13A1.39,1.39,0,0,0,12,2.35Z" style="fill:#bc9139"/><path d="M21,2.58l2.77.07c.19,0,.39,0,.58,0s.14,0,.13-.09a.12.12,0,0,0-.13-.11c-1.14.06-2.28-.13-3.42,0-.07,0-.17,0-.17.1S20.91,2.58,21,2.58Z" style="fill:#bc9139"/><path d="M9.86,2.29l1.25.08c.08,0,.2,0,.21-.11a.17.17,0,0,0-.21-.16,5.34,5.34,0,0,1-1.22,0h0c-.12,0-.26,0-.26.14S9.76,2.3,9.86,2.29Z" style="fill:#bc9139"/><path d="M3.89,20.81c0-.15.08-.31.1-.46a.21.21,0,0,0-.15-.26c-.1,0-.13.08-.17.15a1.13,1.13,0,0,0,0,.78c0,.08,0,.19.13.19s.11-.13.13-.22,0-.12,0-.18Z" style="fill:#bc9139"/><path d="M4.62,15.32c0,.31,0,.6,0,.89,0,.09,0,.26.12.26s.09-.16.09-.25c0-.29,0-.58,0-.87,0-.13,0-.34-.15-.33S4.65,15.23,4.62,15.32Z" style="fill:#bc9139"/><path d="M3.36,24.6c0,.12-.06.3-.09.48s0,.28.15.29.19-.18.17-.27a2.24,2.24,0,0,1,0-.55c0-.13,0-.29-.15-.28S3.35,24.44,3.36,24.6Z" style="fill:#bc9139"/><path d="M31.75,2.87l.54,0c.09,0,.23.08.24-.06s-.17-.19-.24-.17a2.34,2.34,0,0,1-.86,0c-.05,0-.11,0-.1.06a.14.14,0,0,0,.09.1A3.24,3.24,0,0,0,31.75,2.87Z" style="fill:#bc9139"/><path d="M26.89,2.78c.2-.16.62,0,.61-.14s-.31.09-.47,0a.35.35,0,0,0-.14,0c-.07,0-.17,0-.18.06S26.83,2.71,26.89,2.78Z" style="fill:#bc9139"/><path d="M35.32,2.87c.12,0,.3,0,.38-.13s-.09-.16-.14-.11-.36-.13-.44.1S35.22,2.87,35.32,2.87Z" style="fill:#bc9139"/><path d="M3.94,26.59c0,.13,0,.26,0,.37a.3.3,0,0,0,.08-.33s0,0,0,0,.13-.28,0-.41Z" style="fill:#bc9139"/><path d="M28.45,2.79l.41-.06a.29.29,0,0,0,0-.08.26.26,0,0,0-.38,0s-.14,0-.12.08S28.41,2.78,28.45,2.79Z" style="fill:#bc9139"/><path d="M41,2.53c.07,0,.12,0,.12-.1A.12.12,0,0,0,41,2.31c-.06,0-.16,0-.14.11A.14.14,0,0,0,41,2.53Z" style="fill:#bc9139"/><path d="M19.76,2.42a1.22,1.22,0,0,0-.24.07s0,.06,0,.06a.16.16,0,0,0,.19-.13Z" style="fill:#bc9139"/><path d="M34,2.76l.16,0s.09,0,0-.05-.09,0-.14,0S33.95,2.68,34,2.76Z" style="fill:#bc9139"/><path d="M38.69,13l0,0,0,0,0,0Z" style="fill:#bc9139"/><path d="M4.36,27.84v0l0,0s0,0,0,0Z" style="fill:#bc9139"/><path d="M41.53,24.76l.09,0h0l-.06,0Z" style="fill:#bc9139"/><path d="M21.75,34.32l.07.17h0l-.07-.16Z" style="fill:#bc9139"/><polygon points="38.27 20.32 38.3 20.33 38.28 20.31 38.27 20.32" style="fill:#bc9139"/><polygon points="49.42 28.31 49.44 28.32 49.42 28.31 49.42 28.31" style="fill:#bc9139"/><polygon points="50.3 14.06 50.27 14.05 50.29 14.07 50.3 14.06" style="fill:#bc9139"/><path d="M8.25,15.27c-.24.28,0,.57,0,.84.19,1.42.69,2.78,1,4.17s.66,2.84,1.07,4.24c0,0,0,.1,0,.13a1,1,0,0,0,0-.14,13,13,0,0,0-.34-1.93,13.26,13.26,0,0,0-.35-1.42,11.73,11.73,0,0,1-.51-2.42,10.91,10.91,0,0,0-.43-1.52,5.4,5.4,0,0,1-.34-1.52c0-.15,0-.35-.2-.42Z" style="fill:#bc9139"/><path d="M8.25,15.28l0-.1a.23.23,0,0,0-.1-.28s-.08,0-.09,0,.08.16.13.24a.39.39,0,0,1,0,.1Z" style="fill:#bc9139"/><path d="M8.05,14.39v.16A.11.11,0,0,0,8.05,14.39Z" style="fill:#bc9139"/><path d="M8,14.55v-.16A.13.13,0,0,0,8,14.55Z" style="fill:#bc9139"/><path d="M8,14.61H8Z" style="fill:#bc9139"/><path d="M15.19,12s0,0,0,0h0Z" style="fill:#bc9139"/><path d="M38.83,10.65a.11.11,0,0,0,0,0v0a.11.11,0,0,0,0,0Z" style="fill:#bc9139"/></svg>