<svg id="Layer_1" data-name="Layer 1" xmlns="http://www.w3.org/2000/svg" viewBox="0 0 105.11 13.84"><title>divider</title><path d="M94.13,3.72c.39.11.69.41,1.08.51a2.08,2.08,0,0,1,.51.17c.68.38,1.25.93,1.91,1.34a.27.27,0,0,1,.12.15.85.85,0,0,0,.18.35A17.62,17.62,0,0,1,101,9.32a2.89,2.89,0,0,0-.19-.46c-.42-.63-.86-1.24-1.3-1.85s-.73-1-1.12-1.46A4.38,4.38,0,0,0,97,4.36a.12.12,0,0,1-.05,0c-.26-.46-.75-.58-1.17-.8a.55.55,0,0,1-.15-.16s-.08-.09,0-.14a.11.11,0,0,1,.15,0,3.76,3.76,0,0,1,1,.55,5.83,5.83,0,0,0,1,.69,17.22,17.22,0,0,1,1.51,1.11,5.37,5.37,0,0,1,1.17,1.67,7.26,7.26,0,0,0,.64,1A9.45,9.45,0,0,1,102.22,10c.2.37.35.77.55,1.14a5.78,5.78,0,0,0,2.17,1.05H105a8.29,8.29,0,0,1,0-1.22c0-.08,0-.21,0-.24-.25-.08-.2-.27-.22-.45s0-.31-.17-.4a.53.53,0,0,1-.26-.35c-.2-.78-.68-1.43-.91-2.21a7.46,7.46,0,0,0-.95-1.93,8.54,8.54,0,0,0-1.11-1.51,10,10,0,0,0-2.51-1.76,11.58,11.58,0,0,0-2.53-.92c-.64-.15-1.32-.14-2-.28a6.19,6.19,0,0,0-2,.13c-.68.08-1.31.35-2,.47a5.26,5.26,0,0,0-.7.08,22.53,22.53,0,0,1-3.08.76,3.73,3.73,0,0,0-1.26.42.77.77,0,0,1-.84.11c-.11-.06-.21,0-.3.06A.74.74,0,0,0,84,3.4,4.58,4.58,0,0,1,82.6,5.46a4.9,4.9,0,0,0-.56.65c-.4.53-.54,1.21-.93,1.75a2.34,2.34,0,0,0-.25.4c-.2.44-.38.89-.56,1.34-.4,1-1.39,1.36-2.2,1.87a12,12,0,0,1-2.52.75c-.38.13-.78.06-1.15.21a3.6,3.6,0,0,1-2.93-.25,5.2,5.2,0,0,1-1.37-1c-.36-.34-.7-.71-1.07-1a4.35,4.35,0,0,1-.79-.68,5.35,5.35,0,0,0-.3-.56c-.24-.28-.46-.58-.7-.86a6.51,6.51,0,0,1-.93-1.35,16,16,0,0,0-1.39-2l0-.11c-.3-.14-.42-.46-.68-.65s-.7-.51-1.06-.75a7,7,0,0,0-2.18-1.33,18.59,18.59,0,0,1-1.91-.66c-.26-.1-.49-.2-.76,0a.15.15,0,0,1-.12,0,3.43,3.43,0,0,0-1.51-.3,34.27,34.27,0,0,0-3.85,0,9.67,9.67,0,0,0-2.1.21,4.35,4.35,0,0,0-1.47.64,14.23,14.23,0,0,0-1.28,1.18,3,3,0,0,0-.41.43,5.34,5.34,0,0,1-1,1.18.79.79,0,0,0-.17.23c-.29.44-.51.92-.83,1.35a5,5,0,0,0-1,1.7c0,.19-.12.31-.32.33a.21.21,0,0,0-.19.19c0,.14-.12.18-.21.26a13.58,13.58,0,0,1-1.41,1h0l.08.08h0a1,1,0,0,0,.63-.12A18.66,18.66,0,0,0,44.79,8a8.45,8.45,0,0,1,.85-1l0,0c.55-.66.89-1.47,1.44-2.13a14.27,14.27,0,0,1,1.31-1.61,5.52,5.52,0,0,1,2.93-1.58c.4-.06.8-.07,1.2-.1.06,0,.13,0,.15.09a.14.14,0,0,1-.1.15,8.25,8.25,0,0,0-1.06.58A4.32,4.32,0,0,0,50,3.46c-.41.54-.81,1.09-1.2,1.65a1.72,1.72,0,0,1-.57.63,8.08,8.08,0,0,0-2,1.55,1.38,1.38,0,0,1-.48.4c0,.13-.11.2-.17.29-.22.3-.55.47-.76.79A6.74,6.74,0,0,1,43.7,10a5,5,0,0,1-1.55,1,10.93,10.93,0,0,1-2,.54c-.88.17-1.78.11-2.67.25-.08,0-.22,0-.24-.1s.1-.15.17-.16c.44,0,.82-.28,1.25-.36a14.24,14.24,0,0,0,1.54-.47c.08,0,.19-.09.16-.17s-.14-.06-.22,0a4.77,4.77,0,0,1-1.28.31l-.09,0a10.76,10.76,0,0,1-1.16.26,7.53,7.53,0,0,1-2.47,0,3.71,3.71,0,0,1-2-.71.43.43,0,0,0-.11-.06,4.3,4.3,0,0,1-1.25-1.09c-.41-.45-.73-1-1.17-1.42a6,6,0,0,1-1-1.12,6,6,0,0,0-1.86-2.07,7,7,0,0,1-.69-.4c-.58-.49-1.15-1-1.77-1.44a1.48,1.48,0,0,0-.42-.27A2.66,2.66,0,0,1,24,2.15a1.6,1.6,0,0,0-.64-.26,2,2,0,0,1-.86-.3,1,1,0,0,0-.68-.21,1.63,1.63,0,0,1-.89-.19C20.16.87,19.35.62,18.55.34A8.13,8.13,0,0,0,16.07,0,10,10,0,0,0,14,.39c-.49.09-1,.29-1.44.41A8.26,8.26,0,0,0,9.78,2.47h0l-.29.29a4,4,0,0,0-.83.9v0h0a2,2,0,0,0-.44,1,3.57,3.57,0,0,1-1.45,2h0a2.33,2.33,0,0,1-.18.18A15.75,15.75,0,0,0,4.85,8.39a1.36,1.36,0,0,1-.3.32,11,11,0,0,0-1.33.9A1.63,1.63,0,0,1,1.81,10C1.39,9.91.9,9.74.48,10.1h0s-.05,0-.08,0h0c-.2.11-.4.26-.38.51s.34.37.54.36a6.27,6.27,0,0,1,1.19.16,6.8,6.8,0,0,0,1.41,0,5.32,5.32,0,0,0,2.27-.75A8.48,8.48,0,0,0,6.86,9.09c.57-.53,1-1.17,1.63-1.67h0c.19-.08.22-.31.37-.44a6.85,6.85,0,0,1,.7-.58,6,6,0,0,1,1.37-1,17.91,17.91,0,0,0,1.84-.75,2.86,2.86,0,0,1,.91-.34,1,1,0,0,0,.27-.08,16,16,0,0,1,1.49-.68,2.08,2.08,0,0,0,.7-.26,1.28,1.28,0,0,1,1-.28,1.29,1.29,0,0,0,.44,0,17.37,17.37,0,0,1,2.13-.15h0a4.42,4.42,0,0,1,1.21,0h0c.31.09.63-.05.94,0a6.3,6.3,0,0,1,1.78.8,4.31,4.31,0,0,1,1.17.89,2.52,2.52,0,0,0,.72.65c.3.18.4.56.66.8a1.87,1.87,0,0,1,.54,1.17,2,2,0,0,0,.46,1,6.17,6.17,0,0,1,.45.62,8.47,8.47,0,0,0,1.24,1.65c.25.26.62.3.83.6a1.19,1.19,0,0,0,.77.45,10.82,10.82,0,0,1,1.61.37,7.5,7.5,0,0,0,1.19.51,7.74,7.74,0,0,0,2,.23.82.82,0,0,1,.34,0,.92.92,0,0,0,.59.07,12.68,12.68,0,0,1,1.6-.07c.39-.06.82,0,1.23,0a14.52,14.52,0,0,0,2.23-.54c.29-.08.56-.32.85-.34a2.4,2.4,0,0,0,1.21-.34,9.9,9.9,0,0,0,2.13-1.26h0c.47-.41.94-.83,1.39-1.26a11.18,11.18,0,0,0,1.59-2,2.77,2.77,0,0,1,.89-1c.51-.3,1-.57,1.55-.86a9.29,9.29,0,0,1,2.22-1.12,1.07,1.07,0,0,0,.38-.15,3.36,3.36,0,0,1,1.27-.47A4.26,4.26,0,0,1,56.3,3c.32,0,.7-.07,1,.06a2.68,2.68,0,0,0,1,.18,3.09,3.09,0,0,1,1.34.3,22.73,22.73,0,0,0,2.25,1.24,3.53,3.53,0,0,1,1.17,1c.39.46.72,1,1.11,1.43a17.45,17.45,0,0,1,1.08,1.52,5.42,5.42,0,0,0,1.2,1.47c.44.33.85.7,1.31,1a13.65,13.65,0,0,1,1.55,1.43,2.39,2.39,0,0,0,.88.55,3.84,3.84,0,0,0,1.05.29c.44,0,.81.29,1.27.27a12,12,0,0,1,1.59,0c.41,0,.86.2,1.24-.15a.09.09,0,0,1,.09,0c.13.1.24,0,.36,0,.41-.1.82-.2,1.23-.28a1.47,1.47,0,0,0,.47-.16c.31-.17.61-.39.92-.53.58-.26,1.17-.49,1.74-.77.15-.08.31,0,.46-.07a6.26,6.26,0,0,0,1.86-2,.39.39,0,0,0,.05-.21.33.33,0,0,1,.1-.23l1.23-1.42a12.85,12.85,0,0,1,1.35-1.23c.68-.6,1.29-1.28,2-1.84a5.55,5.55,0,0,1,1.2-.73,10.94,10.94,0,0,1,2.22-.66,10.1,10.1,0,0,1,1.7-.26,4.92,4.92,0,0,1,1.84.56Zm3.74-1.18a.23.23,0,0,1,.12,0c.58.46,1.22.83,1.79,1.32.73.63,1.33,1.37,2,2.06a.58.58,0,0,1,.15.2,11.21,11.21,0,0,0,.65,1.39,8.92,8.92,0,0,1,.68,2.63.35.35,0,0,1,0,.06,1.27,1.27,0,0,1,0,.5c-.15-.09-.07-.26-.15-.39-.24-.41-.15-1-.48-1.33s-.58-1.05-1-1.5a5.83,5.83,0,0,1-.51-.88,10.31,10.31,0,0,0-1.63-2.24c-.58-.52-1.26-.9-1.83-1.43a2.58,2.58,0,0,0-1.09-.62c-.12,0-.25-.07-.28-.23A5.73,5.73,0,0,0,97.88,2.54ZM10.93,3.63c-.32.28-.66.53-1,.82-.06.05-.17.14-.25.05a.35.35,0,0,1,0-.39,2.89,2.89,0,0,1,.69-.9V3.07h0v.14c.34-.26.68-.51,1-.78A1.67,1.67,0,0,1,12,2.16l0-.05,0,0c.16-.36.5-.45.83-.56.08,0,.18-.08.24,0s0,.16-.08.22a3.4,3.4,0,0,1-.48.36A8.26,8.26,0,0,0,10.93,3.63ZM17.1,2.29c-.26,0-.5.11-.77.08-.09,0-.14.13-.26.17-.61.19-1.14.57-1.75.74-.09,0-.13.15-.24.14H14L12.64,4s-.12,0-.17-.06,0-.12,0-.17a1.3,1.3,0,0,1,.45-.51c.24-.15.45-.37.68-.52.47-.29.94-.67,1.57-.47.12,0,.26.08.29-.12,0,0,.05-.08.08-.08A14.33,14.33,0,0,1,17.12,2a.2.2,0,0,1,.2.18C17.32,2.32,17.19,2.31,17.1,2.29ZM30.57,9.4a.27.27,0,0,1-.37-.11c-.11-.22-.33-.33-.47-.51a8.8,8.8,0,0,1-1-1.14,5.51,5.51,0,0,0-.56-.69,1.74,1.74,0,0,1-.26-1.42h0c.06,0,.13,0,.18,0,.33.42.71.79,1.06,1.18A9.38,9.38,0,0,1,30,8.17a4,4,0,0,1,.54.94C30.59,9.2,30.76,9.31,30.57,9.4ZM46.75,8a6.55,6.55,0,0,1-1.19,1.15s-.07,0-.11,0a.54.54,0,0,1,.22-.43,7.1,7.1,0,0,0,.9-.9c.08-.08.24-.21.29-.16S46.82,7.92,46.75,8Zm6.87-5.36a6.59,6.59,0,0,0-1.06.48c-.38.27-.82.43-1.19.71s-.53.38-.8.57c-.06,0-.12.07-.17,0a.14.14,0,0,1,0-.18c.34-.34.53-.83,1-1.06a4.47,4.47,0,0,0,.77-.31,4.33,4.33,0,0,1,1.38-.49c.09,0,.2,0,.23.08S53.69,2.62,53.62,2.66ZM85.85,4a1.61,1.61,0,0,1-.37.39A6.93,6.93,0,0,0,84,6.16c-.35.54-.68,1.1-1.08,1.6a.55.55,0,0,1-.26.23.27.27,0,0,1,0-.21,10.81,10.81,0,0,1,1.17-2,2,2,0,0,0,.43-.73,2,2,0,0,1,1.4-1.26c.08,0,.19,0,.24,0S85.88,4,85.85,4Z" style="fill:#fac5c0"/></svg>