<svg id="24c134c1-2f77-42b8-8150-46721894ab11" data-name="Layer 1" xmlns="http://www.w3.org/2000/svg" viewBox="0 0 842.79325 539.24567"><title>gold-border</title><path d="M841.80513,211.83287a128.57234,128.57234,0,0,0-.40161-12.944c-.5625-7.52643.09766-15.18469-1.8335-22.55774-1.33911-5.11273-.96973-10.37677-2.01514-15.5636-.91943-4.56256-.56445-9.60706-.96631-14.42236-.77368-9.27374-1.16455-18.53668-.08716-27.81262.37451-3.22089.936-6.44446.98828-9.67371.166-10.241.6001-20.49817-.42383-30.71552-.2356-2.351-1.06836-5.39911-1.57593-5.38165-5.34546.18445-11.72388-1.81244-16.63745-2.679a45.075,45.075,0,0,1-18.38721-7.6601c-6.14307-4.41925-12.259-9.10217-17.30957-14.90991-.91772-1.05548-2.01685-1.98846-3.65625-.97235-.658.40778-1.13989-.07275-.57617-.71625,1.88135-2.14777-.21265-3.41272-1.30933-4.2121-3.44092-2.50824-5.61548-6.03528-7.75244-9.45258-4.7417-7.582-8.052-15.92792-11.87109-23.997-.83569-1.76532-4.29907-7.74634-4.29907-7.74634a46.94121,46.94121,0,0,0-8.04565-.0354,129.99188,129.99188,0,0,1-13.7168,1.03613c-8.82031.39154-17.46948,2.57813-26.43311,2.03815-6.12109-.36871-12.24365-1.17151-18.44092-.71344-5.80151.42889-11.64111.54749-17.46387.70123-4.81665.12708-10.113-2.05249-14.59863,1.65-.13647.11237-.71069-.27417-1.06372-.46106C649.101,2.07353,644.19356,2.811,639.268,4.23851l-.02637-.049a5.04222,5.04222,0,0,1-2.53613.03589c-8.18726-1.55627-16.48584-.67462-24.731-1.00232-5.3374-.2121-10.65332.66632-16.043.33209-4.90894-.30444-10.08325-1.82068-14.7207,1.37476-.08447-.26367-.16333-.52338-.24048-.782-1.89087,1.27649-3.74658.08191-5.63623.01392-7.59033-.27319-15.19751-.52386-22.78491-.305-6.9458.20038-13.89307-.04535-20.8335.04633-5.04614.06665-10.12891-1.624-15.34131-1.71582-3.66968-.06464-7.32959.23462-10.96875.11951-7.97095-.25214-15.91211-1.12769-23.916-.40515a83.77159,83.77159,0,0,1-9.65918-.16272c-6.7583-.17712-13.45044-2.22314-20.27271-.71436a5.2574,5.2574,0,0,1-1.61816.0365c-12.963-1.26575-25.7937.9361-38.66431,1.69812-7.22668.42786-14.43884.231-21.61572.168C379.14327,2.83476,368.614,2.054,358.09786.96684,351.22322.25621,344.125.41649,337.12642.243c-1.27771-.03174-1.45874.518-1.62744,1.41248a10.32452,10.32452,0,0,0-6.84717-.72687,51.22348,51.22348,0,0,1-8.89648.52777c-2.929-.03113-5.79-.61115-8.70337-.57245-4.04224.05359-7.95215,1.59021-12.22327-.13177a19.52634,19.52634,0,0,0-5.98254-.73126A209.71635,209.71635,0,0,0,266.08553,1.193a53.234,53.234,0,0,1-6.109.3266c-5.08459.0141-10.08179-1.27484-15.1853-.85211-1.2063.09985-2.1604-.13849-2.62036,1.57275-.40442,1.50482-2.52173,1.11743-2.44043.09241.15173-1.91809-.65637-1.31879-1.58325-1.20264a19.12615,19.12615,0,0,1-2.89282.26312c-8.42529-.2395-16.851-.33173-25.26782-.97986-8.19409-.631-16.39209.40936-24.666-.1261a188.09569,188.09569,0,0,0-19.2417.18665c-8.04883.31555-16.07056,1.86877-24.17822.84961-1.57227-.19763-3.56738.83905-4.75574.1886C135.07552.3795,135.17769,4.561,133.528,2.69164c-1.30457-1.47839-3.01135-1.34357-4.48389-1.3175-7.82031.13849-15.63538.29449-23.455-.04834a36.49435,36.49435,0,0,0-6.12659.11255,59.48913,59.48913,0,0,1-7.86328.55762c-2.8429.4599-5.81372-.2724-8.75439-.21649-2.37512.04517-4.73975.123-7.10413.17517C73.51448,5.10783,72.19,8.57018,72.82271,12.72942c.17383,1.14307,1.24219,2.86163-1.01855,3.3905-.16821-.8078-.32959-1.60529-.49048-2.402-.90259.47144-.93164,1.43152-1.01819,2.208-.43225,3.87311-2.43835,7.29034-3.11316,11.08392,0,0,.08069-.0719.07666-.06091-2.00085,3.09564-1.94812,6.94873-3.78491,10.09332l-.05994-.06915c.97485,1.86938.74,3.25458-1.55286,3.75555-.86987.19006-1.09167.8465-1.2959,1.54706a7.38815,7.38815,0,0,0-4.21289,3.6095l.24023-.1438c-.067.04889-.134.09778-.20959.149a6.85927,6.85927,0,0,0-3.49768,3.67487c-.53552.4267-1.07178.84753-1.60815,1.26825l.14734-.07892a.36654.36654,0,0,0-.05176.03992Q49.4966,52.1,47.63374,53.38548s.032-.05273.03564-.046a22.79507,22.79507,0,0,1-3.09033,1.74286c-1.65186.63965-2.19751,2.85132-3.519,3.174-4.79,1.16949-8.63135,4.48254-13.29761,5.67944C11.903,68.29472,1.12776,70.02251,1.12776,70.02251a28.22311,28.22311,0,0,0-.52063,7.792c.65625,7.1933,1.2417,14.39392,1.29565,21.61877.08691,11.66577-.29431,23.34766.19727,34.99426.5144,12.1861-.31689,24.34106-.05981,36.51361.20068,9.49469.00586,18.97974.70911,28.48248a215.81465,215.81465,0,0,1,.12488,24.27826C2.56,231.77116,1.60787,239.8145.98531,247.87309.16353,258.50908.58907,269.1834.07015,279.827c-.3114,6.38507.498,12.72894.78516,19.06671.71277,15.7301.38586,31.4931,1.89612,47.20782,1.2384,12.88422,1.614,25.8465,3.14209,38.72284.77124,6.50128.91553,13.0755,1.41626,19.61108.26331,3.43976.11377,6.87274.14624,10.30591.08887,9.37189.65967,18.73889,1.01624,28.1087.00562.145.00769.28992.01135.43488.344,2.17444.49121,4.38574.65625,6.68713.197,2.75439.60742,5.47156,1.05054,8.1864.77722.0271,1.55469.06165,2.33105.11646a23.23429,23.23429,0,0,1,8.30054,1.08453,6.37181,6.37181,0,0,1,.905.40039,28.044,28.044,0,0,1,11.54492,4.57581c11.85059,8.11206,22.11377,17.75293,28.47571,30.92035,3.76587,7.79395,7.62891,15.546,11.14307,23.45459a5.4856,5.4856,0,0,1,.76538,1.0293c2.56946,4.45374,4.2522,9.25793,6.03882,14.033a5.94292,5.94292,0,0,0,.85852.40271c5.47644.10846,10.96436.24432,16.45288.33881.29126-.05652.58521-.10474.8833-.13782,26.70776-2.9613,53.333-1.93433,80.07837-.17938,13.8479.90869,27.69043,1.78265,41.56714,2.0932,13.37378.29932,26.65271,2.42072,40.03906,2.2533a8.32223,8.32223,0,0,1,2.11084.23328c19.43286-.67114,38.87231.297,58.31567-.50525,10.856-.44794,21.64868-.546,32.44788-.46936,1.34973-.07233,2.69885-.15613,4.04883-.22308,14.27771-.70856,28.51648.79852,42.77258.83569,7.50806.01965,15.03027-.51093,22.55469-.26849,12.28247.39575,24.57336,1.27875,36.84521,1.06683,13.36694-.23077,26.75171.30219,40.10742-.68817,9.71436-.72034,19.47412.64587,29.13892-.05267,14.481-1.04669,28.929-.08075,43.38843-.271,15.29736-.20136,30.60352.24933,45.90576.41278,3.56787.038,7.19922.51117,10.69116.0127,9.39111-1.3407,18.75537-.07935,28.10474.07507,8.72314.144,17.42725.34528,26.15332.06036,9.52686-.311,19.01709-1.26807,28.58789-.09753,12.34961-.00964,24.69873-.17181,37.04785-.242,2.874-.17242,5.73657-.54248,8.60718-.437,3.28369-.16528,6.57251-.28131,9.86328-.39453a38.19869,38.19869,0,0,1,.86426-6.59094,17.7605,17.7605,0,0,1,.60986-2.49768,43.65309,43.65309,0,0,1,1.199-5.68066,40.781,40.781,0,0,1,3.23438-7.05054,16.71134,16.71134,0,0,1,1.57129-4.10815,44.84822,44.84822,0,0,1,6.14111-8.30353,5.3456,5.3456,0,0,1,1.04541-.88068,104.51727,104.51727,0,0,1,13.4458-14.06708,98.10467,98.10467,0,0,1,31.22754-19.24866c.14453-.05438.28857-.11017.43286-.16492a4.9603,4.9603,0,0,1,1.41235-.54071c1.36328-.52686,2.228-1.30646,3.59546-1.82086a24.682,24.682,0,0,1,6.009-1.88373c.53882-.12762,3.12939-1.44324,3.67529-1.51776a38.6814,38.6814,0,0,0,.46582-4.07837c.74536-8.02991-.47925-15.96472-.6001-23.92859-.20068-13.23218-1.08154-26.48737-1.58691-39.7251-.89941-23.55072-.05811-47.12256,1.0957-70.65863.77588-15.8244.77832-31.67523,1.98584-47.48615.91235-11.94434.14746-23.94922.63672-35.90625C843.13228,231.53453,841.54439,221.72563,841.80513,211.83287Zm-3.21875-1.79041c-.09131.02325-.23364.095-.26562.06152a2.64144,2.64144,0,0,1-.24536-.30988Q838.331,209.91826,838.58638,210.04247ZM818.64815,72.31395c.58228-.10022.93213.0766.88135.60779a1.436,1.436,0,0,1-1.09009,1.37146c-.64331.14349-.98-.35925-1.00244-.90405C817.40279,72.553,818.19234,72.5388,818.64815,72.31395ZM799.73653,66.9099c.94019-.03857,1.04346.72711,1.29126,1.35083-.65137-.11774-1.416-.03973-1.624-.92908C799.37691,67.21672,799.61324,66.915,799.73653,66.9099ZM785.71187,54.76518l.21484.14124-.27759.23425c-.04028-.076-.11426-.15405-.10937-.22711C785.54317,54.86058,785.65083,54.81438,785.71187,54.76518ZM773.73921,41.01225q.09741.111.19434.222c-.05273.0835-.08838.20819-.16309.23883-.07422.0304-.187-.03369-.283-.05627ZM503.24263,3.10368c.1123-.499.71338-.39825,1.07764-.21606.39795.19922,1.1604-.01544,1.09546.70923-.01465.164-.73706.26465-1.052.36768C503.7585,3.84819,503.08077,3.82469,503.24263,3.10368ZM341.53877,1.79247c.0752.06647.14929.13177.22339.19708a4.91338,4.91338,0,0,1-.41553.36481c-.01367.00977-.13623-.12982-.208-.2Q341.33894,1.97343,341.53877,1.79247Zm-43.0918.381.25806.02631q-.06262.19785-.12549.39569c-.06824-.056-.17212-.10065-.19458-.1712C298.36275,2.35423,298.42281,2.2581,298.447,2.17345Zm-39.97949.70935a3.27057,3.27057,0,0,1,.82715.29181l-.05.24976a11.01321,11.01321,0,0,1-1.20593-.131,4.81807,4.81807,0,0,1-.83228-.34027A8.93463,8.93463,0,0,1,258.46748,2.8828ZM166.425,2.22551a2.1468,2.1468,0,0,1,.06763.24957,4.8848,4.8848,0,0,1-.488.11615,2.31366,2.31366,0,0,1-.06738-.25177C166.09908,2.29765,166.26045,2.25157,166.425,2.22551ZM76.71211,7.48723l.23584.08441c.00562.084.03638.193-.00488.245-.0415.05249-.15442.04858-.23608.0694Q76.70955,7.68663,76.71211,7.48723ZM71.738,16.42674q-.07526.41519-.15088.83032c-.02747-.07269-.09473-.15863-.07556-.21582C71.57979,16.83635,71.6606,16.63231,71.738,16.42674Zm-1.12671,5.57019a1.12539,1.12539,0,0,1,1.19861-.79559.72218.72218,0,0,1,.68848.86285c-.10986.66913-.49646,1.21686-1.23816,1.12286C70.64546,23.10912,70.43843,22.56346,70.61128,21.99693ZM8.12764,397.04192a.46125.46125,0,0,1-.13367-.44141.47537.47537,0,0,1,.452-.14337c.1062.05267.1167.298.1731.4704C8.45064,396.97392,8.25386,397.09392,8.12764,397.04192Zm7.40979,57.01721c-.063-.06757-.16724-.12817-.18005-.20422a3.001,3.001,0,0,1-.00366-.5083c.14014.121.3147.21271.38281.35522C15.77059,453.77293,15.60994,453.93706,15.53743,454.05913ZM838.86031,260.30632c-.88135,7.79321-.74927,15.68561-1.01074,23.51508-.23193,6.94922-.70166,13.928-.58545,20.90515.08252,4.95215-1.15918,9.85773-.63428,14.83606l.22461-.109-.12842.09814c-.50122,2.83563-.95215,5.65564-.25879,8.50806l.219-.11987-.156.139c-1.18091,2.17352-.88843,4.34845-.10693,6.52759l.01563.01538-.00659.01184c.00757.0202.01294.04041.02051.06067l-.031-.04108a5.32388,5.32388,0,0,0-.76514,2.75165c-.5708,13.61267-.71533,27.23688-1.09106,40.85077-.21729,7.87964.27124,15.7428-.12866,23.60657-.26392,5.18915.59424,10.332.50293,15.54-.15088,8.59546.39551,17.20087.45508,25.80341.02124,3.06177.63232,10.22717.98535,14.13092a3.83946,3.83946,0,0,1-2.37256,3.907,18.6196,18.6196,0,0,1-2.271.76825,91.57934,91.57934,0,0,0-28.85083,13.16833c-4.99438,3.41772-10.158,6.78125-14.39795,10.88452-8.08594,7.82513-16.14673,15.82568-21.06519,26.37689-2.32031,4.97748-3.05078,10.24158-4.5647,15.35889-1.262,4.26666-1.70044,5.543-4.63062,5.31763a19.09671,19.09671,0,0,1-3.77612.59039,8.59588,8.59588,0,0,1-1.21118.07153c-8.81689-.14258-17.59912.50452-26.40649.76715-9.04321.26971-18.08716-.2583-27.12988-.39532-18.30908-.27753-36.61987.00909-54.929.13165-18.033.12079-36.06787.05212-54.10107.05212-10.13184,0-20.42822-.95221-30.675-1.2179-.51489.059-1.0293.12677-1.54346.21082a8.17114,8.17114,0,0,1-3.16943-.2832c-2.95044-.00415-5.89282.079-8.82422.27191a7.96206,7.96206,0,0,1-2.68921.46277c-.844.00153-1.6875.01428-2.53149.01941-.69165.08252-1.38354.16-2.07349.259a10.74188,10.74188,0,0,1-4.20923-.19519c-16.34863.248-32.68555,1.00519-49.0354,1.23853-19.13257.27313-38.29468.18982-57.42773-.02222-19.43115-.21533-38.84155-1.47931-58.27368-1.25262-13.8988.16217-27.803.64716-41.68262.13269-.17187.07373-.345.168-.51709.24744l-.07129.06165c-.01221-.00494-.02417-.00812-.03638-.01294-.01758.00732-.03564.01727-.05322.024l.04663-.02649c-2.139-.84674-4.25281.03625-6.36951.06879q-21.37518.32785-42.74951.7c-5.82031.1037-11.64758.541-17.45642.35309-6.22119-.20129-12.41846-1.05493-18.637-1.4541-10.22559-.65649-20.44958-1.47644-30.70886-1.3031-12.09839.20435-24.09827-1.55322-36.16858-1.75787-6.99292-.11841-14.12195-.13666-20.92871-.90936-5.00366-.568-10.00586-.88123-15.0061-1.11206a2.838,2.838,0,0,0-.82959.10266,5.3883,5.3883,0,0,1-1.36426.16162c-6.5741-.03632-13.13379.35254-19.705.44415-4.67932.06512-9.35242.043-14.01868.27533a2.48466,2.48466,0,0,0-.42151.05811,41.47922,41.47922,0,0,1-15.6521.75128c-5.03516-.7912-6.288-1.94891-7.65735-6.86731-.822-2.95239-1.66919-5.99677-4.15552-8.14783q-.00476.29626-.00916.59259l-.01648-.56427a10.10945,10.10945,0,0,0-2.37512-6.83093c-3.01038-3.76349-4.28271-8.44147-6.23047-12.72412-5.95447-13.09235-13.91418-24.46008-25.692-32.99048-4.53223-3.28259-8.7915-6.90253-14.05017-9.09106-3.55322-1.47876-7.33508-1.76758-11.02014-2.46985-2.11975-.404-3.123-1.01892-3.0144-3.22479.62036-12.61432-.661-25.21216.06885-37.87207.45-7.80542-.71643-15.82574-2.02295-23.67145a34.91616,34.91616,0,0,1-.65308-6.90143c.32788-9.2229-1.59839-18.26929-1.95288-27.45062-.40674-10.52539-1.75891-21.01117-2.49194-31.52869a116.185,116.185,0,0,1,.03467-12.59253c.09009-2.298-1.25134-4.404-.67151-6.71613l-.09875-.01874a45.80114,45.80114,0,0,0,.15808-9.692,239.12731,239.12731,0,0,1-.3562-31.39795c.49377-8.15375.20789-16.322,1.38025-24.48358a179.4844,179.4844,0,0,0,1.06934-39.27429c-.9519-12.389-1.19946-24.81879-1.06567-37.17108.1283-11.866-.83179-23.70642-.21045-35.58527.52612-10.05774.099-20.16705.0354-30.25311-.03284-5.16956-.95911-10.29071-.70178-15.49731.13342-2.70288,1.25671-3.66028,3.74353-4.30518,12.361-3.20514,24.3623-7.38873,35.04993-14.59546,7.32727-4.94073,14.30676-10.36151,20.15515-17.04352,4.1394-4.72925,5.93237-10.601,7.56677-16.55377,1.70581-6.21307,3.74133-12.33508,5.58484-18.51123.43311-1.45142,1.2821-1.726,2.68787-1.569a135.56137,135.56137,0,0,0,25.54883.26233c5.65063-.43964,11.49963-1.00793,16.923-.61066,7.13269.52246,14.10754-.63593,21.18579-.21082,7.60608.45685,15.29272-.36145,22.941-.69507,4.26746-.18616,8.6554.72833,12.74536-1.29437a1.06621,1.06621,0,0,1,.91.00214c3.5415,2.587,7.67139,1.30225,11.42175,1.34009,8.83044.08917,17.6687,1.01483,26.5094.139,1.48279-.14691,2.78711.9967,4.37646.91931a2.94654,2.94654,0,0,0,1.80737-.45459,2.618,2.618,0,0,1,2.463-.69257c5.95374,1.64661,12.05115.022,18.06116.28815,4.61816.20447,9.21606-.20959,13.86548.22668,5.31885.499,10.76282-.136,16.13831-.49133,6.99451-.46234,13.986-.92181,20.962-.00214,2.70923.35712,5.44312-.178,8.02856.10535,10.19421,1.11743,20.23486-.86914,30.33008-.92822,11.30322-.0661,22.61182,1.029,33.92029,1.574,5.37781.25909,11.05249,1.56268,16.05811.29034,4.91565-1.24939,8.7832,1.77557,13.33826.98682,4.42969-.76715,9.01245-.62286,13.521-.9696,7.30835-.56213,14.63245-.88666,21.89844-2.02753,3.23853-.50848,6.592-.2359,9.88135-.48059,7.19946-.53564,14.33325.49438,21.48926.85712,9.43481.47821,18.81055,1.49316,28.31836.54773,2.91382-.28973,6.188.20886,9.29.46Q524.6993,6.535,546.56929,6.56633c5.1416.001,10.47388-.54395,15.41431.1347,10.80444,1.48419,21.449-1.08112,32.23975.04773,8.85229.92609,17.89966.12372,26.85425-.12854,3.62939-.10223,7.37354,1.03546,10.91187-.47394a2.4743,2.4743,0,0,1,1.60278-.0965c11.312,2.98285,22.73486-.43243,34.07349.35931,13.71.95746,27.46289.13586,41.15869,1.16736,5.14966.38782,10.08057-.81158,15.11279-1.31274,6.10132-.60773,12.18359-1.88013,18.36865-1.03766a50.89446,50.89446,0,0,0,7.64917-.05035,2.48984,2.48984,0,0,1,2.43677,1.48767c1.03809,2.36829,2.95239,6.76874,3.89429,9.1452,1.06372,2.68433,1.85693,5.55682,3.885,7.73389a3.65461,3.65461,0,0,1,1.052,2.46112c-.00391,2.13928,1.3374,3.71423,2.61963,5.31219l-.09937-.241.12085.15887c1.679,2.46844,2.11548,5.83148,5.37207,7.12225.30591.12122.40039.94775.47021,1.46344.27637,2.05042,1.82129,2.97778,3.29028,4.10254.94019.71985,4.44653-.28979,2.2876,2.92456-.06885.10242.26.59375.502.76489,5.24487,3.71161,8.957,9.16309,14.41528,12.65247a20.85085,20.85085,0,0,1,3.19336,3.1629l-.07837-.23926.10181.15027c1.729,1.00482,2.79761,2.63831,4.07373,4.06329q-.071-.11087-.14258-.22174l.11938.16217a2.693,2.693,0,0,0,3.58325.98163c.00562.01294.01.02673.01563.03949,3.61157,3.60779,8.09448,5.17444,12.96436,6.52844,5.06689,1.40887,10.22583,2.152,15.29517,3.387,3.07153.74841,3.10449,3.6488,3.67334,6.11743.8269,3.58789-.3147,7.29211.72461,10.8551l.01294.00684c-1.95093,1.89893.34985,4.01422-.24072,5.98315l.238-.10156-.14014.09564c-1.46338,2.00354-1.14722,4.33325-1.23022,6.55939a72.53036,72.53036,0,0,1-1.157,11.49365c-.345,1.73669-.87354,3.57538.41455,5.282.63184.83728-.1814,1.34326-.76367,1.81787l.04321-.02771c-.219,7.96112.1665,15.89795.72949,23.84.26465,3.73016.22778,7.498,1.14307,11.12744.1958.7757-1.25342,3.66376,1.99023,2.48364.49219-.17908,1.03784,1.66681.7019,2.11908-3.04272,4.09753-.90015,8.22235-.39062,12.40192,1.10352,9.05579,1.5603,18.16937,1.90356,27.28485a8.54689,8.54689,0,0,0,.87524,4.07037l.02026.00989c-1.36035,1.859-.63184,3.92145-.32935,5.83154,1.40088,8.85376,1.311,17.75452,1.15674,26.66876-.02954,1.7077.2146,3.42023.33252,5.13055l.05347-.046C837.69429,251.58775,839.35469,255.93321,838.86031,260.30632Zm-5.9873-114.1239-.23657.32843c-.05127-.06781-.1416-.13489-.14282-.20367-.00122-.0675.08789-.13672.13721-.2052Zm5.63444,44.287c-.07577-.00465-.17926.0204-.22249-.01954a3.17874,3.17874,0,0,1-.27052-.30311C838.18153,190.25237,838.34832,190.35833,838.50744,190.46941ZM758.85438,17.76607l-.17978.12468-.01687-.22542ZM497.9164,3.06576l.13317.17114-.2185.027ZM311.31077,2.48115l-.2068.14639-.01263-.254ZM176.3974,1.84633l.22828.04462q-.02036.11328-.041.22653c-.07567-.01456-.18583-.00515-.21728-.05042C176.33607,2.02215,176.38414,1.92217,176.3974,1.84633ZM110.88392,3.1959l-.16792.16048-.05706-.21886ZM60.04584,45.15117l-.12726.15528-.06975-.18572ZM837.81962,190.01932c.01609.00927.02946.02035.04539.02974l-.19868.07727Zm-4.15522-75.34357-.13373-.14553.01655-.03921Zm.16546-1.24249.07939-.0258-.00065.00158Zm-7.29-37.81589c.00593.01029.00755.02307.01252.03386-.04926-.0565-.10332-.10852-.1505-.16679A.67354.67354,0,0,1,826.53981,75.61736Zm.31219.1258-.12861.0975c-.00786-.00713-.01348-.01639-.02134-.02368ZM581.36185,5.0802s-.11721-.06619-.12713-.07283c-.00816-.02522-.01475-.04939-.02292-.07449ZM335.7278,1.54s-.156.13906-.16571.14575c-.01814-.01-.03664-.01637-.05462-.02622ZM225.58743,3.55785l.031.01192-.12089.06946ZM64.73124,497.27427l.01267-.01435C64.76342,497.292,64.7671,497.3059,64.73124,497.27427Zm-6.31277-11.1257.03431-.05463C58.46065,486.10734,58.41847,486.14857,58.41847,486.14857ZM10.01891,437.31095l-.13669-.13323c-.01041-.01461.01667-.05936.01667-.05936ZM62.52713,37.995l-.06639-.06836Zm.94448-.94933q-.47655.47962-.94448.94933l-.06305-.07124c.31894-.31882.63452-.63474.95012-.95068Zm767.43068,89.31417s-.03039.035-.0367.03137S830.90228,126.35985,830.90228,126.35985Z" style="fill:#caa765"/></svg>