<svg id="c0b232f1-962d-40ae-9cec-bb44f5593cfb" data-name="Layer 1" xmlns="http://www.w3.org/2000/svg" viewBox="0 0 1186.17755 1060.2021"><title>gold-border-menu</title><path d="M1184.64568,971.376a118.677,118.677,0,0,1-.92041-12.34821c-.34766-7.94023-2.28955-15.7264-1.81006-23.7957.32764-5.51023,1.04-11.02189.6333-16.60078-.38086-5.22263-.48633-10.4796-.623-15.72144-.11279-4.336,1.82227-9.104-1.46484-13.142-.09961-.12276.24365-.63983.40918-.95742,2.27148-4.34614,1.6167-8.764.34912-13.198l.04346-.02373a4.599,4.599,0,0,1-.03174-2.28313c1.38135-7.37023.59863-14.84086.88965-22.26333.188-4.80459-.5918-9.59028-.29541-14.44209.27051-4.41914-.59912-16.84116-.53906-18.54215.24268-6.83315.46533-13.68129.27051-20.51153-.17773-6.25262.04-12.50673-.041-18.75477-.05908-4.54265,1.44189-9.11813,1.52344-13.81044.05713-3.30357-.2085-6.59835-.10645-9.87447.22363-7.17559,1.00147-14.32422.35938-21.52962a76.33283,76.33283,0,0,1,.14453-8.69532c.15723-6.08407,1.97363-12.10839.63379-18.25009a4.80139,4.80139,0,0,1-.03223-1.45677c1.00537-10.43783.31592-21.2774.33252-31.74417q.05457-34.3975-.11279-68.79513-.15051-42.53095-.406-85.0614-.23437-40.2718-.54736-80.54311c-.15991-20.08679.45166-40.46037-.81421-60.47218-.7395-11.69419.38623-23.7219.69727-35.46951q.49145-18.56991.78711-37.14447.561-35.26885.415-70.54439-.00769-1.87971-.01758-3.75948c0-19.82237.17822-39.59374.23682-59.34218.03149-10.60335-.03247-21.21153-.50342-31.80586-.26746-6.02014-2.47986-70.15346.6974-70.26841-13.81445.49978-31.5995-3.23809-43.09412-11.4757-13.021-9.33131-18.63989-12.46117-24.25122-27.68816a95.29583,95.29583,0,0,1-4.97705-22.19517c-.2583-2.21-.35644-4.40359-.39551-6.60492-5.126.44054-10.25733.79116-15.40283.83-10.35889.07814-20.731-.26529-31.07227.17717-10.8208.46285-43.61279-.28562-54.42139-.05422-8.43066.18045-16.85205.005-25.29.63791a189.01394,189.01394,0,0,1-21.55713.112c-7.16455-.283-14.30664-1.14011-21.4624-1.70074-9.44336-.73985-18.92187-.357-28.37207-.82419-5.66943-.28047-673.575.439-679.20239.6974-13.967.64132-47.96338.347-61.91675,1.70632-11.44019,1.11464-22.94971,1.45262-34.38281,2.828-4.67908.5628-42.96924,2.492-58.592,3.41518-4.97705,21.64383-13.1123,43.53578-32.4812,55.1975l-.0332.02572c-7.62988,5.687-16.29053,8.17658-25.28845,9.20867A114.425,114.425,0,0,1,6.34049,76.488c1.261-.04957-2.4212,97.28916-2.8174,105.4615-.9759,20.12942-.84368,40.04243-.89548,60.22727q-.14648,57.0794-.219,114.15893-.15308,114.15909-.14185,228.31837c-.00806,42.77027-1.06689,85.58262-.33789,128.36442.20532,12.03329-.26782,24.08244.61157,36.10568.63965,8.745-.57324,17.53088.04712,26.23134.92969,13.03607.07227,26.04227.24121,39.05907.1792,13.77109-.22119,27.54992-.36572,41.32553-.03394,3.21173-.4541,6.48067-.01123,9.62424,1.19043,8.4542.07056,16.8841-.06641,25.30062-.12793,7.85266-.3064,15.68816-.05322,23.5438.30151,9.36483,1.29419,18.69032-.2439,28.11377-1.65063,10.1141.0127,20.31967.51343,30.47913.13574,2.75347.52026,5.49344.4209,8.24189.01917.38576.03418.772.05029,1.15808q.91974.3403,1.80835.75354a126.33509,126.33509,0,0,1,33.34961,10.62058,59.66856,59.66856,0,0,1,22.71265,18.84412,51.065,51.065,0,0,1,7.40149,14.28363c.34485,1.054.61719,2.11519.85706,3.18434A84.29569,84.29569,0,0,1,77.0927,1057.572c5.74548.07647,11.4502-.64708,17.17139-.73508,11.74878-.18045,23.51855-.97341,35.27271-1.42826,20.91113-.80932,41.84106-.05156,62.73926.98729,14.05054.69876,710.39746.71041,724.436,1.7976,10.606.82146,21.26514.13311,31.88232.57334,8.80615.36562,17.51563-1.06389,26.2998-.8289a112.54176,112.54176,0,0,0,11.49316-.3614c6.68262-.50641,13.48291.08824,20.0293-1.65011,4.53955-1.20542,30.21387-.873,34.81934-1.814,4.05127-.82766,8.53027-.5079,12.80566-.86955,8.23438-.69653,17.45947-1.04827,25.69531-.07808a86.0037,86.0037,0,0,0,8.58984.88963c8.03906.13237,16.08936.4494,24.11621-.11477.47314-16.74108,5.33008-32.94507,16.39014-46.35822,10.708-12.98643,30.1875-24.75486,47.51953-24.44062.46143-.21714.92383-.43168,1.3833-.6521,1.56738-.75224,6.87793-3.86991,6.87793-3.86991A42.85067,42.85067,0,0,0,1184.64568,971.376Z" style="fill:none;stroke:#caa765;stroke-linejoin:round;stroke-width:2.75px"/></svg>