<svg id="b21cb191-c992-400a-b7e9-882c6a5c1046" data-name="Layer 1" xmlns="http://www.w3.org/2000/svg" viewBox="0 0 244.59 168.44"><defs><style>.\36 51e73e5-e2b5-4de6-97bf-36790c288247{fill:#fac5c0;}.\30 77d76d6-41fc-45c7-85ca-351783dbc727{fill:#fff;}</style></defs><title>logo</title><path class="651e73e5-e2b5-4de6-97bf-36790c288247" d="M101.81,124.68a11.43,11.43,0,0,0,5.77,2c1.72,0,3-.72,3-2.54,0-2-1.38-2.66-4-3.39s-6.08-1.88-6.08-6.55c0-4,3.07-6.87,7.59-6.87,5.08,0,6.87,2.88,7.65,5.55l-4.45,1.29c-.44-1.54-1.41-2.92-3.26-2.92-1.47,0-2.57.72-2.57,2.35,0,1.85,1.63,2.48,3.95,3.13,3.67,1,6.15,2.92,6.15,6.8,0,4.64-3.48,7.24-8,7.24a14.05,14.05,0,0,1-7.24-1.91Z"/><path class="651e73e5-e2b5-4de6-97bf-36790c288247" d="M129.22,130.35l6.62-22.54h6.05l6.87,22.54h-4.92l-1.63-5.11h-6.65l-1.47,5.11Zm9.53-18.43c-.19,1.22-.5,2.79-.85,4.11l-1.41,5.55h4.7l-1.44-5.52c-.31-1.16-.66-2.88-.91-4.14Z"/><path class="651e73e5-e2b5-4de6-97bf-36790c288247" d="M180.85,107.81v22.54h-4.26l-5.8-10.28c-.85-1.51-1.69-3.14-2.45-4.83a0,0,0,0,0,0,0c.13,1.63.22,3.39.22,5.14v9.94h-4.8V107.81h4.55l5.61,10.44c.82,1.5,1.72,3.2,2.38,4.64,0,0,0,0,.06,0-.16-1.63-.28-3.35-.28-4.92V107.81Z"/><path class="651e73e5-e2b5-4de6-97bf-36790c288247" d="M196,107.81h17.56v3.76h-6.33v18.78h-4.89V111.57H196Z"/><path class="651e73e5-e2b5-4de6-97bf-36790c288247" d="M223.58,130.35l6.62-22.54h6.05l6.87,22.54h-4.92l-1.63-5.11h-6.65l-1.47,5.11Zm9.53-18.43c-.19,1.22-.5,2.79-.85,4.11l-1.41,5.55h4.7l-1.44-5.52c-.31-1.16-.66-2.88-.91-4.14Z"/><path class="651e73e5-e2b5-4de6-97bf-36790c288247" d="M99.68,168l6.62-22.54h6.05L119.21,168h-4.92l-1.63-5.11H106L104.54,168Zm9.53-18.43c-.19,1.22-.5,2.79-.85,4.11L107,159.19h4.7l-1.44-5.52c-.31-1.16-.66-2.88-.91-4.14Z"/><path class="651e73e5-e2b5-4de6-97bf-36790c288247" d="M151.32,145.43V168h-4.26l-5.8-10.28c-.85-1.51-1.69-3.14-2.45-4.83a0,0,0,0,0,0,0c.13,1.63.22,3.39.22,5.14V168h-4.8V145.43h4.55l5.61,10.44c.82,1.5,1.72,3.2,2.38,4.64,0,0,0,0,.06,0-.16-1.63-.28-3.35-.28-4.92V145.43Z"/><path class="651e73e5-e2b5-4de6-97bf-36790c288247" d="M166.3,168l6.62-22.54H179L185.83,168h-4.92l-1.63-5.11h-6.65L171.16,168Zm9.53-18.43c-.19,1.22-.5,2.79-.85,4.11l-1.41,5.55h4.7l-1.44-5.52c-.31-1.16-.66-2.88-.91-4.14Z"/><path class="077d76d6-41fc-45c7-85ca-351783dbc727" d="M240,30.62A75.86,75.86,0,0,1,237,39.57c-2.56,6.3-4.55,7.67-5.11,7.67h0a1.28,1.28,0,0,1-1-.48c-1.3-1.49-1.52-5.67-1.24-8.21l.43-4.92.45-3.11c1.68-10.17.84-16.55-2.5-19-1.06-.76-3.35-1.78-6.72,0-3.91,2.07-6.33,9.53-7.23,12.85-.54-2.41-1.69-4.58-3.91-5.26-3.25-1-6.58,1.56-10.62,8.25A8.18,8.18,0,0,0,196,25.84c-3.83-.67-9.52,1.31-13,9.09a57.21,57.21,0,0,0-4.73,18.59L176.07,61l0,.11c-2.13,8.56-6,16.61-8,16.61h0a1.28,1.28,0,0,1-1-.48c-1.3-1.49-1.52-5.67-1.24-8.22l2.38-27.85-4.74-.41-1.09,12.81h0l-4.19,16.27c-2.13,8.56-6,16.61-8,16.61h0a1.28,1.28,0,0,1-1-.48c-1.3-1.49-1.52-5.67-1.24-8.22l4-46.75L205.58,4.26,203.47,0,152.22,25.44l.45-5.24-4.74-.41-.69,8.11L80.12,61.22l2.11,4.26,64.53-32-3.65,42.69h0c-2.13,8.56-6,16.61-8,16.61h0a1.28,1.28,0,0,1-1-.48c-1.3-1.49-1.52-5.67-1.24-8.22l1.14-13.31,0-.23c0-.33.06-.66.07-1l1.14-13.32-4.74-.41-.5,5.91a9,9,0,0,0-2.32-1c-4.47-1.25-10.42.75-13.63,8a62.36,62.36,0,0,0-4.68,18.52h0c-3.38,11.35-11.48,29.52-18.79,30A2.6,2.6,0,0,1,88,115.85c-1.48-2.19-2-6.42-1.58-11.44l0-.13h0a62.53,62.53,0,0,1,4.91-19.41c0-.05,2.24-5.21,5.64-5.32h.16c.77.56.85,4.77-.14,8.88l4.62,1.12c.38-1.55,2.11-9.44-.75-13a4.86,4.86,0,0,0-4-1.8C90.25,75,87,82.75,86.93,83a63.3,63.3,0,0,0-5.25,20.59l-1,3.73c-2.13,8.56-6,16.61-8,16.61h0a1.28,1.28,0,0,1-1-.48c-1.3-1.49-1.52-5.67-1.24-8.22l1.14-13.33,0-.21c0-.33.06-.65.07-1L72.74,87.4,68,87l-.5,5.91a9,9,0,0,0-2.32-1c-4.48-1.25-10.42.76-13.63,8-5,11.33-7,28.81-2,35.77a7.26,7.26,0,0,0,6,3.18,7.94,7.94,0,0,0,.8,0l.39-.07c4.17-1.15,7.55-5.72,10.19-13.84A7.75,7.75,0,0,0,68,126.58a6,6,0,0,0,4.48,2.11h.15c3.53,0,6.55-3.39,9.5-10.63.26-.63.5-1.26.73-1.88A10.78,10.78,0,0,0,84,118.51a7.33,7.33,0,0,0,6.32,3.42h.29c8.42-.5,15.17-12.8,19.18-22.38a14.1,14.1,0,0,0,2.12,4.94,7.26,7.26,0,0,0,6,3.18,8,8,0,0,0,.8,0l.39-.07c4.17-1.15,7.55-5.72,10.19-13.84a7.75,7.75,0,0,0,1.09,1.67,6,6,0,0,0,4.49,2.11H135c3.44,0,6.4-3.23,9.28-10.1a7.77,7.77,0,0,0,1.1,1.68,6,6,0,0,0,4.49,2.11H150c3.53,0,6.55-3.39,9.5-10.63.69-1.7,1.28-3.39,1.76-4.86a10.25,10.25,0,0,0,2.08,4.65,6,6,0,0,0,4.49,2.11H168c3.53,0,6.55-3.39,9.5-10.63.82-2,1.5-4,2-5.66a11.32,11.32,0,0,0,1.42,2.8,7.41,7.41,0,0,0,6.14,3.21q.38,0,.77,0a10.18,10.18,0,0,0,7.21-3.68c7.34-8.17,8.48-27.72,8.06-33.92a11.18,11.18,0,0,0-.56-2.85c.8-1.43,1.62-2.85,2.49-4.24a13.42,13.42,0,0,1,2.32-3.08,2,2,0,0,1,1.52-.59,2.08,2.08,0,0,1,1.41,1c1.52,2.3,1.6,5.06,1.27,7.72-.77,6.14-4.32,27.14-4.4,28.15l2.37.18,2.33.44s2.92-21.63,5.6-31.39a53.72,53.72,0,0,1,2-7.05,25.1,25.1,0,0,1,3-6.58,3.24,3.24,0,0,1,1-.92,1.66,1.66,0,0,1,1.1-.23,1.74,1.74,0,0,1,1.13.86,7.43,7.43,0,0,1,.78,2.83,21.82,21.82,0,0,1,.16,2.91,61.65,61.65,0,0,1-.79,8.08L225.37,33l-.45,5.07c-.09.82-.79,8.16,2.39,11.8A6,6,0,0,0,231.8,52h.13c6.87,0,11.13-14.12,12.65-20.22ZM66.82,100.77l-.06.65-.07.54c-3.28,26.48-8.67,31.34-11,32.15a2.47,2.47,0,0,1-2.27-1.21c-3.51-4.84-2.28-20.23,2.5-31.06,1.83-4.14,4.52-5.56,6.71-5.56a4.82,4.82,0,0,1,1.29.17A4,4,0,0,1,66.82,100.77Zm62.39-31.22-.06.69-.06.51c-3.28,26.48-8.67,31.34-11,32.15a2.48,2.48,0,0,1-2.27-1.21c-3.51-4.84-2.28-20.23,2.5-31.06,1.83-4.14,4.52-5.56,6.71-5.56a4.78,4.78,0,0,1,1.29.17A4,4,0,0,1,129.22,69.55Zm62.31-4.28a5.54,5.54,0,0,1-3.93,2.11h-.14a2.65,2.65,0,0,1-2.66-1.23c-3.36-4.64-2.13-18.61,2.58-29.31,2.1-4.75,5-6.39,7.12-6.39a3.91,3.91,0,0,1,.66.06c1.85.33,3.05,1.94,3.21,4.32C198.87,42.24,197,59.21,191.52,65.26Z"/><rect class="077d76d6-41fc-45c7-85ca-351783dbc727" x="163.45" y="31.11" width="5.3" height="5.3" rx="0.88" ry="0.88" transform="translate(24.78 127.34) rotate(-45)"/><path class="077d76d6-41fc-45c7-85ca-351783dbc727" d="M67.07,11.88c-.34.43-8.47,10.84-17.46,35.36C42,68,32.39,103.12,28.28,155c-4-12.28-9.76-28.3-15-42.92C10,102.77,6.87,94,4.49,87.1L0,88.65c2.38,6.92,5.52,15.7,8.83,25,7.19,20.15,15.34,43,18.66,54.79l4.66-.51C38.65,56.84,70.48,15.24,70.8,14.83Z"/></svg>