<svg id="a97196ef-6061-45e5-8e6e-11f6924bcffa" data-name="Layer 1" xmlns="http://www.w3.org/2000/svg" viewBox="0 0 268.38 14.72"><defs><style>.\38 dcc5df5-0d65-4ede-b492-3a53a6d8834d{fill:#1b3d34;}.\30 fa2d4b6-e6d4-4408-82bc-f74e535175fd{fill:#fcd2ce;}</style></defs><title>logo-horizontal</title><path class="8dcc5df5-0d65-4ede-b492-3a53a6d8834d" d="M3.16.17l2.56,9.4L8.26.17h3.18L7.07,14.5H4.37L0,.17Z"/><path class="8dcc5df5-0d65-4ede-b492-3a53a6d8834d" d="M18.57,11.11,17.3,14.5H14.06L19.38.17h3.31L28,14.5h-3.2l-1.27-3.39Zm4-2.64L21,3.47l-1.46,5Z"/><path class="8dcc5df5-0d65-4ede-b492-3a53a6d8834d" d="M44.84,11.56a7.12,7.12,0,0,1-6,3.14,7.2,7.2,0,0,1-7.2-7.34A7.26,7.26,0,0,1,44.78,3L42.31,4.74a4.2,4.2,0,0,0-3.49-1.87,4.25,4.25,0,0,0-4.14,4.49,4.24,4.24,0,0,0,4.14,4.47,4.31,4.31,0,0,0,3.58-2Z"/><path class="8dcc5df5-0d65-4ede-b492-3a53a6d8834d" d="M52.81,11.11,51.54,14.5H48.3L53.62.17h3.31l5.3,14.33H59l-1.27-3.39Zm4-2.64-1.52-5-1.46,5Z"/><path class="8dcc5df5-0d65-4ede-b492-3a53a6d8834d" d="M64.69.17H75.5V2.91H71.63V14.5H68.56V2.91H64.69Z"/><path class="8dcc5df5-0d65-4ede-b492-3a53a6d8834d" d="M83.93.17V14.5h-3V.17Z"/><path class="8dcc5df5-0d65-4ede-b492-3a53a6d8834d" d="M96.84,0a7.28,7.28,0,0,1,7.28,7.36,7.27,7.27,0,1,1-14.54,0A7.27,7.27,0,0,1,96.84,0Zm0,11.69a4.27,4.27,0,0,0,4.24-4.33,4.23,4.23,0,1,0-8.46,0A4.25,4.25,0,0,0,96.84,11.69Z"/><path class="8dcc5df5-0d65-4ede-b492-3a53a6d8834d" d="M120.53,14.5h-2.72l-5-8.67V14.5h-3V.17h2.79l4.91,8.57V.17h3.06Z"/><path class="0fa2d4b6-e6d4-4408-82bc-f74e535175fd" d="M137.51,10.29A1.9,1.9,0,0,0,139.65,12c1.23,0,2.08-.58,2.1-1.52,0-.64-.27-1.21-1.73-1.62L138.3,8.4c-3.16-1-3.7-2.83-3.7-4.12,0-2.56,2.18-4.28,4.93-4.28s4.85,1.64,4.85,4.39h-3c0-1-.64-1.62-1.85-1.62s-1.85.58-1.85,1.44c0,.37.15,1.06,1.54,1.46l1.71.54c3.47,1,4,3,3.93,4.33,0,2.85-2.62,4.2-5.16,4.2-3.12,0-5.2-1.85-5.2-4.43Z"/><path class="0fa2d4b6-e6d4-4408-82bc-f74e535175fd" d="M153.15,11.11l-1.27,3.39h-3.25L154,.17h3.31l5.3,14.33h-3.2l-1.27-3.39Zm4-2.64-1.52-5-1.46,5Z"/><path class="0fa2d4b6-e6d4-4408-82bc-f74e535175fd" d="M178,14.5H175.3l-5-8.67V14.5h-3V.17h2.79L175,8.74V.17H178Z"/><path class="0fa2d4b6-e6d4-4408-82bc-f74e535175fd" d="M183.41.17h10.81V2.91h-3.87V14.5h-3.08V2.91h-3.87Z"/><path class="0fa2d4b6-e6d4-4408-82bc-f74e535175fd" d="M201.17,11.11l-1.27,3.39h-3.24L202,.17h3.31l5.3,14.33h-3.2l-1.27-3.39Zm4-2.64-1.52-5-1.46,5Z"/><path class="0fa2d4b6-e6d4-4408-82bc-f74e535175fd" d="M224.89,11.11l-1.27,3.39h-3.24L225.7.17H229l5.3,14.33h-3.2l-1.27-3.39Zm4-2.64-1.52-5-1.46,5Z"/><path class="0fa2d4b6-e6d4-4408-82bc-f74e535175fd" d="M249.76,14.5H247l-5-8.67V14.5h-3V.17h2.79l4.91,8.57V.17h3.06Z"/><path class="0fa2d4b6-e6d4-4408-82bc-f74e535175fd" d="M259,11.11l-1.27,3.39h-3.25L259.77.17h3.31l5.3,14.33h-3.2l-1.27-3.39Zm4-2.64-1.52-5-1.46,5Z"/></svg>