<svg id="ea6bf69e-0e2f-4b52-9e3b-8544f3b12ea9" data-name="Layer 1" xmlns="http://www.w3.org/2000/svg" viewBox="0 0 138 138"><title>logo-footer</title><rect x="93.55" y="49.28" width="2.73" height="2.73" rx="0.46" ry="0.46" transform="translate(-8.01 81.95) rotate(-45)" style="fill:#1b3d34"/><path d="M69,0a69,69,0,1,0,69,69A69,69,0,0,0,69,0Zm0,135.9a66.65,66.65,0,0,1-43.09-15.75v-.35c3.35-57.26,19.75-78.7,19.92-78.91l-1.92-1.52c-.18.22-4.37,5.59-9,18.22C31,68.31,26,86.39,23.91,113.12c-2.08-6.33-5-14.59-7.72-22.12-1.71-4.78-3.32-9.3-4.54-12.86l-2.32.8c1.23,3.57,2.84,8.09,4.55,12.88,3.2,9,6.76,18.94,8.78,25.43a66.94,66.94,0,1,1,110.3-68,39.13,39.13,0,0,1-1.46,4.4c-1.32,3.25-2.34,4-2.63,4h0a.66.66,0,0,1-.53-.25c-.67-.77-.78-2.92-.64-4.23l.22-2.54.23-1.6c.87-5.24.43-8.53-1.29-9.77a3.12,3.12,0,0,0-3.46,0c-2,1.07-3.26,4.91-3.73,6.62a3.34,3.34,0,0,0-2-2.71c-1.68-.52-3.39.81-5.47,4.25a4.21,4.21,0,0,0-1.84-.8c-2-.34-4.91.67-6.68,4.69a29.49,29.49,0,0,0-2.44,9.58l-1.15,3.84v.05C99,69.19,97,73.34,95.95,73.34h0a.66.66,0,0,1-.53-.25c-.67-.77-.78-2.92-.64-4.23L96,54.51l-2.44-.21L93,60.9h0l-2.16,8.39c-1.1,4.41-3.11,8.56-4.14,8.56h0a.66.66,0,0,1-.53-.25c-.67-.77-.78-2.92-.64-4.23l2.06-24.1L115.35,35.5l-1.09-2.19-26.5,13,.23-2.7-2.44-.21-.36,4.18L50.6,64.8,51.69,67,85,50.48l-1.88,22h0C81.95,76.89,79.94,81,78.91,81h0a.66.66,0,0,1-.53-.25c-.67-.77-.78-2.92-.64-4.23l.59-6.86V69L79,62.21,76.51,62l-.26,3a4.66,4.66,0,0,0-1.2-.52c-2.31-.64-5.37.39-7,4.15a32.14,32.14,0,0,0-2.41,9.55h0C63.9,84,59.72,93.39,56,93.62A1.34,1.34,0,0,1,54.64,93c-.76-1.13-1-3.31-.82-5.9V87h0a32.23,32.23,0,0,1,2.53-10s1.16-2.68,2.91-2.74h.08c.4.29.44,2.46-.07,4.58l2.38.58c.19-.8,1.09-4.86-.39-6.68a2.5,2.5,0,0,0-2.08-.93c-3.38.11-5,4.1-5.09,4.23A32.63,32.63,0,0,0,51.4,86.64l-.52,1.92c-1.1,4.41-3.11,8.56-4.14,8.56h0a.66.66,0,0,1-.53-.25c-.67-.77-.78-2.92-.64-4.23l.59-6.87v-.61l.59-6.87-2.44-.21-.26,3a4.67,4.67,0,0,0-1.2-.52c-2.31-.64-5.37.39-7,4.15-2.57,5.84-3.63,14.85-1,18.43a3.74,3.74,0,0,0,3.09,1.64h.61c2.15-.59,3.89-2.95,5.25-7.13a4,4,0,0,0,.56.86,3.1,3.1,0,0,0,2.31,1.09h.08c1.82,0,3.38-1.74,4.9-5.48.13-.33.26-.65.38-1a5.56,5.56,0,0,0,.59,1.2,3.78,3.78,0,0,0,3.26,1.76H56c4.34-.26,7.82-6.6,9.89-11.54A7.27,7.27,0,0,0,67,87.1a3.74,3.74,0,0,0,3.09,1.64h.61c2.15-.59,3.89-2.95,5.25-7.13a4,4,0,0,0,.56.86,3.11,3.11,0,0,0,2.31,1.09h.08c1.77,0,3.3-1.66,4.78-5.21a4,4,0,0,0,.56.87,3.11,3.11,0,0,0,2.31,1.09h.08c1.82,0,3.38-1.74,4.9-5.48.36-.88.66-1.75.91-2.51a5.28,5.28,0,0,0,1.07,2.4,3.1,3.1,0,0,0,2.31,1.09h.08c1.82,0,3.38-1.74,4.9-5.48a24.18,24.18,0,0,0,1-2.92,5.83,5.83,0,0,0,.73,1.44,3.82,3.82,0,0,0,3.16,1.66h.39a5.25,5.25,0,0,0,3.71-1.9c3.78-4.21,4.37-14.29,4.15-17.48a5.76,5.76,0,0,0-.29-1.47c.41-.74.83-1.47,1.28-2.18a6.91,6.91,0,0,1,1.19-1.59,1,1,0,0,1,.79-.3,1.07,1.07,0,0,1,.73.52,5.76,5.76,0,0,1,.65,4c-.4,3.16-2.23,14-2.27,14.51l1.22.09,1.2.23s1.5-11.15,2.89-16.18a27.69,27.69,0,0,1,1-3.64,12.94,12.94,0,0,1,1.67-3.5,1.67,1.67,0,0,1,.51-.47A.86.86,0,0,1,125,41a.9.9,0,0,1,.58.44,3.83,3.83,0,0,1,.4,1.46,11.25,11.25,0,0,1,.08,1.5,31.78,31.78,0,0,1-.41,4.17l-.24,1.66-.23,2.61c0,.42-.41,4.2,1.23,6.08A3.1,3.1,0,0,0,128.78,60h.07c2.38,0,4.15-3.27,5.29-6.38A67,67,0,0,1,69,135.9Zm39.07-69A2.86,2.86,0,0,1,106,68h-.07a1.36,1.36,0,0,1-1.37-.63c-1.73-2.39-1.1-9.59,1.33-15.11C107,49.81,108.47,49,109.56,49h.34a2.17,2.17,0,0,1,1.66,2.23c.25,3.8-.74,12.56-3.56,15.68ZM75.9,69.09v.63c-1.69,13.65-4.47,16.15-5.69,16.57A1.28,1.28,0,0,1,69,85.66c-1.81-2.5-1.17-10.42,1.29-16,.94-2.13,2.33-2.86,3.46-2.86a2.47,2.47,0,0,1,.67.09A2,2,0,0,1,75.9,69.09ZM43.75,85.18v.62C42,99.45,39.21,102,38,102.37a1.28,1.28,0,0,1-1.17-.62c-1.81-2.5-1.17-10.42,1.29-16,.94-2.13,2.33-2.86,3.46-2.86a2.48,2.48,0,0,1,.67.09A2,2,0,0,1,43.75,85.18Z" style="fill:#163323"/><path d="M22.51,45.48c-1.25-.56-2.21,0-3.06,1-.54.65-1,1.09-1.57.82a.79.79,0,0,1-.39-1.16,1.21,1.21,0,0,1,1.4-.63l.22-1.61a2.51,2.51,0,0,0-2.88,1.67,2.43,2.43,0,0,0,.9,3.32l.23.11c1.5.67,2.34-.24,3-1s1-1.08,1.66-.81.63.79.38,1.34a4,4,0,0,1-1.47,1.57L22,51.15a4.94,4.94,0,0,0,1.65-2.06,2.54,2.54,0,0,0-.89-3.48Z" style="fill:#bc913c"/><path d="M21.79,36l5,6.55,1-1.38-1.15-1.48L28,37.8l1.79.59,1-1.4L23,34.31Zm1.79,0c.41.19,1,.45,1.37.6l1.87.73-1,1.34-1.29-1.55a13.2,13.2,0,0,0-1-1.09Z" style="fill:#bc913c"/><path d="M32.26,24.65l2.34,2.69a15.67,15.67,0,0,0,1.21,1.24h0c-.51-.23-1.14-.47-1.7-.68l-3.9-1.48-1.21,1,5.2,6,1.27-1.11-2.29-2.64c-.4-.47-.83-.91-1.24-1.32h0c.59.28,1.19.51,1.76.72l3.91,1.39,1.13-1-5.2-6Z" style="fill:#bc913c"/><polygon points="43.14 19.03 45.1 17.98 44.48 16.82 39.03 19.73 39.66 20.9 41.62 19.85 44.74 25.67 46.26 24.86 43.14 19.03" style="fill:#bc913c"/><path d="M52.75,22.06V20.19L55,19.51l1,1.55,1.66-.51L53,13.67l-2,.62.09,8.26Zm-.29-6.69c.21.4.51.94.73,1.3l1,1.71-1.58.48-.1-2a12,12,0,0,0-.14-1.47Z" style="fill:#bc913c"/><path d="M70.61,17.58l2.33.13.47,1.83,1.73.1-2-8.05L71,11.46l-2.76,7.79,1.71.09Zm1-3.19A14.51,14.51,0,0,0,72,13h0c.06.45.15,1.06.24,1.47l.4,2L71,16.31Z" style="fill:#bc913c"/><path d="M82.52,17.62c.17-.59.31-1.19.43-1.76h0c.09.65.21,1.28.35,1.87l.94,4,1.44.42,2.22-7.61-1.6-.44-1,3.42c-.15.53-.28,1.12-.39,1.69h0c-.08-.55-.22-1.21-.35-1.8l-.87-4.08-1.54-.45L79.92,20.5l1.62.47Z" style="fill:#bc913c"/><path d="M93,23.55l2,1.14-.38,1.85,1.51.85L98,19.29l-1.86-1L90.2,24l1.49.84Zm2.31-2.42c.33-.34.7-.77,1-1.11h0c-.14.43-.33,1-.43,1.43l-.51,1.94-1.44-.81Z" style="fill:#bc913c"/><path d="M47.93,115.38c-2.24-1-3.75.54-4.64,2.48-.81,1.76-1,4,1.34,5.09a5.16,5.16,0,0,0,2.46.49l.32-1.4a3.74,3.74,0,0,1-1.92-.28c-1.19-.55-1.24-1.65-.48-3.31.47-1,1.27-2.35,2.36-1.85.6.28.69.84.52,1.6l1.64.32a2.49,2.49,0,0,0-1.6-3.14Z" style="fill:#bc913c"/><path d="M56.88,118.66l-4,7.24,1.67.37.89-1.64,2.28.5.17,1.88,1.69.37L59,119.11Zm-.81,4.78.9-1.8c.22-.43.44-.94.6-1.35h0v1.49l.08,2Z" style="fill:#bc913c"/><polygon points="68.1 120.07 66.38 120.06 66.33 127.99 71.29 128.02 71.29 126.69 68.06 126.67 68.1 120.07" style="fill:#bc913c"/><rect x="77.26" y="119.31" width="1.72" height="7.93" transform="translate(-19.33 14.64) rotate(-9.53)" style="fill:#bc913c"/><polygon points="89.4 119.38 86.74 120.33 86.1 118.54 89.28 117.41 88.83 116.15 84.03 117.86 86.69 125.33 88.32 124.76 87.18 121.58 89.84 120.63 89.4 119.38" style="fill:#bc913c"/><path d="M95.85,112.25c-1.73,1.08-2.11,3-.74,5.19,1.71,2.76,3.43,2.85,5,1.89s2.27-2.64.56-5.4C99.28,111.71,97.67,111.11,95.85,112.25Zm3.54,5.9c-.77.48-1.64.11-2.74-1.66s-.79-2.6-.1-3,1.51-.29,2.57,1.43C100.37,116.9,100.1,117.71,99.39,118.15Z" style="fill:#bc913c"/><path d="M108.46,104.85c-1.07-1.08-2.33-.75-3.54.44l-2,1.94,5.56,5.65,1.22-1.2-2.22-2.26.74-.73L111.4,110l1.29-1.27-3.61-1.42A2.36,2.36,0,0,0,108.46,104.85Zm-1.12,2.93-.74.73L105,106.94l.68-.67c.57-.56,1-.69,1.63-.07a1,1,0,0,1,.08,1.48Z" style="fill:#bc913c"/><path d="M112.73,95.39l3,1.92a16.86,16.86,0,0,0,1.51.85h0c-.55-.08-1.23-.13-1.83-.17l-4.16-.32L110.39,99l6.68,4.28.91-1.42L115,100c-.52-.33-1.06-.64-1.56-.91h0a18.33,18.33,0,0,0,1.89.19l4.15.23.81-1.26L113.64,94Z" style="fill:#bc913c"/><rect x="119.29" y="85.36" width="1.72" height="7.93" transform="translate(-7.31 167.87) rotate(-68.27)" style="fill:#bc913c"/><path d="M118.91,79.95l7.33,3.82.33-1.68-1.66-.86.45-2.29,1.87-.22.33-1.7-8.25.84Zm1.62-.76H122l2-.12-.32,1.62-1.82-.86c-.43-.21-1-.42-1.36-.57Z" style="fill:#bc913c"/></svg>