<svg id="Layer_1" data-name="Layer 1" xmlns="http://www.w3.org/2000/svg" xmlns:xlink="http://www.w3.org/1999/xlink" viewBox="0 0 152.55 117.2"><defs><clipPath id="clip-path" transform="translate(0)"><path d="M42.77,9.13c-.21.26-5.18,6.63-10.67,21.61C27.44,43.46,21.57,64.87,19.05,96.61c-2.47-7.51-6-17.3-9.16-26.24-2-5.68-3.94-11-5.39-15.25l-2.74,1c1.46,4.23,3.37,9.6,5.4,15.28,4.4,12.32,9.38,26.27,11.41,33.52l2.85-.31c4-68,23.44-93.4,23.63-93.61Z" style="fill:none"/></clipPath><clipPath id="clip-path-2" transform="translate(0)"><path d="M52.44,72.87c-.14.38-.29.76-.45,1.15-1.8,4.43-3.65,6.5-5.81,6.5h-.13a3.68,3.68,0,0,1-2.74-1.29,4.74,4.74,0,0,1-.66-1c-1.6,5-3.6,7.77-6.19,8.46h-.73a4.44,4.44,0,0,1-3.68-1.82c-3.08-4.3-1.83-15,1.22-21.91,2-4.45,5.6-5.68,8.33-4.92a5.53,5.53,0,0,1,1.42.62L43.34,55l2.89.25-.7,8.15v.72l-.76,8.16c-.17,1.56,0,4.11.76,5a.79.79,0,0,0,.63.29h0c1.23,0,3.61-4.92,4.91-10.16l.61-2.28Zm-9.81-9.42a2.43,2.43,0,0,0-1.79-2.58,3,3,0,0,0-.79-.11c-1.34,0-3,.87-4.1,3.4-2.92,6.62-3.67,16-1.53,19a1.51,1.51,0,0,0,1.35.71c1.44-.5,4.74-3.47,6.75-19.66v-.33Z" style="fill:none"/></clipPath><clipPath id="clip-path-3" transform="translate(0)"><path d="M68.91,62.73c-2.45,5.86-6.58,13.38-11.73,13.68H57a4.48,4.48,0,0,1-3.86-2.09c-.92-1.37-1-3.26-1.24-4.86a30.8,30.8,0,0,1-.2-4.26,24,24,0,0,1,.24-2.9,34.37,34.37,0,0,1,1.83-6.85q.53-1.43,1.15-2.83c.06-.16,2-4.89,6-5a3,3,0,0,1,2.47,1.1c1.75,2.15.69,7,.46,7.92L61.05,56c.61-2.51.56-5.09.09-5.43h-.09c-2.08.07-3.44,3.22-3.45,3.25a37.77,37.77,0,0,0-3,11.87v.08c-.23,3.07.06,5.66,1,7a1.59,1.59,0,0,0,1.5.81c4.47-.27,9.42-11.37,11.49-18.31l.46-.22Z" style="fill:none"/></clipPath><clipPath id="clip-path-4" transform="translate(0)"><path d="M90.05,55.29c-1.76,4.2-3.57,6.18-5.67,6.18h-.09a3.68,3.68,0,0,1-2.74-1.29,4.74,4.74,0,0,1-.66-1c-1.61,5-3.68,7.76-6.23,8.46h-.73a4.44,4.44,0,0,1-3.67-1.94c-1.58-2.18-1.66-5.54-1.7-8.17q0-1.19.06-2.37a33.41,33.41,0,0,1,2.86-11.29c2-4.46,5.6-5.68,8.33-4.92a5.53,5.53,0,0,1,1.42.62L81.49,36l2.89.25-.7,8.14v.74L83,53.27c-.17,1.56,0,4.11.76,5a.79.79,0,0,0,.64.29c1.23,0,3.68-4.82,5-10.06l.45-.09Zm-9.23-10.9A2.43,2.43,0,0,0,79,41.77a2.92,2.92,0,0,0-.79-.11c-1.34,0-3,.87-4.1,3.4-2.92,6.62-3.67,16-1.53,19A1.52,1.52,0,0,0,74,64.8c1.44-.5,4.74-3.47,6.75-19.66v-.31Z" style="fill:none"/></clipPath><clipPath id="clip-path-5" transform="translate(0)"><path d="M94.54,20.81,92.1,49.39c-.17,1.56,0,4.11.76,5a.79.79,0,0,0,.64.29c1.23,0,3.61-4.92,4.91-10.16,0,0,2.56-10,2.57-10L100.39,48c-.29.9-.65,1.94-1.08,3-1.8,4.43-3.65,6.5-5.81,6.5h-.09a3.74,3.74,0,0,1-2.82-1.35,7.94,7.94,0,0,1-1.1-4,50.68,50.68,0,0,1-.18-5.14,35,35,0,0,1,.16-3.53c.21-2.84.47-5.68.73-8.52s.54-5.54.82-8.31c.15-1.46.47-4.43.47-4.46l.28-3.36.42-5,2.89.25-.27,3.2Z" style="fill:none"/></clipPath><clipPath id="clip-path-6" transform="translate(0)"><path d="M111.53,42.31c-.32,1-.73,2.23-1.23,3.46-1.8,4.43-3.65,6.5-5.81,6.5h-.09A3.68,3.68,0,0,1,101.66,51c-1.92-2.19-1.37-5.5-1.28-8.19s.29-5.47.53-8.2.5-5.22.74-7.82l2.89.25-1.49,17c-.17,1.56,0,4.11.76,5a.79.79,0,0,0,.64.29c1.22,0,3.6-4.92,4.91-10.16v-.06l1.42-4.65Z" style="fill:none"/></clipPath><clipPath id="clip-path-7" transform="translate(0)"><path d="M125.55,21.26a4.38,4.38,0,0,1,.19.52,10.65,10.65,0,0,1,.24,3.47h0q0,.78-.06,1.57t-.15,1.78q-.08.94-.2,1.89t-.28,2q-.16,1-.37,2t-.47,2c-.17.65-.37,1.29-.59,1.93s-.44,1.22-.71,1.81a16.68,16.68,0,0,1-.84,1.65,12,12,0,0,1-1,1.44l-.37.43A6.22,6.22,0,0,1,116.53,46h-.48c-2.49,0-4-2-4.69-4.17a26,26,0,0,1-.47-9.54,28.15,28.15,0,0,1,1.7-6.71c1.36-3.72,4.14-8.72,8.89-7.89a4.08,4.08,0,0,1,2.57,1.44A8.85,8.85,0,0,1,125.55,21.26Zm-2.5,1.91a2.57,2.57,0,0,0-2-2.64,2.39,2.39,0,0,0-.41,0c-1.3,0-3.07,1-4.35,3.9-2.88,6.54-3.64,15.08-1.58,17.92a1.62,1.62,0,0,0,1.62.75h.09a3.39,3.39,0,0,0,2.4-1.29C122.18,38.07,123.35,27.69,123.05,23.17Z" style="fill:none"/></clipPath><clipPath id="clip-path-8" transform="translate(0)"><path d="M123.77,18.62c2.47-4.09,4.5-5.65,6.49-5,1.36.42,2.06,1.75,2.39,3.22.55-2,2-6.59,4.42-7.85a3.7,3.7,0,0,1,4.11,0c2,1.47,2.56,5.37,1.53,11.59l-.27,1.9-.26,3c-.17,1.55,0,4.11.76,5a.79.79,0,0,0,.63.29c.34,0,1.56-.84,3.12-4.69a46.38,46.38,0,0,0,1.79-5.47l2.82.7c-.93,3.73-3.53,12.36-7.74,12.36h-.08a3.68,3.68,0,0,1-2.71-1.31c-1.94-2.23-1.52-6.71-1.46-7.21l.27-3.1.28-2a37.7,37.7,0,0,0,.49-4.94,13.35,13.35,0,0,0-.1-1.78,4.54,4.54,0,0,0-.48-1.7,1.07,1.07,0,0,0-.69-.53,1,1,0,0,0-.67.14,2,2,0,0,0-.6.56,15.35,15.35,0,0,0-1.83,4,32.85,32.85,0,0,0-1.21,4.34c-1.64,6-3.43,19.19-3.43,19.19l-1.43-.27L128.46,39c0-.62,2.22-13.46,2.69-17.21a6.83,6.83,0,0,0-.78-4.72,1.27,1.27,0,0,0-.86-.62,1.25,1.25,0,0,0-.93.36,8.2,8.2,0,0,0-1.42,1.88c-.53.85-1.59,2.48-2.08,3.36Z" style="fill:none"/></clipPath><clipPath id="clip-path-9" transform="translate(0)"><rect x="101.7" y="20.89" width="3.24" height="3.24" rx="0.54" ry="0.54" transform="translate(14.34 79.65) rotate(-45)" style="fill:none"/></clipPath><clipPath id="clip-path-10" transform="translate(0)"><polygon points="91.5 22.32 52.04 41.9 50.75 39.3 91.79 18.93 94.83 17.42 126.16 1.87 127.45 4.47 94.54 20.81 91.5 22.32" style="fill:none"/></clipPath></defs><title>logo</title><g id="santa"><path id="santa-2" data-name="santa" d="M64.05,78.09a7,7,0,0,0,3.53,1.23c1.05,0,1.86-.44,1.86-1.55S68.6,76.14,67,75.7s-3.72-1.15-3.72-4c0-2.47,1.88-4.2,4.64-4.2a4.36,4.36,0,0,1,4.67,3.37l-2.72.79a2.11,2.11,0,0,0-2-1.78,1.38,1.38,0,0,0-1.57,1.44c0,1.13,1,1.51,2.41,1.92,2.24.63,3.76,1.78,3.76,4.16,0,2.84-2.13,4.43-4.91,4.43a8.59,8.59,0,0,1-4.5-1.17ZM80.8,81.56l4-13.78h3.7l4.2,13.78h-3l-1-3.12h-4l-.87,3.12Zm5.83-11.27c-.15.71-.34,1.71-.58,2.51l-.86,3.39h2.86l-.88-3.32c-.19-.71-.4-1.76-.56-2.53Zm25.74-2.51V81.56H109.8l-3.55-6.29c-.52-.92-1-1.92-1.49-3h0c.08,1,.13,2.07.13,3.14v6.08h-3V67.78h2.78l3.38,6.38c.5.92,1.05,2,1.46,2.84h0c-.1-1-.17-2.05-.17-3V67.78Zm9.28,0h10.7v2.3h-3.88V81.56h-3V70.08H121.6ZM138.5,81.56l4-13.78h3.7l4.2,13.78h-3l-1-3.12h-4.06l-.9,3.12Zm5.83-11.27c-.12.75-.31,1.71-.52,2.51l-.86,3.39h2.85l-.87-3.32c-.19-.71-.4-1.76-.56-2.53Z" transform="translate(0)" style="fill:#fac4c0"/></g><g id="ana"><path id="ana-2" data-name="ana" d="M62.71,104.56l4-13.78h3.7l4.2,13.78h-3l-1-3.12h-4l-.9,3.12Zm5.83-11.27c-.12.71-.31,1.71-.49,2.51l-.86,3.39h2.86l-.88-3.32c-.19-.71-.4-1.76-.56-2.53Zm25.74-2.51v13.78H91.67l-3.55-6.29c-.52-.92-1-1.92-1.49-3h0c.08,1,.13,2.07.13,3.14v6.08h-3V90.78h2.79L90,97.16c.5.92,1.05,2,1.46,2.84h0c-.1-1-.17-2.05-.17-3V90.78Zm9.16,13.78,4-13.78h3.7l4.2,13.78h-3l-1-3.12h-4.06l-.9,3.12Zm5.83-11.27c-.12.75-.31,1.71-.52,2.51l-.86,3.39h2.88l-.89-3.32c-.19-.71-.4-1.76-.56-2.53Z" transform="translate(0)" style="fill:#fac4c0"/></g><g style="clip-path:url(#clip-path)"><path d="M2.5,55.53l17,50,2.07-20.36s2.16-16.77,4-25c4-18.09,9.87-37.3,20.36-52.75" transform="translate(0)" style="fill:none;stroke:#fff;stroke-linecap:round;stroke-miterlimit:10;stroke-width:5px"/></g><g id="a1"><g style="clip-path:url(#clip-path-2)"><path d="M42.05,61c-.49-1.62-4-3-6.67,1.24-5.47,8.67-5.69,23.4.67,22.76C43.05,83,43.84,66.92,42.05,61Z" transform="translate(0)" style="fill:none;stroke:#fff;stroke-linecap:round;stroke-miterlimit:10;stroke-width:4px"/><path d="M45.05,55,43.49,72.57S42.18,78.9,46.05,79s7.5-14.5,7.5-14.5" transform="translate(0)" style="fill:none;stroke:#fff;stroke-linecap:round;stroke-miterlimit:10;stroke-width:5px"/></g></g><g id="c"><g style="clip-path:url(#clip-path-3)"><path d="M62.55,57.5s2-8.5-1.44-8.5c-3.06,0-5.06,4.19-5.06,4.19-4,8.67-6,22.81,2,21.81,0,0,7.5-4.5,13.5-21.5" transform="translate(0)" style="fill:none;stroke:#fff;stroke-linecap:round;stroke-miterlimit:10;stroke-width:5px"/></g></g><g id="a2"><g style="clip-path:url(#clip-path-4)"><path d="M79.87,42.06a2.64,2.64,0,0,0-3-2c-1.63.18-2.78,1.84-3.53,3.12-5.2,8.83-5.69,23.4.67,22.76,1.23,0,2.47-1.82,3-2.76a18.7,18.7,0,0,0,1.89-5.31,83.93,83.93,0,0,0,1.33-11.65A10.75,10.75,0,0,0,79.87,42.06Z" transform="translate(0)" style="fill:none;stroke:#fff;stroke-linecap:round;stroke-miterlimit:10;stroke-width:4px"/><path d="M82.67,36,81.28,53s-.7,7.09,2.68,6.86c4.59-.36,6.59-11.36,6.59-11.36" transform="translate(0)" style="fill:none;stroke:#fff;stroke-linecap:round;stroke-miterlimit:10;stroke-width:5px"/></g></g><g id="t-vert"><g style="clip-path:url(#clip-path-5)"><path d="M94,10v.13l-.5,6-.94,11.25q-.39,4.82-.81,9.63c-.4,5.13-1.33,10.36-1,15.52a4.3,4.3,0,0,0,1.1,3,2.42,2.42,0,0,0,2.74,0c1.76-1,2.76-3.12,3.62-4.88a61.81,61.81,0,0,0,3.85-11.07c.55-2,1-4.08,1.46-6.08" transform="translate(0)" style="fill:none;stroke:#fff;stroke-linecap:round;stroke-miterlimit:10;stroke-width:5px"/></g></g><g id="i"><g style="clip-path:url(#clip-path-6)"><path d="M102.55,25.5,101.05,43s-.59,7.59,3.28,7.69,9.22-18.19,9.22-18.19" transform="translate(0)" style="fill:none;stroke:#fff;stroke-linecap:round;stroke-miterlimit:10;stroke-width:5px"/></g></g><g id="o"><g style="clip-path:url(#clip-path-7)"><path d="M124.77,26a16.27,16.27,0,0,0-.22-2.59q-.08-.6-.19-1.2c-.34-1.93-1-3.48-3.2-3.73a5.83,5.83,0,0,0-4.63,2c-2,2.09-2.87,5.26-3.45,8a49.4,49.4,0,0,0-.95,11.29c.06,2.55,1,5.65,4.15,5.23,2.36-.31,3.83-2.53,5-4.4A25.48,25.48,0,0,0,124.77,26Z" transform="translate(0)" style="fill:none;stroke:#fff;stroke-linecap:round;stroke-miterlimit:10;stroke-width:5px"/></g></g><g style="clip-path:url(#clip-path-8)"><path d="M129.67,40.5c1.25-7.13,2.25-14.33,3.74-21.4a24.68,24.68,0,0,1,2-6c.67-1.37,2.1-4.36,4-4.1,2.6.35,2.58,3.87,2.46,5.87-.23,3.83-.88,7.63-1.09,11.46-.09,1.73-.19,3.82.71,5.37,1.48,2.6,3.93.66,5-1.21a39.67,39.67,0,0,0,3.56-9.78" transform="translate(0)" style="fill:none;stroke:#fff;stroke-linecap:round;stroke-miterlimit:10;stroke-width:5px"/><path d="M124.05,21c6-11,6.51-4.07,7.28-1,1,4-1.69,20.51-1.69,20.51" transform="translate(0)" style="fill:none;stroke:#fff;stroke-linecap:round;stroke-miterlimit:10;stroke-width:4px"/></g><g id="dot"><g style="clip-path:url(#clip-path-9)"><line x1="104.55" y1="24.5" x2="101.55" y2="20.5" style="fill:none;stroke:#fff;stroke-linecap:round;stroke-miterlimit:10;stroke-width:4px"/></g></g><g id="t-line"><g style="clip-path:url(#clip-path-10)"><line x1="50.55" y1="40.5" x2="128.55" y2="2.5" style="fill:none;stroke:#fff;stroke-linecap:round;stroke-miterlimit:10;stroke-width:5px"/></g></g></svg>