<svg id="Layer_1" data-name="Layer 1" xmlns="http://www.w3.org/2000/svg" viewBox="0 0 42.88 42.88"><title>social-in</title><path d="M46.44,25q0,6.39-.14,8.85-.28,5.81-3.46,9t-9,3.46q-2.46.14-8.85.14t-8.85-.14q-5.8-.28-9-3.46t-3.46-9Q3.56,31.39,3.56,25t.14-8.85q.28-5.81,3.46-9t9-3.46q2.46-.14,8.85-.14t8.85.14q5.81.28,9,3.46t3.46,9Q46.44,18.61,46.44,25ZM27.14,7.4H19.92q-1,0-2.7.08a22.08,22.08,0,0,0-2.87.28,11.27,11.27,0,0,0-2,.52,7.29,7.29,0,0,0-4.08,4.08,11,11,0,0,0-.52,2,21.71,21.71,0,0,0-.28,2.87q-.07,1.69-.08,2.69t0,2.94q0,1.94,0,2.14t0,2.14q0,1.94,0,2.95t.08,2.69a21.75,21.75,0,0,0,.28,2.88,11,11,0,0,0,.52,2,7.29,7.29,0,0,0,4.08,4.08,11.09,11.09,0,0,0,2,.52,21.33,21.33,0,0,0,2.87.28q1.69.07,2.7.08H30.08q1,0,2.69-.08a21.33,21.33,0,0,0,2.88-.28,11,11,0,0,0,2-.52,7.3,7.3,0,0,0,4.08-4.08,11,11,0,0,0,.52-2,21.34,21.34,0,0,0,.28-2.88q.07-1.69.08-2.69t0-2.95q0-1.94,0-2.14t0-2.14q0-1.94,0-2.94t-.08-2.69a21.31,21.31,0,0,0-.28-2.87,11.06,11.06,0,0,0-.52-2,7.3,7.3,0,0,0-4.08-4.08,11.19,11.19,0,0,0-2-.52,22.08,22.08,0,0,0-2.88-.28q-1.69-.07-2.69-.08Zm5.65,9.81A10.61,10.61,0,0,1,36,25,11,11,0,0,1,25,36,11,11,0,0,1,14,25,11,11,0,0,1,25,14,10.61,10.61,0,0,1,32.79,17.21ZM30.06,30.05a7.15,7.15,0,0,0,0-10.11,7.15,7.15,0,0,0-10.11,0,7.15,7.15,0,0,0,0,10.11,7.15,7.15,0,0,0,10.11,0Zm8.21-18.31A2.56,2.56,0,1,1,36.45,11,2.47,2.47,0,0,1,38.26,11.74Z" transform="translate(-3.56 -3.56)" style="fill:#1b3d34"/></svg>