<svg data-name="Layer 1" xmlns="http://www.w3.org/2000/svg" viewBox="0 0 648.23 186.38"><title>border-bottom</title><path d="M0-.09s.06 13.16.19 19.61c.16 8.09.95 16.15.43 24.3-.1 1.58.42 3.59.1 4.78-.57 2.08 1.54 2 .6 3.64a9 9 0 0 0-.67 4.51c.07 7.86.15 15.72 0 23.58 0 2-.07 4.13.06 6.16.17 2.65.29 5.29.28 7.9.23 2.86-.14 5.84-.11 8.8 0 2.39.06 4.76.09 7.14 1.6 2.24 3.35 3.57 5.45 2.93.58-.17 1.45-1.25 1.71 1l-1.22.49a1.17 1.17 0 0 0 1.12 1c2 .43 3.69 2.45 5.61 3.13v-.08c1.57 2 3.52 2 5.11 3.8v.06c.95-1 1.65-.74 1.9 1.56a1.41 1.41 0 0 0 .78 1.3 8.12 8.12 0 0 0 1.83 4.23l-.07-.24.08.21c.44 1.56 1 2.91 1.86 3.52l.64 1.62v-.15.05l1.23 3.82c.3 1 .67 2 .88 3.11.32 1.66 1.44 2.21 1.61 3.54.59 4.81 2.27 8.68 2.87 13.37 2.2 15.94 3.08 26.77 3.08 26.77a7.51 7.51 0 0 0 3.94.52 67.14 67.14 0 0 1 10.93-1.3c5.9-.09 11.81.3 17.7-.2 6.16-.52 12.31.32 18.47.06 4.8-.2 9.6 0 14.41-.71a55.06 55.06 0 0 1 12.28-.13c4.08.32 8.15 1.27 12.23 1.9 5.38.83 10.78.4 16.16.92 3.23.31 383.71-.49 386.91-.78 8-.72 15.93-.39 23.88-1.91 6.52-1.24 13.07-1.62 19.59-3.16 3.29-.78 6.61-.92 9.92-1.42A39.14 39.14 0 0 1 587 179c4.74-.09 9.48-.66 14.22-1h.22a21 21 0 0 1 3.38-.66 25 25 0 0 0 4.14-1.06c0-.78 0-1.56.06-2.34a45.27 45.27 0 0 1 .55-8.34c.06-.33.13-.63.2-.91a47.3 47.3 0 0 1 2.31-11.6l.12-.35c.5-4.14 1.07-8.23 1.87-12.19 2.12-10.48 5.08-18.69 9.68-25.42 6.93-10.12 15.35-11.18 23.66-11 .05-5.12.11-10.25.16-15.38-.14-2.35-.13-4.73-.16-7.1 0-2.16-.13-4.32-.2-6.47-.18-2.47-.32-4.93-.36-7.41-.14-10.18-.22-20.47.37-30.55.62-10.54.81-26.66 1-37.23" fill="#fff"/><path d="M26-.09c0 27-1.57 54.8-2 82.24 0 2.83-.73 6.06-.45 8.8A26.38 26.38 0 0 1 45 103.29c6.54 10 9.37 13.32 12.19 29.61a204.21 204.21 0 0 1 2.5 23.73c.13 2.36.18 4.71.2 7.06 7.78-1.42 15.56-.37 23.35-1.08 70.51-6.42 145.33 2.8 216.25 2.91q65.25.1 130.5-1c38.21-.63 81.64 4 118.87-5.57 2.35-.6 21.59-2.66 29.44-3.65 2.5-23.14 6.59-46.55 16.32-59 3.83-6.08 8.19-8.74 12.71-9.85a29.23 29.23 0 0 1 8.18-2.11c-.42 0 10.14-51.64 9.7-84.41" fill="none" stroke="#caa765" stroke-linejoin="round" stroke-width="2.75"/></svg>