<svg data-name="Layer 1" xmlns="http://www.w3.org/2000/svg" viewBox="0 0 720 164"><title>border-top</title><path d="M720 164s0-11.56-.21-17.26c-.17-7.11-1.05-14.19-.48-21.36.11-1.39-.47-3.15-.11-4.2.63-1.83-1.71-1.76-.67-3.15a6.44 6.44 0 0 0 .75-4c-.08-6.91-.16-13.81 0-20.73 0-1.76.08-3.63 0-5.41-.19-2.33-.32-4.65-.31-6.95-.25-2.51.16-5.13.12-7.74 0-2.1 0-4.2-.09-6.31-1.77-2-3.72-3.15-6.05-2.58-.64.15-1.61 1.05-1.89-.88l1.33-.43a1.26 1.26 0 0 0-1.24-.88c-2.23-.38-4.09-2.1-6.23-2.75v.07c-1.75-1.76-3.91-1.76-5.68-3.34v-.05c-1.05.88-1.83.65-2.11-1.37a1.24 1.24 0 0 0-.87-1.15 6.5 6.5 0 0 0-2-3.72l.08.21-.09-.19a5.5 5.5 0 0 0-2.07-3.09l-.71-1.42v.08L690 42.12a22.18 22.18 0 0 1-1-2.73c-.36-1.46-1.6-1.94-1.79-3.15-.65-4.2-2.52-7.63-3.19-11.75-2.36-14-3.33-23.43-3.33-23.43a10.38 10.38 0 0 0-4.34-.46 93.49 93.49 0 0 1-12.13 1.1c-6.55.08-13.12-.26-19.65.18-6.84.45-13.67-.28-20.52-.05-5.33.18-10.67 0-16 .62a77.19 77.19 0 0 1-13.64.12c-4.56-.3-9.07-1.15-13.6-1.69-6-.73-12-.35-18-.81-3.59-.27-426.23.43-429.75.68-8.88.63-17.69.35-26.52 1.68C99.35 3.51 92 3.84 84.83 5.19c-3.65.68-7.35.81-11 1.25a54.9 54.9 0 0 1-5.83.13c-5.27.08-10.53.58-15.8.88H52a28.8 28.8 0 0 1-3.76.61 33.85 33.85 0 0 0-4.6.94v2.1a31.66 31.66 0 0 1-.64 7.36 2.53 2.53 0 0 1-.23.8 34.1 34.1 0 0 1-2.56 10.2l-.13.3C39.55 33.4 38.92 37 38 40.47c-2.4 9.22-5.65 16.44-10.76 22.34-7.76 8.83-17.11 9.72-26.35 9.61 0 4.51-.13 9-.17 13.53.16 2.1.15 4.2.17 6.24S1 96 1.12 97.88c.2 2.18.36 4.33.4 6.52.16 8.95.24 18-.41 26.85C.43 140.51.21 154.7 0 164" fill="#fff"/><path d="M700.74 164c0-24.66-7.86-48.18-7.43-72.29 0-2.49.81-5.33.49-7.74-9.71-.29-18.6-4.36-23.75-10.85-7.27-8.79-10.41-11.71-13.53-26a143.5 143.5 0 0 1-2.77-20.86c-.15-2.1-.2-4.14-.23-6.2-8.63 1.23-17.33.35-26 .95-78.32 5.65-161.43-2.46-240.19-2.55q-72.48-.08-144.95.88c-42.44.56-90.67-3.51-132 4.9-2.57.5-24 2.33-32.63 3.22C75 47.73 70.43 68.33 59.63 79.25a22.85 22.85 0 0 1-14.12 8.66 39.49 39.49 0 0 1-9.13 1.89c.47 0-15.24 42.58-15.24 74.18" fill="none" stroke="#caa765" stroke-linejoin="round" stroke-width="2.22"/></svg>