<svg data-name="Layer 1" xmlns="http://www.w3.org/2000/svg" viewBox="0 0 540 156.03"><title>border-top-2</title><path d="M540 156s0-11-.16-16.42c-.13-6.76-.79-13.5-.36-20.32.08-1.32-.35-3-.08-4 .47-1.74-1.28-1.67-.5-3a7.55 7.55 0 0 0 .56-3.77c-.06-6.57-.12-13.14 0-19.72 0-1.67.06-3.45 0-5.15-.14-2.22-.24-4.42-.23-6.61-.19-2.39.12-4.88.09-7.36 0-2 0-4-.07-6-1.33-1.87-2.79-3-4.54-2.45-.48.14-1.21 1-1.42-.84l1-.41a1 1 0 0 0-.93-.84c-1.67-.36-3.07-2-4.67-2.62v.07c-1.31-1.67-2.93-1.67-4.26-3.18v-.05c-.79.84-1.37.62-1.58-1.3a1.18 1.18 0 0 0-.65-1.09 6.8 6.8 0 0 0-1.52-3.54l.06.2-.07-.18a5.48 5.48 0 0 0-1.55-2.94l-.53-1.35v.08l-1.09-3.14a25.07 25.07 0 0 1-.73-2.6c-.27-1.39-1.2-1.85-1.34-3-.49-4-1.89-7.26-2.39-11.18C511.27 10 510.54 1 510.54 1a6.24 6.24 0 0 0-3.28-.43 55.73 55.73 0 0 1-9.1 1.05c-4.91.08-9.84-.25-14.74.17-5.13.43-10.25-.27-15.39-.05-4 .17-8 0-12 .59a45.7 45.7 0 0 1-10.23.11c-3.42-.29-6.8-1.09-10.2-1.61-4.48-.69-9-.33-13.47-.77-2.69-.26-319.67.41-322.31.65-6.66.6-13.27.33-19.89 1.6C74.51 3.34 69 3.65 63.62 4.94c-2.74.65-5.51.77-8.26 1.19a32.49 32.49 0 0 1-4.36.12c-3.95.08-7.9.55-11.85.84H39a17.44 17.44 0 0 1-2.82.58 20.76 20.76 0 0 0-3.45.89v2a38 38 0 0 1-.46 7c0 .28-.11.53-.17.76a39.68 39.68 0 0 1-1.92 9.7l-.1.29c-.42 3.46-.89 6.88-1.56 10.19-1.8 8.77-4.24 15.64-8.07 21.25C14.61 68.15 7.6 69 .67 68.89c0 4.29-.1 8.57-.13 12.87.12 2 .11 4 .13 5.94 0 1.81.11 3.61.17 5.41.15 2.07.27 4.12.3 6.2.12 8.51.18 17.12-.31 25.54C.32 133.66.16 147.16 0 156" fill="#fff"/><path d="M520.81 156c-1.15-22.92-1.15-45.82-.83-68.76 0-2.37.61-5.07.37-7.36a22 22 0 0 1-17.81-10.32c-5.45-8.36-7.81-11.14-10.15-24.76a171.35 171.35 0 0 1-2.08-19.84c-.11-2-.15-3.94-.17-5.9-6.47 1.17-13 .33-19.47.9-58.74 5.37-121.07-2.34-180.14-2.43q-54.36-.08-108.71.84c-31.83.53-68-3.34-99 4.66-1.93.48-18 2.22-24.47 3.06-2.12 19.32-5.53 38.91-13.63 49.3-3.19 5.08-6.82 7.31-10.59 8.24a24.28 24.28 0 0 1-6.85 1.8c.35 0-5.72 42.64-6.19 70.58" fill="none" stroke="#caa765" stroke-linejoin="round" stroke-width="2.295"/></svg>