<svg data-name="Layer 1" xmlns="http://www.w3.org/2000/svg" viewBox="0 0 540 156"><title>border-bottom</title><path d="M0 0s1 11.07 1.08 16.47c.13 6.76.79 13.5.36 20.31-.08 1.32.35 3 .08 4-.48 1.74 1.28 1.65.5 3a7.6 7.6 0 0 0-.55 3.77c.06 6.57.12 13.14 0 19.71 0 1.71-.06 3.45 0 5.15.14 2.22.24 4.42.23 6.61.19 2.39-.11 4.88-.09 7.35 0 2 .05 4 .07 6 1.33 1.87 2.78 3 4.53 2.45.48-.15 1.2-1 1.43.86l-1 .41a1 1 0 0 0 .93.86c1.63.36 3.07 2 4.66 2.62v-.06c1.3 1.68 2.92 1.64 4.24 3.18v.05c.79-.82 1.37-.62 1.58 1.3a1.18 1.18 0 0 0 .65 1.09 6.81 6.81 0 0 0 1.52 3.54l-.06-.2.06.18a5.31 5.31 0 0 0 1.55 2.94l.53 1.35v-.12l1.03 3.18c.25.86.55 1.68.73 2.6.27 1.39 1.2 1.85 1.33 3 .49 4 1.88 7.25 2.39 11.17C29.6 146 30.33 155 30.33 155a6.21 6.21 0 0 0 3.28.44 55.52 55.52 0 0 1 9.09-1.09c4.91-.07 9.82.25 14.71-.17 5.12-.43 10.23.27 15.35.05 4-.17 8 0 12-.6a45.52 45.52 0 0 1 10.21-.1c3.39.26 6.77 1.06 10.16 1.59 4.47.69 9 .33 13.44.77 2.68.26 319-.41 321.63-.65 6.61-.6 13.24-.32 19.85-1.59 5.42-1 10.87-1.36 16.28-2.64 2.73-.65 5.5-.77 8.25-1.19a32.36 32.36 0 0 1 4.33-.12c3.94-.07 7.88-.55 11.82-.85h.18a17.36 17.36 0 0 1 2.81-.55 20.65 20.65 0 0 0 3.44-.88v-2a38 38 0 0 1 .46-7c0-.28.11-.53.17-.76a39.72 39.72 0 0 1 1.92-9.7l.1-.29c.42-3.46.89-6.88 1.56-10.19 1.76-8.76 4.22-15.63 8.05-21.25 5.76-8.46 12.76-9.34 19.67-9.21 0-4.28.1-8.57.13-12.86-.11-2-.11-4-.13-5.93 0-1.81-.11-3.61-.17-5.41-.15-2.06-.27-4.12-.3-6.2-.11-8.51-.18-17.11.31-25.53.52-8.81.88-22.37 1-31.2" fill="#fff"/><path d="M21.21 0c0 22.59.07 45.89-.28 68.82 0 2.36-.61 5.07-.37 7.35a22 22 0 0 1 17.83 10.31c5.45 8.34 7.8 11.14 10.15 24.74a171.23 171.23 0 0 1 2.08 19.84c.11 2 .15 3.94.17 5.9 6.48-1.19 13-.31 19.45-.9 58.74-5.36 121.06 2.34 180.14 2.43q54.36.08 108.71-.82c31.83-.53 68 3.31 99-4.65 2-.5 18-2.23 24.53-3.05 2.08-19.34 5.49-38.91 13.6-49.33 3.19-5.08 6.82-7.31 10.59-8.23a24.28 24.28 0 0 1 6.81-1.76c-.35 0 8.08-43.54 8.08-70.55" fill="none" stroke="#caa765" stroke-linejoin="round" stroke-width="2.504"/></svg>