<svg data-name="Layer 1" xmlns="http://www.w3.org/2000/svg" viewBox="0 0 842.79325 539.24567"><title>gold-border</title><path d="M841.805 211.833a128.572 128.572 0 0 0-.401-12.944c-.563-7.527.097-15.185-1.834-22.558-1.34-5.113-.97-10.377-2.015-15.563-.92-4.563-.565-9.608-.966-14.423-.774-9.274-1.165-18.537-.088-27.812.375-3.221.936-6.445.989-9.674.166-10.241.6-20.498-.424-30.716-.236-2.35-1.068-5.399-1.576-5.381-5.346.184-11.724-1.813-16.638-2.68a45.075 45.075 0 0 1-18.387-7.66c-6.143-4.419-12.259-9.102-17.31-14.91-.917-1.055-2.016-1.988-3.656-.972-.658.408-1.14-.072-.576-.716 1.882-2.148-.212-3.413-1.31-4.212-3.44-2.508-5.615-6.035-7.751-9.453-4.742-7.582-8.052-15.928-11.872-23.997-.835-1.765-4.299-7.746-4.299-7.746a46.941 46.941 0 0 0-8.045-.035 129.992 129.992 0 0 1-13.717 1.036c-8.82.391-17.47 2.578-26.433 2.038-6.121-.369-12.244-1.172-18.441-.714-5.802.43-11.641.548-17.464.702-4.817.127-10.113-2.053-14.599 1.65-.136.112-.71-.274-1.063-.461-4.828-2.558-9.735-1.821-14.661-.393l-.026-.05a5.042 5.042 0 0 1-2.536.036c-8.188-1.556-16.486-.674-24.731-1.002-5.338-.212-10.654.666-16.043.332-4.91-.304-10.084-1.82-14.721 1.375a40.476 40.476 0 0 1-.24-.782c-1.892 1.276-3.747.082-5.637.014-7.59-.273-15.197-.524-22.785-.305-6.946.2-13.893-.046-20.833.046-5.046.067-10.13-1.624-15.342-1.716-3.67-.064-7.33.235-10.968.12-7.971-.252-15.912-1.128-23.916-.405a83.772 83.772 0 0 1-9.66-.163c-6.758-.177-13.45-2.223-20.272-.714a5.257 5.257 0 0 1-1.618.036c-12.963-1.266-25.794.936-38.665 1.698-7.226.428-14.439.231-21.615.168-10.517-.092-21.046-.873-31.562-1.96-6.875-.71-13.973-.55-20.972-.724-1.277-.032-1.458.518-1.627 1.412a10.325 10.325 0 0 0-6.847-.726 51.223 51.223 0 0 1-8.897.527c-2.929-.03-5.79-.61-8.703-.572-4.042.054-7.952 1.59-12.223-.132a19.526 19.526 0 0 0-5.983-.731 209.716 209.716 0 0 0-26.76 1.172 53.234 53.234 0 0 1-6.11.327c-5.084.014-10.081-1.275-15.185-.853-1.206.1-2.16-.138-2.62 1.573-.405 1.505-2.522 1.118-2.44.093.151-1.918-.657-1.32-1.584-1.203a19.126 19.126 0 0 1-2.893.263c-8.425-.24-16.85-.332-25.267-.98-8.195-.63-16.393.41-24.666-.126a188.096 188.096 0 0 0-19.242.187c-8.049.315-16.07 1.869-24.178.85-1.573-.198-3.568.838-4.756.188-2.07-1.133-1.967 3.049-3.617 1.18-1.305-1.479-3.011-1.344-4.484-1.318-7.82.139-15.635.295-23.455-.048a36.494 36.494 0 0 0-6.126.112 59.49 59.49 0 0 1-7.864.558c-2.843.46-5.813-.272-8.754-.217-2.375.046-4.74.123-7.104.176-2.227 3.153-3.551 6.615-2.918 10.774.174 1.143 1.242 2.862-1.019 3.39-.168-.807-.33-1.604-.49-2.401-.903.471-.932 1.431-1.019 2.208-.432 3.873-2.438 7.29-3.113 11.084 0 0 .081-.072.077-.061-2 3.096-1.948 6.949-3.785 10.093l-.06-.069c.975 1.87.74 3.255-1.553 3.756-.87.19-1.091.846-1.296 1.547a7.388 7.388 0 0 0-4.213 3.61l.24-.145c-.066.05-.133.098-.209.15a6.86 6.86 0 0 0-3.498 3.674c-.535.427-1.071.848-1.608 1.269l.148-.08a.367.367 0 0 0-.052.04q-1.876 1.306-3.74 2.591s.033-.052.036-.046a22.795 22.795 0 0 1-3.09 1.743c-1.652.64-2.197 2.852-3.519 3.174-4.79 1.17-8.631 4.483-13.298 5.68-15.859 4.359-26.634 6.087-26.634 6.087a28.223 28.223 0 0 0-.52 7.792c.655 7.193 1.24 14.393 1.295 21.618.087 11.666-.295 23.348.197 34.995.514 12.186-.317 24.34-.06 36.513.2 9.495.006 18.98.71 28.483a215.815 215.815 0 0 1 .124 24.278c-.314 8.07-1.266 16.113-1.889 24.171C.164 258.51.59 269.183.07 279.827c-.311 6.385.498 12.729.785 19.067.713 15.73.386 31.493 1.896 47.208 1.239 12.884 1.614 25.846 3.143 38.722.77 6.502.915 13.076 1.416 19.611.263 3.44.114 6.873.146 10.306.089 9.372.66 18.74 1.016 28.11.006.144.008.289.012.434.344 2.174.49 4.386.656 6.687.197 2.754.607 5.472 1.05 8.186.778.028 1.555.062 2.331.117a23.234 23.234 0 0 1 8.301 1.084 6.372 6.372 0 0 1 .905.4 28.044 28.044 0 0 1 11.545 4.577c11.85 8.112 22.114 17.753 28.476 30.92 3.765 7.794 7.629 15.546 11.143 23.455a5.486 5.486 0 0 1 .765 1.029c2.57 4.454 4.252 9.258 6.039 14.033a5.943 5.943 0 0 0 .858.403c5.477.108 10.965.244 16.453.338.292-.056.585-.104.884-.137 26.707-2.962 53.333-1.935 80.078-.18 13.848.909 27.69 1.783 41.567 2.093 13.374.3 26.653 2.421 40.04 2.254a8.322 8.322 0 0 1 2.11.233c19.433-.671 38.872.297 58.316-.505 10.856-.448 21.648-.546 32.448-.47 1.35-.072 2.698-.156 4.048-.223 14.278-.708 28.517.799 42.773.836 7.508.02 15.03-.51 22.555-.268 12.282.395 24.573 1.278 36.845 1.066 13.367-.23 26.752.303 40.107-.688 9.715-.72 19.474.646 29.14-.053 14.48-1.046 28.928-.08 43.388-.27 15.297-.202 30.603.249 45.905.412 3.568.038 7.2.511 10.692.013 9.39-1.34 18.755-.08 28.104.075 8.723.144 17.428.345 26.154.06 9.526-.31 19.017-1.268 28.587-.097 12.35-.01 24.7-.172 37.048-.242 2.874-.173 5.737-.543 8.608-.437 3.283-.165 6.572-.281 9.863-.395a38.199 38.199 0 0 1 .864-6.59 17.76 17.76 0 0 1 .61-2.498 43.653 43.653 0 0 1 1.199-5.68 40.781 40.781 0 0 1 3.234-7.051 16.711 16.711 0 0 1 1.572-4.109 44.848 44.848 0 0 1 6.14-8.303 5.346 5.346 0 0 1 1.046-.88 104.517 104.517 0 0 1 13.446-14.068 98.105 98.105 0 0 1 31.227-19.249l.433-.164a4.96 4.96 0 0 1 1.413-.541c1.363-.527 2.228-1.307 3.595-1.821a24.682 24.682 0 0 1 6.01-1.884c.538-.127 3.129-1.443 3.674-1.518a38.681 38.681 0 0 0 .466-4.078c.746-8.03-.479-15.965-.6-23.929-.2-13.232-1.081-26.487-1.587-39.725-.9-23.55-.058-47.122 1.096-70.658.776-15.825.778-31.675 1.986-47.486.912-11.945.147-23.95.636-35.907.406-9.917-1.182-19.726-.92-29.62zm-3.219-1.79c-.09.023-.233.094-.265.061a2.641 2.641 0 0 1-.246-.31l.511.248zm-19.938-137.73c.582-.1.932.078.881.609a1.436 1.436 0 0 1-1.09 1.371c-.643.144-.98-.36-1.002-.904-.034-.836.755-.85 1.211-1.075zm-18.911-5.403c.94-.039 1.043.727 1.29 1.35-.65-.117-1.415-.039-1.623-.928-.027-.115.21-.417.333-.422zm-14.025-12.145l.215.141-.278.235c-.04-.076-.114-.154-.11-.227.004-.053.112-.1.173-.149zm-11.973-13.753l.195.222c-.053.084-.089.208-.164.24-.074.03-.187-.035-.283-.057zM503.243 3.104c.112-.5.713-.399 1.077-.216.398.199 1.16-.016 1.096.709-.015.164-.737.264-1.052.368-.605-.117-1.283-.14-1.121-.861zM341.539 1.792l.223.198a4.913 4.913 0 0 1-.415.364c-.014.01-.137-.13-.208-.2l.4-.362zm-43.092.381l.258.027-.125.395c-.069-.056-.173-.1-.195-.17-.022-.07.038-.167.062-.252zm-39.98.71a3.27 3.27 0 0 1 .828.292l-.05.25a11.013 11.013 0 0 1-1.206-.132 4.818 4.818 0 0 1-.833-.34 8.935 8.935 0 0 1 1.261-.07zm-92.042-.657a2.147 2.147 0 0 1 .068.25 4.885 4.885 0 0 1-.488.115 2.314 2.314 0 0 1-.068-.252c.162-.041.323-.087.488-.113zM76.712 7.487l.236.085c.006.084.036.193-.005.245-.041.052-.154.048-.236.069l.005-.399zm-4.974 8.94l-.15.83c-.028-.073-.096-.159-.076-.216.068-.205.149-.409.226-.614zm-1.127 5.57a1.125 1.125 0 0 1 1.199-.796.722.722 0 0 1 .688.863c-.11.67-.496 1.217-1.238 1.123-.615-.078-.822-.624-.649-1.19zM8.128 397.042a.461.461 0 0 1-.134-.441.475.475 0 0 1 .452-.144c.106.053.117.298.173.47-.168.047-.365.167-.491.115zm7.41 57.017c-.064-.067-.168-.128-.18-.204a3.001 3.001 0 0 1-.004-.508c.14.12.314.212.383.355.034.07-.127.235-.2.357zM838.86 260.306c-.881 7.794-.749 15.686-1.01 23.515-.232 6.95-.702 13.928-.586 20.906.083 4.952-1.16 9.857-.634 14.836l.224-.11-.128.099c-.501 2.835-.952 5.655-.259 8.508l.22-.12-.157.139c-1.18 2.173-.888 4.348-.107 6.528l.016.015-.007.012c.008.02.013.04.02.06l-.03-.04a5.324 5.324 0 0 0-.765 2.751c-.571 13.613-.716 27.237-1.091 40.85-.218 7.88.27 15.744-.129 23.607-.264 5.19.594 10.332.503 15.54-.15 8.596.395 17.201.455 25.804.021 3.062.632 10.227.985 14.13a3.84 3.84 0 0 1-2.372 3.908 18.62 18.62 0 0 1-2.271.768 91.58 91.58 0 0 0-28.851 13.168c-4.994 3.418-10.158 6.781-14.398 10.885-8.086 7.825-16.147 15.825-21.065 26.377-2.32 4.977-3.05 10.241-4.565 15.359-1.262 4.266-1.7 5.543-4.63 5.317a19.097 19.097 0 0 1-3.777.59 8.596 8.596 0 0 1-1.21.072c-8.818-.142-17.6.505-26.407.767-9.043.27-18.087-.258-27.13-.395-18.31-.278-36.62.009-54.93.132-18.032.12-36.067.052-54.1.052-10.132 0-20.428-.953-30.675-1.218-.515.059-1.03.127-1.544.21a8.171 8.171 0 0 1-3.17-.283c-2.95-.004-5.892.08-8.823.272a7.962 7.962 0 0 1-2.69.463c-.844.002-1.687.014-2.531.02-.692.082-1.384.16-2.074.259a10.742 10.742 0 0 1-4.209-.196c-16.348.248-32.685 1.006-49.035 1.239-19.133.273-38.295.19-57.428-.022-19.431-.216-38.841-1.48-58.274-1.253-13.898.162-27.803.647-41.682.133-.172.073-.345.168-.517.247l-.072.062-.036-.013c-.018.007-.036.017-.053.024l.046-.027c-2.139-.846-4.252.037-6.369.07q-21.375.327-42.75.7c-5.82.103-11.647.54-17.456.352-6.221-.201-12.418-1.055-18.637-1.454-10.226-.656-20.45-1.476-30.709-1.303-12.098.204-24.098-1.553-36.168-1.758-6.993-.118-14.122-.136-20.93-.91-5.003-.567-10.005-.88-15.005-1.111a2.838 2.838 0 0 0-.83.102 5.388 5.388 0 0 1-1.364.162c-6.574-.036-13.134.353-19.705.444-4.68.065-9.352.043-14.019.276a2.485 2.485 0 0 0-.421.058 41.48 41.48 0 0 1-15.652.75c-5.036-.79-6.288-1.948-7.658-6.866-.822-2.953-1.669-5.997-4.155-8.148l-.01.592-.016-.564a10.11 10.11 0 0 0-2.375-6.83c-3.01-3.764-4.283-8.442-6.23-12.725-5.955-13.092-13.915-24.46-25.692-32.99-4.533-3.283-8.792-6.903-14.05-9.092-3.554-1.478-7.336-1.767-11.02-2.47-2.12-.403-3.124-1.018-3.015-3.224.62-12.614-.661-25.212.069-37.872.45-7.806-.717-15.826-2.023-23.672a34.916 34.916 0 0 1-.653-6.901c.328-9.223-1.599-18.27-1.953-27.45-.407-10.526-1.76-21.012-2.492-31.53a116.185 116.185 0 0 1 .034-12.592c.09-2.298-1.25-4.404-.671-6.716l-.099-.019a45.801 45.801 0 0 0 .158-9.692 239.127 239.127 0 0 1-.356-31.398c.494-8.154.208-16.322 1.38-24.483a179.484 179.484 0 0 0 1.07-39.275c-.952-12.389-1.2-24.818-1.066-37.17.128-11.867-.832-23.707-.21-35.586.526-10.058.099-20.167.035-30.253-.033-5.17-.96-10.29-.702-15.497.134-2.703 1.257-3.66 3.744-4.306 12.36-3.205 24.362-7.388 35.05-14.595 7.327-4.94 14.306-10.362 20.155-17.044 4.14-4.729 5.932-10.6 7.567-16.553 1.705-6.213 3.74-12.335 5.584-18.512.434-1.451 1.283-1.726 2.688-1.569a135.561 135.561 0 0 0 25.55.263c5.65-.44 11.499-1.008 16.922-.61 7.133.522 14.108-.637 21.186-.212 7.606.457 15.293-.361 22.94-.695 4.268-.186 8.656.729 12.746-1.294a1.066 1.066 0 0 1 .91.002c3.542 2.587 7.672 1.302 11.422 1.34 8.83.09 17.669 1.015 26.51.14 1.482-.148 2.787.996 4.376.918a2.947 2.947 0 0 0 1.807-.454 2.618 2.618 0 0 1 2.463-.693c5.954 1.647 12.051.022 18.061.288 4.619.205 9.216-.21 13.866.227 5.319.5 10.763-.136 16.138-.491 6.995-.463 13.986-.922 20.962-.002 2.71.357 5.443-.178 8.029.105 10.194 1.117 20.235-.87 30.33-.928 11.303-.066 22.612 1.029 33.92 1.574 5.378.259 11.053 1.562 16.058.29 4.916-1.25 8.783 1.776 13.339.987 4.43-.767 9.012-.623 13.52-.97 7.309-.562 14.633-.886 21.899-2.027 3.238-.509 6.592-.236 9.881-.48 7.2-.536 14.334.494 21.49.856 9.434.478 18.81 1.493 28.318.548 2.914-.29 6.188.209 9.29.46q21.786 1.764 43.656 1.795c5.142.001 10.474-.544 15.415.135 10.804 1.484 21.449-1.081 32.24.048 8.852.926 17.899.123 26.854-.129 3.629-.102 7.373 1.036 10.911-.474a2.474 2.474 0 0 1 1.603-.096c11.312 2.983 22.735-.433 34.074.36 13.71.957 27.463.135 41.158 1.166 5.15.388 10.081-.811 15.113-1.312 6.102-.608 12.184-1.88 18.369-1.038a50.894 50.894 0 0 0 7.649-.05 2.49 2.49 0 0 1 2.437 1.487c1.038 2.369 2.952 6.77 3.894 9.146 1.064 2.684 1.857 5.556 3.885 7.733a3.655 3.655 0 0 1 1.052 2.462c-.004 2.139 1.338 3.714 2.62 5.312l-.1-.241.121.159c1.68 2.468 2.116 5.831 5.372 7.122.306.121.4.948.47 1.463.277 2.05 1.822 2.978 3.29 4.103.941.72 4.447-.29 2.288 2.924-.068.103.26.594.502.765 5.245 3.712 8.957 9.163 14.416 12.653a20.85 20.85 0 0 1 3.193 3.163l-.078-.24.101.15c1.73 1.006 2.798 2.639 4.074 4.064l-.142-.222.119.162a2.693 2.693 0 0 0 3.583.982l.016.04c3.611 3.607 8.094 5.174 12.964 6.528 5.067 1.409 10.226 2.152 15.295 3.387 3.072.748 3.105 3.649 3.674 6.117.827 3.588-.315 7.293.724 10.856l.013.006c-1.95 1.9.35 4.015-.24 5.983l.238-.101-.14.096c-1.464 2.003-1.148 4.333-1.23 6.559a72.53 72.53 0 0 1-1.158 11.494c-.345 1.736-.873 3.575.415 5.282.632.837-.182 1.343-.764 1.817l.043-.027c-.219 7.96.167 15.898.73 23.84.264 3.73.228 7.498 1.143 11.127.196.776-1.254 3.664 1.99 2.484.492-.18 1.038 1.667.702 2.119-3.043 4.097-.9 8.222-.39 12.402 1.103 9.056 1.56 18.17 1.903 27.285a8.547 8.547 0 0 0 .875 4.07l.02.01c-1.36 1.859-.631 3.921-.329 5.832 1.4 8.853 1.311 17.754 1.157 26.668-.03 1.708.214 3.42.332 5.13l.054-.045c-1.395 4.306.266 8.651-.229 13.024zm-5.987-114.124l-.237.329c-.05-.068-.141-.135-.142-.204-.002-.067.088-.137.137-.205zm5.634 44.287c-.075-.004-.179.02-.222-.02a3.179 3.179 0 0 1-.27-.302c.167.105.333.211.492.322zM758.854 17.766l-.18.125-.016-.226zm-260.938-14.7l.134.17-.219.028zM311.311 2.48l-.207.147-.013-.254zm-134.914-.635l.229.045-.041.226c-.076-.014-.186-.005-.218-.05-.03-.045.017-.145.03-.22zm-65.513 1.35l-.168.16-.057-.218zM60.046 45.15l-.127.155-.07-.185zM837.82 190.02l.045.03-.199.077zm-4.156-75.343l-.133-.146.016-.039zm.166-1.243l.08-.026-.001.002zm-7.29-37.816c.006.01.007.023.012.034-.049-.056-.103-.108-.15-.167a.674.674 0 0 1 .138.133zm.312.126l-.129.098-.02-.024zM581.362 5.08l-.127-.073-.023-.074zM335.728 1.54s-.156.14-.166.146c-.018-.01-.037-.017-.055-.026zm-110.14 2.018l.03.012-.12.07zM64.73 497.274l.013-.014c.02.032.023.046-.013.014zm-6.313-11.125l.035-.055c.008.013-.035.055-.035.055zm-48.4-48.838l-.136-.133c-.01-.015.017-.06.017-.06zm52.51-399.316l-.067-.068zm.944-.95l-.945.95-.063-.071.95-.95zm767.43 89.315s-.03.035-.036.031.036-.031.036-.031z" fill="#caa765"/></svg>