<svg data-name="Layer 1" xmlns="http://www.w3.org/2000/svg" viewBox="0 0 1186.17755 1060.2021"><title>gold-border-menu</title><path d="M1184.646 971.376a118.677 118.677 0 0 1-.92-12.348c-.348-7.94-2.29-15.727-1.81-23.796.327-5.51 1.04-11.022.633-16.6-.381-5.223-.487-10.48-.623-15.722-.113-4.336 1.822-9.104-1.465-13.142-.1-.123.243-.64.409-.958 2.271-4.346 1.617-8.764.349-13.198l.043-.023a4.599 4.599 0 0 1-.031-2.283c1.381-7.37.598-14.841.89-22.264.187-4.804-.592-9.59-.296-14.442.27-4.419-.6-16.841-.54-18.542.244-6.833.466-13.681.271-20.512-.177-6.252.04-12.506-.04-18.754-.06-4.543 1.441-9.118 1.523-13.81.057-3.304-.209-6.6-.107-9.875.224-7.176 1.002-14.324.36-21.53a76.333 76.333 0 0 1 .144-8.695c.158-6.084 1.974-12.109.634-18.25a4.801 4.801 0 0 1-.032-1.457c1.005-10.438.316-21.277.332-31.744q.055-34.398-.112-68.795-.15-42.531-.406-85.062-.235-40.271-.548-80.543c-.16-20.087.452-40.46-.814-60.472-.74-11.694.386-23.722.697-35.47q.492-18.57.787-37.144.561-35.269.415-70.544-.007-1.88-.017-3.76c0-19.822.178-39.594.237-59.342.031-10.603-.033-21.212-.504-31.806-.267-6.02-2.48-70.153.698-70.268-13.815.5-31.6-3.238-43.095-11.476-13.02-9.331-18.64-12.461-24.25-27.688a95.296 95.296 0 0 1-4.978-22.195c-.258-2.21-.356-4.404-.395-6.605-5.126.44-10.258.79-15.403.83-10.359.078-20.731-.266-31.072.177-10.821.463-43.613-.286-54.422-.054-8.43.18-16.852.005-25.29.638a189.014 189.014 0 0 1-21.557.112c-7.164-.283-14.307-1.14-21.462-1.701-9.444-.74-18.922-.357-28.372-.824-5.67-.28-673.575.439-679.203.697-13.967.641-47.963.347-61.917 1.706-11.44 1.115-22.95 1.453-34.382 2.828-4.68.563-42.97 2.492-58.592 3.416C75.436 31.729 67.3 53.62 47.93 65.283l-.033.026c-7.63 5.687-16.29 8.176-25.288 9.208a114.425 114.425 0 0 1-16.27 1.971c1.261-.05-2.42 97.29-2.817 105.462-.976 20.129-.844 40.042-.895 60.227q-.147 57.08-.22 114.159-.152 114.159-.141 228.318c-.008 42.77-1.067 85.583-.338 128.364.205 12.034-.268 24.083.611 36.106.64 8.745-.573 17.531.048 26.232.93 13.036.072 26.042.24 39.059.18 13.77-.22 27.55-.365 41.325-.034 3.212-.454 6.48-.011 9.624 1.19 8.455.07 16.884-.067 25.301-.128 7.853-.306 15.688-.053 23.544.302 9.365 1.294 18.69-.244 28.114-1.65 10.114.013 20.32.514 30.479.135 2.753.52 5.493.42 8.242.02.385.035.772.05 1.158q.92.34 1.81.753a126.335 126.335 0 0 1 33.349 10.62 59.669 59.669 0 0 1 22.713 18.845 51.065 51.065 0 0 1 7.401 14.284 34.44 34.44 0 0 1 .857 3.184 84.296 84.296 0 0 1 7.89 27.684c5.746.076 11.45-.647 17.172-.735 11.749-.18 23.519-.973 35.273-1.428 20.91-.81 41.84-.052 62.74.987 14.05.699 710.397.71 724.435 1.798 10.606.821 21.265.133 31.882.573 8.807.366 17.516-1.064 26.3-.829a112.542 112.542 0 0 0 11.493-.361c6.683-.507 13.483.088 20.03-1.65 4.54-1.206 30.214-.874 34.819-1.815 4.051-.827 8.53-.507 12.806-.87 8.234-.696 17.46-1.047 25.695-.077a86.004 86.004 0 0 0 8.59.89c8.039.132 16.09.449 24.116-.115.473-16.741 5.33-32.945 16.39-46.359 10.708-12.986 30.188-24.754 47.52-24.44.461-.217.924-.432 1.383-.652 1.567-.752 6.878-3.87 6.878-3.87a42.85 42.85 0 0 0 .032-7.243z" fill="none" stroke="#caa765" stroke-linejoin="round" stroke-width="2.75"/></svg>