<svg data-name="Layer 1" xmlns="http://www.w3.org/2000/svg" viewBox="0 0 19.98 19.79"><title>plane-white</title><path d="M16.36 18.13a.7.7 0 0 1-.31-.07L8.34 14.3l-7.81-2A.7.7 0 0 1 .35 11L18.92.1a.7.7 0 0 1 1 .73l-2.87 16.72a.7.7 0 0 1-.69.58zM2.53 11.34L8.76 13h.13l6.94 3.38 2.5-14.31z" fill="#fff"/><path d="M8.58 19.79a.7.7 0 0 1-.23 0 .7.7 0 0 1-.47-.66v-5.49a.7.7 0 0 1 .12-.45L18.73.26a.703.703 0 0 1 1.08.9L9.28 13.89v3.21l1.91-2.36a.704.704 0 1 1 1.09.89l-3.16 3.9a.71.71 0 0 1-.54.26z" fill="#fff"/></svg>