<svg data-name="Layer 1" xmlns="http://www.w3.org/2000/svg" viewBox="0 0 610.68 563.75"><title>skel-guy</title><path data-name="MIjHYx" d="M512.39 476.26c-2.54-2.41-3.17-5.83-4.61-8.81-.83-1.7-1.5-3.47-2.26-5.21-.17-.38-.29-.9-.85-.84s-.44.51-.62.81c-1.44 2.49-1.75 4.78 0 7.47a41.86 41.86 0 0 1 4.61 10.57c.43 1.39 1.67 2.16 2.27 3.43 2.44 5.11 4.29 10.45 6.29 15.74a12.1 12.1 0 0 0 1.51 2.64 3.24 3.24 0 0 1-.39 4.69c-.92.86-.66 1.3.28 1.74l.2.08c5.35 3 6.76 2.58 11.8-3.46 1.19-1.43 2.5-2.77 3-4.7.67-2.38 6.67-5.18 9.87-4.63a20.34 20.34 0 0 1 6 2.42c2.55 1.33 5.13 2.66 7.76 3.83 1.82.81 6.95-1.49 8.28-3.33.63-.87.65-2.65 2.24-2.25 1.17.29 1.49 3.26.91 4.77-1 2.69-3.46 3.49-5.73 4.59-3.08 1.49-6 1.65-9-.28-2.51-1.58-5.34-2.62-7.93-4.09-3.88-2.19-7.26-.21-8.78 2.86-2.43 4.9-6.92 7.66-10.68 11.2-1.17 1.1-2.57.84-3.89.33a50.83 50.83 0 0 1-7.64-3.76c-4.38-2.6-5.61-3-9.16.55-1.09 1.08-2.53 1.76-3.14 3.38a1.72 1.72 0 0 1-2.25.74c-.93-.54-2.13-1-1.78-2.61a7.77 7.77 0 0 1 3-4.42c1.4-1.14 3-2.09 4.46-3.12a6.53 6.53 0 0 1 7.2-.38c.41.22.9.79 1.34.3s-.24-.87-.42-1.31c-2.37-5.78-4.6-11.62-7.12-17.34-2-4.59-4.37-9-6.57-13.54-.26-.52-.47-1.15-1.15-1.18-.86 0-.63.82-.91 1.26-2.23 3.47-4.52 6.91-6.7 10.41-3.38 5.43-7.49 10.32-11.35 15.39a55.3 55.3 0 0 1-7.17 7.59c-.49.44-.94.62-.41 1.33 2.88 3.82 5 8.16 8.25 11.72a17.84 17.84 0 0 1 2.68 4.23c2.38 4.83 6 8.89 8.38 13.76.93 1.92 2 4.24 4.23 5.34 2.74 1.35 2.86 4.37 4.26 6.57.26.41.28 1.06.88 1.14.75.11.92-.58 1.22-1.06a12.31 12.31 0 0 1 13.42-5.89 8.37 8.37 0 0 0 3.22 0c.79-.14 1.61-.24 2.15.61a2.07 2.07 0 0 1-.29 2.43 5.83 5.83 0 0 1-5.53 2.27c-4.33-.89-6.56.22-9.1 3.89a23.1 23.1 0 0 1-5 5.89c-3.95 2.94-7.22 2-11.09-.31s-7.52-5.44-11.39-8a6.94 6.94 0 0 0-8.42.77c-2.68 2.37-3.85 5.54-4.55 8.93-.37 1.78-1.53 2.68-3.14 2.33a2.72 2.72 0 0 1-2-3.55c1.56-3.92 3.1-7.93 6.09-11 2.67-2.76 6.33-2.78 9.88-2.91.71 0 1.71.9 2.09-.22.27-.81-.4-1.7-1-2.3a63.53 63.53 0 0 1-9.94-13.48c-2.18-4.22-5.35-7.75-8.23-11.47-1-1.31-1.89-.13-2.8.37-5.8 3.22-10.92 7.55-16.93 10.45-6.54 3.16-13.41 5.38-20.26 7.68-7.48 2.51-14.93 5.09-22.47 7.4-6.72 2.06-13.58 3.64-20.29 5.71a155.88 155.88 0 0 1-15.42 4.27c-8.46 1.68-17 1.5-25.53 1s-16.88-1.32-25.37-1.36c-9.46 0-18.48-2.46-27.14-6.27-5.54-2.44-11.23-4.49-16.94-6.5-7.33-2.58-14.71-5.11-21.78-8.3-8.05-3.63-16.1-7.35-23.53-12.28a98.34 98.34 0 0 1-10-7.65 2.44 2.44 0 0 0-2.19-.6c-2.05.33-2.34-.15-1.51-2.25l.26.68c-.05.43-.12.89.34 1.15.1.05.46-.12.5-.25.23-.79-.45-.72-.89-.87l-.26-.68c-1.12-2.38-3.21-3.93-5-5.7-6.52-6.41-13.38-12.5-18.69-20a57.81 57.81 0 0 1-5.39-9.61c-2.3-5.11-5.32-9.82-8.07-14.68-3.43-6.06-7.44-11.79-10.08-18.28a12.05 12.05 0 0 1-.89-3.79c-.61-8.88-1.36-17.75-3.26-26.46a76.68 76.68 0 0 0-2.79-8.69c-1.81-5.19-2.23-10.54-2.45-16a65.81 65.81 0 0 1 .19-10.84c1.1-8.86 2.24-17.7 3.76-26.5 1.58-9.15 3.3-18.28 4.56-27.49a183.26 183.26 0 0 1 5-25.61 41.68 41.68 0 0 1 5.26-12.08c.26-.38.85-.8.36-1.29s-.8.09-1.18.27L164 286c-9.7 4.69-19.77 5.29-30.12 2.69a6.15 6.15 0 0 1-3.61-2.64 45.58 45.58 0 0 1-4.64-9.84 17.77 17.77 0 0 1 2.13-16.77c2.47-3.72 3.6-8.26 7.16-11.36 1.45-1.27 3.2-2 4.74-3.07a1.88 1.88 0 0 1 2.71 1 2.15 2.15 0 0 1-1.3 3.17 12.73 12.73 0 0 0-6.36 5.39 5.51 5.51 0 0 0-1 2.13 7 7 0 0 1-1.63 3.73c-4 5.14-3.67 10.64-1.29 16.24a31.31 31.31 0 0 0 2.31 4.9 6.8 6.8 0 0 0 5.42 3.16c7.14.78 14.22.54 21.1-1.77a18.57 18.57 0 0 0 4.3-2.09 33.29 33.29 0 0 1 9.27-4.27c3.33-1 4.86-3.72 6.72-6.17.48-.64.73-1.59 1.63-1.6 3 0 2.58-2.64 3.33-4.36.22-.51-.11-.82-.61-.92-3.1-.59-6-.53-8.45 1.92-1.92 1.93-3.8 3.92-6.9 4a7.14 7.14 0 0 0-3.83 1.48c-3.65 2.59-7.86 4.06-11.8 6.08-2.66 1.36-5.75 1.42-8.71 1.71a1.27 1.27 0 0 1-1.14-.49c-1.37-1.48-2.85-2.87-4.14-4.42-2-2.43-1.91-5.12-.86-8a83.5 83.5 0 0 1 7.75-16c1.13-1.77 2-3.61 3.68-5a20.61 20.61 0 0 1 3.8-2c1.9-1.06 3.23-2.95 5.43-3.52 1.24-.33 2.58-.71 3.34.61s-.07 2.59-1 3.47a23.61 23.61 0 0 1-3.77 2.92c-8.32 4.83-11.77 12.86-14.37 21.44-1 3.22 2.12 6.2 5.42 5.5 5.87-1.25 11.01-4.25 16.19-7.25a4.49 4.49 0 0 1 2.19-.86 9.38 9.38 0 0 0 6.55-3 18.67 18.67 0 0 1 5.35-3.24c.74-.35 1.36-.46.69-1.49-3.37-5.22-5-11.24-7.75-16.76-1.19-2.41-2.48-4.79-3.58-7.24-.54-1.21-1.14-1.32-2.15-.69-7.29 4.57-15.8 5.61-23.77 8.19-9.43 3.09-19.43 3.77-29.24 5.03-1.59.2-3 .87-4.66 1-3.79.38-6.45-4-5.9-7.11.82-4.65 3.35-8.09 6.25-11.44a9.55 9.55 0 0 0 1.93-4.77 11.54 11.54 0 0 1 7.48-8.48 19.05 19.05 0 0 0 8-5.45 8.48 8.48 0 0 1 2.28-1.67c3.86-2.29 7.36-5.15 11.37-7.2a2.11 2.11 0 0 1 3.09 2.74 5.15 5.15 0 0 1-2.55 2.56 43.46 43.46 0 0 0-12.89 8.59 15.9 15.9 0 0 1-5.84 3.69c-1.13.38-2 .9-1.83 2.28.09 1-.64 1.49-1.27 2.13-3.69 3.79-7.53 7.48-10.15 12.16a7.4 7.4 0 0 0-1 2.18c-.26 1.47-.83 3.14.43 4.35 1.09 1 2.48.21 3.75 0a55.63 55.63 0 0 1 6-.74c4.23-.12 8.24-1.45 12.39-2 9.79-1.33 18.92-5.16 28.39-7.7 2.87-.77 5.43-2.7 8.11-4.14a4.79 4.79 0 0 0 1.28-1.13c.5-.59 1.35-1.36.83-2s-1.47-.08-2.2.25c-.07 0-.12.1-.19.1-5.37.45-9.59 3.9-14.49 5.52s-10.26 2-15.48 2.07c-2.88 0-5.58.84-8.37 1.23-1.53.21-3.47 1.28-4.39-.47-1.15-2.18-3.57-4.43-1.76-7.19 2.71-4.13 5.3-8.31 10.74-9.8a17 17 0 0 0 8.74-5.5 6.07 6.07 0 0 1 2.2-1.76c3.2-1.44 5.89-3.69 8.87-5.47 1.38-.82 2.72-1.74 4 0 1 1.29.32 3.27-1.34 4.27q-4 2.41-8.1 4.71a8.55 8.55 0 0 0-3.06 2.35c-2.59 3.69-6.86 4.46-10.68 5.89-3.31 1.24-5 3.81-6.56 6.63-.48.88.06 1.59 1.09 1.63a8.18 8.18 0 0 0 2.81-.16c4.36-1.47 8.93-.84 13.38-1.35a31.75 31.75 0 0 0 13.85-4.81 6 6 0 0 1 2.35-1 37.38 37.38 0 0 0 9.6-2.68c1.77-.76 2.9.26 3.57 1.86A6.59 6.59 0 0 1 173 226c-2.09 3.29-1.11 6.17.48 8.94 2.39 4.17 4.25 8.6 6.54 12.82.17.31.39.86.56.86 3.33-.16 2.72 2.84 3.6 4.56a18.78 18.78 0 0 1 1.09 3.76c.21.81.52 1.23 1.52 1.07 1.92-.32 2.62.73 2.92 2.55a13.45 13.45 0 0 1-2.05 10.21c-2.41 3.2-4.68 7.07-8.63 8.65-3 1.22-4.39 3.66-6 6-3.49 5.23-5.29 11.15-6.6 17.22q-3.21 14.88-5.28 30c-.72 5.3-1.94 10.54-2.76 15.85-1.39 9-3 18-3.61 27.08-.46 6.56.17 13 .68 19.51a24.82 24.82 0 0 0 2.62 9.82c2.75 5.13 3.16 10.71 3.46 16.42a109 109 0 0 0 2.28 15.68c1.34 6.72 4.77 12.38 8.47 17.94 2.9 4.36 4.79 9.24 7.22 13.84 4.39 8.28 9.28 16.24 15.7 23.1 4.09 4.37 8.63 8.33 12.86 12.59a118 118 0 0 0 10.73 9.75 82 82 0 0 0 11.45 7.42 150.74 150.74 0 0 0 18.5 8.75q13.46 5.13 27 10.09c5.45 2 10.76 4.36 16.22 6.37a62.35 62.35 0 0 0 16.41 3.15c10 .86 20 1.32 30.07 1.94a89.31 89.31 0 0 0 26.36-1.89c6.54-1.56 12.91-3.82 19.37-5.74 7.87-2.34 15.84-4.4 23.61-7 5.11-1.75 10.28-3.39 15.34-5.34s10.27-3.65 15.15-6.09c6.35-3.17 12.08-7.39 18-11.21 1.07-.69.47-1.46 0-2.25a58.9 58.9 0 0 0-11.85-15.69 4.32 4.32 0 0 1-1.26-1.49c-.88-2.44-2.73-2.12-4.63-1.77-.57.1-.59.59-.64 1a24.11 24.11 0 0 0-.28 3.47 2.61 2.61 0 0 1-1.43 2.68 2.31 2.31 0 0 1-2.76-.83c-2.45-3.35-5.65-6.35-5.37-11.06.09-1.6-1-2.85-1.79-4.14-.46-.73-1.11-.37-1.76-.24-4.86.94-7.42-.31-9.57-4.85-1.2-2.53-2.74-4.91-2.93-7.89-.12-1.76-2.06-2.08-3.34-2.82-4.57-2.66-9.43-4.84-13.49-8.33a80.31 80.31 0 0 0-11.32-8.48c-4.57-2.7-8.62-6.15-13.06-9.05-1.23-.81-1.87-1.25-2.25.91-.79 4.49-3.69 7.29-8.19 8.29a7 7 0 0 0-4.28 2.78 18.29 18.29 0 0 1-3.71 3.34c-1.25 1-2.36 1.72-3.73.14-.58-.67-1.32-.71-1.46.49-.07.55.05 1.42-.76 1.27-1-.18-.29-1.09-.37-1.66 0-.32.22-.68.33-1 .27-.78 0-1.16-.82-1a138.47 138.47 0 0 1-14.33 2.2 68.43 68.43 0 0 1-16-.33A73.45 73.45 0 0 1 299 454c-2.11-.78-4.08-1.91-6.14-2.83-8.68-3.93-14.75-11-21.32-17.51-7.78-7.73-11.63-17.36-14.46-27.63-1.88-6.84-4.72-13.39-6.16-20.36-.35-1.69-1.87-2-2.9-2.14-4.36-.59-7.87-3.36-12-4.38a2.17 2.17 0 0 1-1.5-2.22c.05-1.24-.61-1.62-1.57-2a41.65 41.65 0 0 0-11.71-2.17c-1-.08-1.4.58-2 1.11-2.19 1.95-3.44 1.64-4.42-1.07a1.31 1.31 0 0 0-1-1c-3.82-.63-7.51-2.35-11.52-1.24a1.94 1.94 0 0 1-2.34-.69 2.79 2.79 0 0 1-.17-3.08q3.36-6.49 6.7-13c.19-.37.73-.7.4-1.14a1.23 1.23 0 0 0-1.42-.27c-2.5.85-4.77.07-7.21-.58a24 24 0 0 0-12.26.2c-2.54.65-5 1.46-7.59 2-1.53.34-2.76-.7-4-1.42-4.88-2.78-7.39-7.31-9.43-12.33-1.43-3.52-2.46-7-1.58-10.77a7.55 7.55 0 0 1 2.23-3.66c5.25-5.25 11.78-8.18 18.74-10.08a18.53 18.53 0 0 1 11.58.8c2.69 1.07 4.78.32 6.75-1 3.14-2 6.53-3.75 9.22-6.48.84-.85 1.11-1.2 0-2.13-7.43-6.17-13.38-13.67-18.7-21.65-1.36-2-2.64-4.16-3.89-6.28-.67-1.13-1.23-1.29-2.12-.28-5.11 5.78-10.77 11.07-15.28 17.38a10.34 10.34 0 0 0-1.69 2.24 1 1 0 0 1-1.2.68c-.59-.21-.57-.88-.43-1.31a13.75 13.75 0 0 1 2.06-3.55 41.36 41.36 0 0 0 3.64-5.38c1.18-2.5 3.11-4.38 4.93-6.27 2.95-3.08 5.39-6.57 8.2-9.67 3.53-3.91 6.49-8.27 10.13-12.06 1.79-1.87 1.63-2.22-.86-3.2-1.07-.42-2.18-.6-2.91-1.74-1.64-2.59-1.57-3.26.69-5.34 3.18-2.93 6-6.22 10.22-7.94a35.43 35.43 0 0 0 10.61-7.08 4.87 4.87 0 0 0 1.65-4.1 7.9 7.9 0 0 1 .57-4.49c1.27-2.26.18-3.86-1.29-5.42-2.45-2.59-5.77-4.16-8.06-6.94-.57-.7-1.24-.3-1.74.09a11.87 11.87 0 0 1-4.3 2.06c-2.4.64-4.27 2.17-6.15 3.6-2.67 2.05-5.9 3-8.66 4.93-2.15 1.48-4.2-.06-4-2.72a5.71 5.71 0 0 0-.22-2.36c-1.43-4.06.63-7.17 2.67-10.29a5.1 5.1 0 0 1 2.73-2.07 18.1 18.1 0 0 0 5.39-2.83 23.52 23.52 0 0 1 5.32-2.9c2-.84 3.3-2.66 4.44-4.37a21.66 21.66 0 0 0 2.85-7.06c.43-1.8-1.31-4.94-3-5.88a29.87 29.87 0 0 0-8.27-2.72c-2.55-.54-4.59 1.14-6.75 2.09s-4 2.08-6 3.13a3.91 3.91 0 0 1-3.3.44c-1.86-.6-3.51.5-5.11 1.33-2.19 1.14-3.88.18-4-2.3a31.26 31.26 0 0 1 1.53-11.38c.89-2.74 3.39-3.61 5.73-4.09a16.12 16.12 0 0 0 5.76-2.43 19.78 19.78 0 0 1 6.8-2.83c1.13-.25 1.88-.76 1.9-2 0-1 .42-1.67 1.55-1.67s2 .28 2.36 1.68c.62 2.79-.12 4.64-2.92 5.4-5.44 1.48-9.93 5.12-15.42 6.48-1.71.42-3.49 5.83-2.7 7.41a.77.77 0 0 0 1.07.44 4.3 4.3 0 0 0 1.71-.91 17.25 17.25 0 0 1 6.63-4.42c5.37-2.35 9.81-6.13 14.66-9.28 2.66-1.73 5.31-3.24 6.64-6.26.5-1.13.86-2.32 1.32-3.47a1.21 1.21 0 0 0-.33-1.57 21 21 0 0 0-5.86-3.75 7.55 7.55 0 0 0-5.89.33 255.11 255.11 0 0 0-23.74 12.86 21.25 21.25 0 0 0-3.12 2.36c-.5.44-1.18 1-.51 1.85a1.13 1.13 0 0 1 .25.8 2.42 2.42 0 0 1-2.27 2c-1.86.24-5.61-1.73-6-3.25a2.27 2.27 0 0 1 1.44-2.83 16.41 16.41 0 0 0 6.32-4.13 9.41 9.41 0 0 1 2.49-1.74c7.71-4 15.2-8.52 23.17-12 5.14-2.27 10-1.45 14.14 2.71 1 1 2.22 1.87 3.29 2.85s2 2.22 1.36 3.6c-1.71 3.48-2.6 7.46-5.81 10.1-1.24 1-1.15 1.71.58 1.94a25.48 25.48 0 0 0 3.18.63c2.9 0 3.42 1.73 3.9 4.18.91 4.62 2.27 9.16 3 13.82.36 2.36.59 4.76.75 7.14A4.63 4.63 0 0 1 216 201c-1.55 1.51-.54 2.39.66 3 3.57 1.78 7 3.89 10.84 5.07a3.43 3.43 0 0 1 2.17 1.67 26.89 26.89 0 0 0 4.8 5.86c1 1 1.6 2 .88 3.48a4.43 4.43 0 0 0-.18 1.71c0 1.22.42 1.22 1.26.55 6.95-5.61 15.4-8.37 23.27-12.25 4.75-2.34 9.49-4.7 14.27-7 1.4-.67.71-1.32.2-2-2.21-3-5.22-5.23-8.18-7.43-4.21-3.13-7.89-6.84-11.85-10.23a12 12 0 0 0-2.4-1.87c-3.94-1.89-7-4.94-10-7.92-5.19-5.1-10.59-9.92-16.86-13.66-3.54-2.11-6.53-5-10.42-6.67a18.72 18.72 0 0 0-3.65-1.3c-2.28-.49-3.69-2.7-4.2-4.73-.65-2.57-2.06-3.34-4.37-3.71-2.86-.45-5.61-.75-8.32.64-1.47.75-2.81.42-3.38-1.21s.87-2.31 2.08-2.7c3.38-1.09 6.89-.86 10.35-.54 1.74.16 2-.32 1.41-1.76a4.58 4.58 0 0 1-.37-1.47c0-1.26-.59-1.67-1.82-1.42a76.37 76.37 0 0 1-8 1c-3.14.3-5.55 2.26-8 3.95a24.79 24.79 0 0 0-2.31 2c-1 .86-2.2 1.39-1.07 3.25 1 1.56-.45 3-2.67 3.14-1.73.1-3.46-.21-5.21.16-4.19.89-8 3.07-12.35 3.41a22.72 22.72 0 0 0-3.39.76c-3 .72-3.88 3.25-4.79 5.72-.26.72.14 1 .86 1.16a2 2 0 0 1 1.63 1.83 9.17 9.17 0 0 0 1 4.57c.41.68-.29 1.48-.9 1.75-1.09.49-1-.68-1.06-1.15-.5-2.22-1.46-2.29-3.13-1a3.13 3.13 0 0 1-3.51.44c-1.28-.74-1.26-2.25-.94-3.35 1.13-4 2.29-7.94 5-11.24a8.77 8.77 0 0 1 5-2.87c2.47-.6 5-.92 7.45-1.64 1.82-.54 4.16-.54 4.73-3.16.07-.33.81-.69 1.26-.74 4.4-.41 7.48-3.27 10.62-5.86 3.83-3.16 7.8-5.77 13-5.48a34.79 34.79 0 0 0 9.06-1.1c.52-.11 1.11-.29 1.47 0 2 1.71 3.56.12 5.15-.78 3.47-1.95 6.18-1.3 8.82 1.53 4.62 5 8.41 10.71 13.91 14.84 1.91 1.44 3.79 2.95 5.82 4.22 5.12 3.21 9.51 7.37 14.24 11.07 4.34 3.39 8.84 6.64 12.81 10.42 5.44 5.19 11 10.32 15.81 16.1a45.62 45.62 0 0 0 5.34 4.79c.94.83 1.46.49 1.51-.64.09-1.88.15-3.77.12-5.65-.15-7.94 1.07-15.78 1.67-23.67.34-4.47.42-9 .32-13.46q-.22-9.87-.14-19.74c0-2.54-.18-5.07-.26-7.61 0-1.3-1.09-1.15-1.88-1.35-.52-.13-1-.24-1.12-.86s.16-.94.64-1.23a4.23 4.23 0 0 0 1-.8c2.47-2.79 2.46-3 .61-6.85-2.09-4.34-4.86-7.72-10.2-7.92-2.18-.08-3.73-1.5-5.09-3.06a22.35 22.35 0 0 0-3.36-3.69 1.64 1.64 0 0 1-.28-2.65 1.8 1.8 0 0 0 .22-2.52 3.87 3.87 0 0 1 0-3.78c.56-1.27.27-2.2-.94-2.66-2.84-1.08-3.23-3.76-4-6.11-.59-1.83-1.31-3.68.06-5.74.7-1.05-.42-2.64-.63-4-1-6.34-2.36-12.56-5.36-18.29-.36-.69-.27-.84.35-1.07 2.57-1 5.07-2.11 7.94-2a10.56 10.56 0 0 0 3.84-.74 10.9 10.9 0 0 1 9.07.25c3.63 1.86 7.62 2.2 11.46 3.14 1.37.34 2.68 1.88 4.06 1a12.41 12.41 0 0 0 3.9-4.54c.59-1.08 1.13-2.2 1.67-3.31.26-.54.48-1.12-.08-1.59a1.34 1.34 0 0 0-1.64 0q-2.2 1.4-4.33 2.9c-1.61 1.14-2.84.93-4.07-.69s-2.9-2.66-2.01-4.92c.26-.68-.47-.72-1-.82a35.44 35.44 0 0 0-8.41-.73c-2.26.11-3.11-.83-2.6-3a12.85 12.85 0 0 0 .66-4.69 1.84 1.84 0 0 1 2-2.09c3.33.66 6.08-1.07 9-1.83a15 15 0 0 1 7.5 0 60.54 60.54 0 0 0 7.81 1.16c4.3.47 8.51.86 11.16 5.1 2.39 3.82 6.2 6.46 8.79 10.14q.94 1.33 1.82 2.71c.47.73 1 1.49.38 2.39a2 2 0 0 1-2.33.75c-1.19-.4-1.45.14-1.36 1.15s.31 2.33-1.13 2.69a3.38 3.38 0 0 1-3.29-1.23c-1.47-1.49-3-2.94-4.45-4.44a1.7 1.7 0 0 0-2.65-.23 4.28 4.28 0 0 1-5.46.22c-.65-.41-1-.45-1.41.15-1 1.6-1.94 3.23-2.89 4.86-.45.77-.41 1.37.62 1.62 3.6.89 6.3 3.1 8.71 5.81.88 1 1.81 2 3.3.3.8-.9 2.2-.41 2.75 1a8.17 8.17 0 0 1-.08 6.3c-.25.62-.3 1.26-.54 1.86-.69 1.73-.56 2.56 1.65 1.84 1.69-.56 2.67.71 3.58 1.88 2 2.52 2.23 5.55 2.81 8.55.5 2.6-1 4.28-2.23 6-.71.94-.69 1.42-.13 2.21.92 1.31 1.59 2.77 2.38 4.14 1 1.74.13 2.6-1.29 2.85a4.79 4.79 0 0 0-4 3.13c-.48 1.18-1.73 1.75-2.76 2.4s-.64 1 .06 1.37a18.22 18.22 0 0 0 3.43 1.27 3.94 3.94 0 0 1 2.84 2.7c.47 1.24-.85 1.66-1.56 2.32a15.91 15.91 0 0 0-1.37 1.4c-2.25 2.65-3.43 3.05-6.62 1.8-1.66-.65-2.4-.35-2.65 1.45a10 10 0 0 1-.94 3.34c-.89 1.64.74 2.66.72 4.12-.07 5.34 0 10.63-1.5 15.89a38.23 38.23 0 0 0-1.06 9.49c-.06 3.49-.38 6.95-.63 10.41-.45 6.43-.68 12.89-1.44 19.28a54.65 54.65 0 0 0 0 14.76c.16 1.07.62 1.49 1.55 1.27 6.59-1.51 13.4-1.22 20-2.42.19 0 .46 0 .44-.27 0-.11-.16-.22-.24-.33.69-.06 1.61-1.12 1.9.52.08.44.72.43 1.15.44 3.55.09 7.05.69 10.59 1 7.91.64 15.92.25 23.71 2a118.29 118.29 0 0 1 16.63 5.19c5.75 2.21 11.4 4.68 17 7.17 5.17 2.29 10.49 4.28 15.79 6.27a71.91 71.91 0 0 1 13.54 7.41c3.65 2.36 7.45 4.51 11.06 6.95 4.49 3 8.76 6.41 13.28 9.39 7.06 4.65 11.45 11.54 16.12 18.28a175.43 175.43 0 0 0 12.16 16.19 118.76 118.76 0 0 1 19.39 31c3 6.83 6.7 13.34 8.81 20.57 1.89 6.47 3.18 13.09 5 19.56 1.64 5.72 3.34 11.43 4.47 17.27a126.53 126.53 0 0 1 2.08 28.79c-.23 6.47-1.9 12.74-2.51 19.14-.58 6.1-2.31 12-3.21 18-.76 5.06-2.62 10-4.05 14.93-1.29 4.47-2.65 8.93-4 13.38a3.18 3.18 0 0 0 .12 2.49c2.73 5.85 5.27 11.79 8.08 17.6 1.33 2.74 2.49 5.58 3.93 8.23 1.1 2 1.77 4.13 2.7 6.15 2.07 4.5 3.07 9.37 5.19 13.84a2.54 2.54 0 0 1-1.31 3.3c-1.35.76-2.44 0-3.21-1a8.47 8.47 0 0 1-1.44-2.92c-1.9-7.46-6-14-8.56-21.22-.31-.87-1-1.62-.77-2.65l-.07-.09zM295.46 305.34a3 3 0 0 0-2.45-.45c-3.73.18-7.25 1.38-10.86 2.17-.74.16-2.3-.09-2.17.85.18 1.19 1.57.38 2.43.47.43 0 .86.09 1.3.12 4.3.3 8.38-.22 11.79-3.18l-.06-.14zm-85.38-121.07l-.07.09c.22-2-.78-3.87-.82-5.87 0-1.59-1.11-2.13-2.51-2.49-2.23-.57-4.44 0-6.65-.06a2.45 2.45 0 0 0-2.25 2c-.21.91 1.19.59 1.85.89a3.38 3.38 0 0 0 .62.21 22.56 22.56 0 0 1 9.83 5.23zm105.9-88l-.05-.06h.13c-.44.15-.92.67-1.29-.05a1.12 1.12 0 0 1-.07-1.24c.33-.4.84-.73 1.33-.35 1.4 1.08 2.4.18 3.42-.62.64-.5 1.84-.63 1.63-1.75a2.87 2.87 0 0 0-2-2.1c-1.37-.49-2.77-.9-4.09-1.5a3.37 3.37 0 0 0-3.44.39 16.8 16.8 0 0 1-7.69 2.8c-1.05.06-1.91.38-1.09 1.77.37.63 0 1.22-.5 1.75s-1.19.78-.69 1.38 1.25.09 1.76-.26c1.62-1.1 3.15-.75 4.69.15 1.25.74 2.46 1.53 3.75 2.19 1.76.91 3.24.13 4.56-1 .66-.59.84-1.23-.34-1.5zm-37.72 94a13.94 13.94 0 0 0-.68-1.58c-2.27-3.91-5.85-6.63-9.07-9.62-8-7.42-17-13.53-25.56-20.29-5.5-4.37-11.63-7.92-16.93-12.59-1.38-1.22-3.26-2.11-4.16-3.6-1.38-2.29-3.28-4-4.85-6.1-1.7-2.24-3.2-3.4-5.72-1.24-.42.36-1.25.28-1.89.34a1 1 0 0 0-.93 1.4c.38 1.15.16 2.49 1.11 3.44 0 0 .35-.36.56-.52 1.72-1.31 3.53-.8 4.3 1.25.92 2.44 2.36 4.69 2.55 7.39a.92.92 0 0 0 .54.87c2.45 1 4.32 2.88 6.53 4.25 6.22 3.87 12.89 7.24 17.47 13.16 5.2 6.72 13.51 9.62 19 16a37 37 0 0 0 6.3 5.33c3.88 2.88 6.88 7.13 12.14 7.91.33 0 .58.6.9.88 1.37 1.19 2.68 2.55 4.78 1.83.53-.18 1.28-.07 1.49-.72s-.43-1-.85-1.38a23.54 23.54 0 0 1-4.86-5.25 2.11 2.11 0 0 0-2.15-1.21zm-87.45 155.14h-.07c.67-.31 1.28 0 1.9.18.07.23.07.56.23.65s.45-.09.58-.32c2.22.88 4.71.49 6.93 1.49a4.81 4.81 0 0 0 4.78-.23 1.92 1.92 0 0 1 2.94.77c.65 1.2 1.55 1.15 2.24-.13 1.21-2.24 2.49-4.44 3.63-6.72.44-.88.25-2.43.88-2.81 2.43-1.46 3.29-4 4.73-6.14 2.91-4.27 6.69-7.88 9.21-12.44.59-1.08.75-1.75-.4-2.51-3.5-2.32-7.39-4-10.75-6.56-.46-.35-.62 0-1 .35-1.93 2-3.67 4.11-6.07 5.67s-5.21 2.6-7.38 4.52a4.56 4.56 0 0 1-4.43 1 70.49 70.49 0 0 0-7.23-1.53 21.09 21.09 0 0 0-10.53 1.61c-3.43 1.37-6.69 2.74-9.32 5.38a7 7 0 0 1-1.61 1.11 3.6 3.6 0 0 0-2 4 23.08 23.08 0 0 0 7.7 14.42 5.39 5.39 0 0 0 5.16 1.23c2.8-.65 5.46-2.14 8.46-1.83.88.1.91-.8 1.42-1.16zm327.44 31.51c0-1.43 0-2.86-.08-4.29a88.62 88.62 0 0 0-1.69-12.63 179.81 179.81 0 0 0-4.78-18.88c-1.68-5.8-2.85-11.72-4.51-17.52-2-7-5.56-13.24-8.3-19.88v-.07.13c-.81-1.69-1.54-3.42-2.44-5.07-3.84-7.06-7.15-14.43-12.59-20.51-6.54-7.31-12-15.43-17.43-23.54a69 69 0 0 0-20.42-20.45c-5-3.17-9.89-6.6-14.86-9.86-4.74-3.11-9.34-6.53-14.69-8.51-10.86-4-21.28-9.09-32.08-13.24-6.32-2.43-12.52-5.18-19.26-6.31a108.38 108.38 0 0 0-13.64-1.38c-9-.36-18-2-27.11-1.2a116.54 116.54 0 0 0-15.11 1.91c-1.26.28-1.68.65-1.66 2.15.08 4.84 2 9 4.22 13.09 1.35 2.47.44 4.08-2.42 4.11a4.36 4.36 0 0 0-4 2.06c-1.3 2-3.09 1.83-4.05-.3-.43-1-1-1.78-2.07-1.56-2.66.56-5.67.36-7.32 3.34a3.14 3.14 0 0 1-3.42 1.86c-1.4-.33-1.45-1.8-1.92-2.94-.94-2.32-.91-5.34-4.05-6.23a7.83 7.83 0 0 1-3.85-3.07c-2-2.5-2-2.39-4.84-1q-10.48 5.13-21.05 10.06c-5.21 2.44-10.43 4.86-14.88 8.58-1.5 1.25-3.18 2.38-3.19 4.88 0 4.35-2.35 7.41-6.21 9.32a9 9 0 0 0-3.7 3 17.93 17.93 0 0 1-4.65 4.55 26.52 26.52 0 0 0-5.85 5.46 9.24 9.24 0 0 1-5.91 3.36 6.58 6.58 0 0 0-3.9 1.8c-3.84 4.45-7.55 9-11.37 13.46a3.08 3.08 0 0 0-.23 4.1c3.92 6.51 8 12.92 13.16 18.51a68.56 68.56 0 0 0 8.11 8.08c5.18 4 11 7 16.68 10.18 2.33 1.3 2.85-.5 3.82-1.82 1.18-1.6-.06-2.19-1.1-2.83a76.55 76.55 0 0 1-10.76-7.42c-2.44-2.14-4.53-4.7-7-6.81a76.43 76.43 0 0 1-16.28-19.43 12.27 12.27 0 0 1-1.33-6.51c0-.82.27-1.64 1.27-1.78a2 2 0 0 1 2.29.84c.45.83.85 1.69 1.22 2.56a26.37 26.37 0 0 0 2.7 5c3.77 5.25 7.56 10.41 12.54 14.67 3.46 3 6.4 6.52 10.1 9.23 1.23.9 2.05 1 2.33-.87.38-2.59.55-5.29 1.48-7.69 2.38-6.13 1-12.3.7-18.46-.21-4.67-2-9.22-.84-14 .73-3.08.48-6.61 3.4-8.61a17.88 17.88 0 0 0 3.95-4.07 8.61 8.61 0 0 1 13.88.49c2 2.77 4.22 5.37 6.18 8.16 1 1.44 2.78 2.62 2.53 4.66a23.21 23.21 0 0 0 1.5 11.1c.24.66.17 1.75.91 1.82s1.14-1 1.55-1.61a39 39 0 0 1 5.5-7.25c3.48-3.29 6-7.38 9.14-10.93 1.09-1.23 2.36-1.48 3.52-.27 4.8 5 9.62 10 14.84 14.63 1.18 1 1.75 1.54 2.68-.09a3.91 3.91 0 0 1 1.59-1.12 2.11 2.11 0 0 1 2.59.38c.89.74.22 1.31 0 1.91-.38 1-.83 2-1.28 3-.29.63-.56 1.43.12 1.77 1.62.8 2.45 2.43 3.88 3.41a48.26 48.26 0 0 1 8.93 7.86 65.29 65.29 0 0 0 14.53 12c1.3.81 2.49 2.27 4.23 2.05 9-1.12 17.8-.16 26.59 1.54a31.5 31.5 0 0 1 6.31 1.6c3.34 1.42 6.47 3.33 9.79 4.8a83.26 83.26 0 0 1 15.08 9c5.62 4.08 9.46 9.79 13 15.65 2.2 3.65 5.2 6.81 6.79 10.79a101 101 0 0 1 5.24 17.12 4.47 4.47 0 0 1-.23 2.34c-.38 1.19-1 1.76-2.26 1.34-1.07-.36-2.08-.8-1.6-2.31a3.4 3.4 0 0 0 .16-1.72c-1.27-5.22-2.34-10.55-4.85-15.34a110.41 110.41 0 0 0-7.53-11.64c-4.41-6.35-8.82-12.66-16-16.31-8.24-4.21-15.83-9.73-25.26-11.46-6.11-1.12-12.17-2-18.38-1.68-.58 0-1.33-.11-1.47.6s.61.93 1.1 1.19c4.58 2.48 8 6.47 12.48 9.2 3.5 2.15 6.83 4.71 10.35 6.8 4.58 2.71 8.19 6.57 12.61 9.46 3.91 2.55 7.4 5.75 11.11 8.61 2.7 2.08 5.82 3.53 8.5 5.67 1.59 1.27 2.21 2.59 1.21 4.49-.47.9-.72 1.92-1.23 2.8-.93 1.62-.37 2.62 1 3.62 2.72 1.92 5.33 4 8 6 5.41 4 10.73 8.16 16.29 12 4.06 2.78 8.34 5.24 12.33 8.14 3.57 2.6 7.06 5.31 10.68 7.84 2.43 1.7 5.23 2.92 7.52 4.78 5.56 4.52 12.25 7.16 18.07 11.22 1.35.94 2.56 1.92 2.72 3.66s1 1.74 2.21 1.06a16 16 0 0 1 4.22-1.71c3.49-.82 7 .9 7.36 3.61a17.8 17.8 0 0 1 .27 3.46c-.13 2.07.93 2.76 2.72 2.4 1.06-.21 1.83 0 2.14.92.66 2 1.74 3.83 1.57 6.06a10.29 10.29 0 0 0 .61 4.3c2.41 6.57 5.86 12.64 9.14 18.79.17.32.35.73.77.6.2-.06.34-.43.44-.69a157.54 157.54 0 0 0 6.05-19.81c1.61-7.21 2.85-14.5 4.27-21.76 1.71-8.77 2.75-17.59 2.07-26.53a.63.63 0 0 0 .13.15.52.52 0 0 0 .19 0zM234 360.45c-1.81 2.12-1.72 4.28 1 6.27a2.39 2.39 0 0 1 .89 2.52c-.62 1.43.24 1.79 1.16 2.3.76.42 1.45 1 2.24 1.34 3.9 1.74 7.09 4.83 11.41 5.85a17.51 17.51 0 0 1 6.42 2.64c3.86 2.91 8.48 4.41 12.4 7.14.46.32 1 .81 1.58.42s.15-1.1 0-1.61a30.46 30.46 0 0 1-1.43-6.16c-.2-1.22.59-3.27-.33-3.54-1.25-.37-2 1.55-2.91 2.53s-2.12 1.57-3.22.82-1.92-2-1.1-3.41c1-1.82 1.26-3.86 1.92-5.78.46-1.33.06-1.64-1.11-1.86-2.64-.5-5.34-.1-8-.91a2.54 2.54 0 0 1-1.92-2.91 2.08 2.08 0 0 1 2.39-2 29.27 29.27 0 0 1 4.47.75c3.27.71 6.6-.64 9.93 0 .7.13.93-.58 1.11-1.14a14.19 14.19 0 0 0 .77-2.5c.42-3.26 2.32-5.36 5.08-6.91 1.46-.82 2.8-.68 3.66.57.75 1.08.15 2.17-.91 3a9.31 9.31 0 0 0-2.86 3.77c-.39.93-.22 1.31.85 1.39a18.17 18.17 0 0 1 8.38 2.88c1.11.69 2.35 1.34 1.88 2.79s-2.06 1.84-3.46 1.72c-1.72-.15-3.41-.63-5.11-.95-.62-.11-1.41-.73-1.82-.17s.49 1.15.88 1.52c3 2.88 3.6 7.08 5.84 10.37a3.39 3.39 0 0 1 .27 1.05 2.05 2.05 0 0 1-1.27 2.49 1.76 1.76 0 0 1-2.54-.94 40.22 40.22 0 0 1-2-4.35c-.63-1.8-1.94-3.06-3.07-4.47-.27-.33-.62-.69-1.1-.56s-.44.7-.39 1.1c.52 4 .26 8.16 2.16 11.87.67 1.32 1.13 2.47.44 3.87-.39.78.16 1.07.7 1.54 1.72 1.49 3.77 2.45 5.57 3.79 4.17 3.09 8.16 6.46 12.51 9.27 6.16 4 11.94 8.46 18.19 12.34 6.71 4.16 13.63 8 20.23 12.36 4.47 3 5.37 2.42 7.31-2.75.87-2.32.6-5.33 3.66-6.43.17-.06.3-.32.38-.52 1.44-3.71 4.23-6.6 6.1-10.05a19.49 19.49 0 0 1 6.4-7 30.35 30.35 0 0 0 4.25-3.89 2.06 2.06 0 0 0 .51-2.36 87.91 87.91 0 0 0-5.88-14c-2.58-5.27-6.54-9.7-8.85-15.15a75 75 0 0 0-4.63-8.38 2.6 2.6 0 0 1 .22-3.41c.83-.75 1.89-.66 3.06.24a21.15 21.15 0 0 0 5.59 2.9 21 21 0 0 1 4.74 2.16c6.59 4.6 13.1 9.3 21 11.55 1.24.35 2.49 1.92 3.71.76 1-.94 1.36-2.53 2-3.84a1.32 1.32 0 0 0-.2-1.45c-2.51-2.89-4.17-6.28-5.9-9.65-.64-1.25-1.29-.76-1.85.22s-.15 2.14-.1 3.21a1.74 1.74 0 0 1-1.07 1.93 1.87 1.87 0 0 1-1.87 0c-1.13-.75-2.42-4-1.89-5.29a16.27 16.27 0 0 0 .68-9.38c-.37-2.07 1.53-3.54 3.25-2.42a29.36 29.36 0 0 0 6.19 2.89 2.44 2.44 0 0 1 1.58 2.63c-.12 1.06-.25 2.07-1.69 2.07-.85 0-.95.5-.61 1.17a45.13 45.13 0 0 0 4.74 7.8c.26.33.67 1 1.14.12 1.32-2.45 3-4.67 3.79-7.43 1-3.41 3.64-6.1 4.47-9.68.39-1.67.12-2.61-1.36-3.34-3.87-1.9-7.05-4.77-10.24-7.56-4.06-3.54-8.19-7-12.55-10.12-4.7-3.41-9.56-6.6-14.46-9.73-6.71-4.29-12.73-9.57-19.37-14a4.42 4.42 0 0 0-4.44-.67 21.34 21.34 0 0 0-2.45.93c-1.43.76-2.75 1-3.88-.46s-.37-2.74.7-3.84 1.1-2.15-.38-3.13a66.81 66.81 0 0 1-13-11.76 50.53 50.53 0 0 0-9.34-8.13c-.9-.62-1.38-.78-2.27.26-2.64 3.1-5 6.42-7.37 9.68-1.39 1.88-1.32 3.22.74 4.4 1.29.74.93 1.54.69 2.56-.29 1.25-1.07 1.34-2.14 1.24a3.75 3.75 0 0 1-2.61-1.41c-1.15-1.35-2.11-1.38-3 .27-.13.25-.43.4-.58.64-1.23 1.91-3.9 2.91-3.53 5.84.07.58-.83 1.08-1.28 1-2.05-.34-3 1.14-4.14 2.3-.43.43-1.38.64-1 1.45s1.18.5 1.92.39c7-1 13.76-3.8 21.09-3 1.62.17 2.65.41 3.19 1.82a3.27 3.27 0 0 1-1 3.71 39.63 39.63 0 0 1-4.25 3c-2.79 2.11-5.63 3.6-9.45 3.67-5.23.1-10.27.06-15-2.37-1.63-.83-3 .19-2.77 2a5 5 0 0 0 .52 1.88 28.87 28.87 0 0 1 2.25 6.82c1.75 6.55 1 12.87-2.94 18.47-1.53 2.15-2.69 4.69-5.1 6.19a3.34 3.34 0 0 1-5.18-1.48 22.88 22.88 0 0 1-1.66-5.62 82.24 82.24 0 0 1-1.15-12.57c0-.48.21-1.18-.3-1.4s-1 .4-1.38.81c-2.66 2.82-4.52 6.21-6.62 9.42-1 1.46-2.24 2.67-2.92 4.33-.28.68-.82 1.12.43 1.25a1.27 1.27 0 0 1 1 2c-.49 1-1.38.81-2.16.08-1.08-1-1.72-.38-2.05.69-.28.9-.36 1.84-1.36 2.35a7.67 7.67 0 0 0-2.86 3.2c-2.21 3.33-3.45 7.15-5 11.27zm262.7 108.77c.39-1 .91-2.11.32-3.11a72.86 72.86 0 0 1-5.94-13.5 69 69 0 0 0-6.6-13 2.72 2.72 0 0 0-3.07-1.58 11.75 11.75 0 0 1-12.93-9.84 6.21 6.21 0 0 0-2.92-4.58 53.48 53.48 0 0 1-5.49-3.89c-2.82-2.41-6-4.27-9-6.42-4.12-3-8.58-5.47-12.6-8.56-7.86-6-16.49-10.87-24.78-16.22-.73-.47-1.27-.85-1.82.37-2 4.34-3.63 8.8-5.8 13.08s-3.92 8.7-6.28 12.89c-3.17 5.61-6 11.43-10.73 16-1.3 1.24-.73 2.19.59 3.15 5.23 3.79 11.39 6.05 16.4 10.21 2.73 2.27 6.1 3.68 8.94 5.77 3 2.21 5.82 4.57 9.4 5.77a1.57 1.57 0 0 1 1.2 1.42c-.13 2.81 1.62 2.22 3.28 2a7.34 7.34 0 0 1 2.8-.21c1.54.39 3.71-.33 4.48 1.55.69 1.67 1.49 3.55.34 5.44-.3.49-.65 1.15.36 1.28 3.35.44 5.72 3 8.91 4 1.08.32 2.66.72 3.37 1.79 1.84 2.76 4.27 5.06 5.69 8.18 1.75 3.86 2.46 8.28 5.72 11.39s4.72 7.3 7.48 10.68c1.26 1.55 2.26 1.59 3.53.35s2.41-2.6 3.69-3.83c3-2.92 5.27-6.47 8-9.66a100 100 0 0 0 7-10.06c2.19-3.6 5.16-6.71 6.46-10.86zm-196.49-19.16a23.2 23.2 0 0 0 2.49 1.15c.75.24 1.59.23 2.35.46a64.43 64.43 0 0 0 26.77 2.71 86.31 86.31 0 0 0 14.64-2.83c1.43-.43 2.65-.89 2.15-2.82a1.36 1.36 0 0 1 .74-1.66c.69-.26 1.25.24 1.73.68s.61.82 1 1.15c1 .89 1.95 1.44 3.1 0a5.13 5.13 0 0 1 3.94-1.59 7.52 7.52 0 0 0 4.64-2.18c3.1-2.73 2.69-5.11-.85-7-1.86-1-3.72-2-5.54-3-3.67-2.16-7.26-4.51-11.26-6.07-.68-.26-1.15-.28-1.28.55-.42 2.67-2.23 4.71-3.19 7.13-.59 1.49-2.82 2.6-3.71 1.71-2.14-2.14-5.35-2.32-7.44-4.62-2.61-2.87-6.56-3.78-9.73-5.93-6.11-4.14-12.85-7.32-18.57-12.09-2.84-2.37-6.31-3.81-9.12-6.3a125.71 125.71 0 0 0-10.19-7.77c-4.56-3.29-9.77-5.43-14.4-8.58a70.84 70.84 0 0 0-11.18-5.75c-.61-.27-1.41-.84-2-.22s0 1.24.19 1.85c.57 2 1.08 4.07 1.74 6.06 1.48 4.48 3.56 8.78 4.46 13.42 1.14 5.92 4.21 10.89 7.17 16 1.93 3.29 4.79 5.81 7.28 8.61s5.21 5.93 8.39 8c5.08 3.41 10.16 6.95 15.68 8.93zm107.31-63.18c1.76-2 .28-3.18-1.33-4.42-1.84-1.41-3.59-2.93-5.33-4.47-3.27-2.88-6.29-6-9.83-8.61-.58-.42-1.27-1.14-1.81-.15-1.57 2.84-3.45 5.55-4.28 8.75-.57 2.21-1.85 3-4 2.23a33.74 33.74 0 0 1-4-1.82c-4-2.12-8.37-3.25-12.22-5.76a103.45 103.45 0 0 0-12.54-7.43c-.47-.22-1.05-.84-1.56-.3s.18 1 .4 1.53c2.91 6.67 7.66 12.29 10.67 18.93a70.54 70.54 0 0 1 5.31 14.27 2.12 2.12 0 0 1-.89 2.49c-3.23 2-5.48 5.12-8.5 7.36-.87.64-1.08 1.25.06 2 1.64 1.05 3.14 2.32 4.76 3.4 6.46 4.28 12.66 8.91 18.88 13.52 1.18.87 2 .82 3.22-.18 6-5.11 8.92-12.39 13.13-18.76 1.9-2.87 2.89-6.16 4.19-9.31 1.78-4.43 4.32-8.51 5.66-13.27zm75.56 30.39c1.31-2.14.6-4.29.66-6.35a1.74 1.74 0 0 0-1.61-1.55c-1.65-.24-5.19 1.87-5.84 3.59a2.49 2.49 0 0 1-4.77-.36 11 11 0 0 0-3.25-5.31 50.22 50.22 0 0 0-8.95-6.52 204.66 204.66 0 0 1-17.64-12c-3.64-2.85-7.41-5.56-11.27-8.1-4.36-2.87-8.67-5.84-13-8.72-6.34-4.18-12.27-9-18.41-13.5-4.08-3-5.22-2.54-6.62 2.35-.06.21-.07.44-.14.64a2.88 2.88 0 0 0 1.06 3.61c2.31 1.85 4.47 3.89 6.67 5.87 2.64 2.37 5.23 4.8 7.88 7.15.89.79 1.78 1.17 2.65-.25.44-.73 1.19-1.73 2.27-1.31s1 1.66 1.15 2.63a10.29 10.29 0 0 1-.27 1.94 2.14 2.14 0 0 0 .67 2.18 38.5 38.5 0 0 0 4.79 3.38 115.12 115.12 0 0 1 17.86 11.58c4.12 3.12 8.6 5.64 12.8 8.61 3.59 2.54 7.26 5 10.81 7.58 3.14 2.32 5.56 5.62 9.52 6.94 1.54.51 3.22 1.83 2.76 3.86a6.31 6.31 0 0 0 4.4 7.83c.62.21 1.28.65 1.82.07s.31-1.34 0-2-1.18-1.35-.86-2.55a4.8 4.8 0 0 0-.8-4.31 2.15 2.15 0 0 1 1.4-3.53 4.72 4.72 0 0 0 4.25-3.45zM349 421.62c-.86 2-.39 3.08 1.59 4.07 6.14 3.08 11.84 6.95 17.88 10.24a46.92 46.92 0 0 1 10.87 7.5c2.1 2.09 4.74 3.54 7.18 5.22s5.54 2.62 7.49 4.74c5.72 6.22 13.27 9.43 20.49 13.17 3.4 1.76 4 2.25 3.27 6-.57 3.06 1.1 5.13 2.85 7.12 1 1.14 2.62.41 2.73-1.14.17-2.38.33-4.75-.63-7.08-.85-2.07-.1-3.44 2-3.4 2.65.05 4.3-1.54 6.16-2.93.42-.32.94-.55.72-1.17s-.9-.61-1.49-.5c-1.5.27-3 .62-4.49.82-2.14.28-3.22-.52-3.57-2.71a2.23 2.23 0 0 0-1.7-2 5.72 5.72 0 0 1-1.8-.74c-6.75-5.25-14-9.79-21-14.66a59 59 0 0 0-10.62-6.3 12.27 12.27 0 0 1-5.46-3.94 10.44 10.44 0 0 0-2.22-2.05c-7.84-5.74-16-11-24.06-16.44-.66-.45-1.12-.4-1.49.06-1.63 2-3.16 4.07-4.7 6.12zM238.21 303.75c.69.19 1.19 1.39 2.06.61 2.5-2.22 5.68-4 5.82-7.91a1.89 1.89 0 0 1 1.17-1.88 3.89 3.89 0 0 0 1.95-2c3-5.87 8-10.16 12-15.26a2.18 2.18 0 0 0 .1-2.82c-3.11-4.52-3.66-9.66-3.75-14.93 0-1 .2-2-.55-2.9-2.62-3.19-5.12-6.47-7.76-9.65a4.13 4.13 0 0 0-6.19.1 11.57 11.57 0 0 1-2 2.33c-4 2.68-4.65 6.73-4.84 11-.21 5 1.18 9.75 1.41 14.67.17 3.68 1 7.41.15 11a115.2 115.2 0 0 0-2.27 12.89c-.29 2.29.13 4.13 2.7 4.75zm60.59-195.86c-1.48-.79-1.86 0-1.9 1a6.36 6.36 0 0 0 .53 1.87c.14.49.37 1.07-.15 1.4s-1.07-.11-1.52-.48c-.75-.62-.5-1.65-1-2.37-.36-.51-.91-1.06-1.4-.78-.79.44 0 1 .25 1.39 1.51 2.48 3.14 4.89 4.58 7.4.88 1.52-.43 5.2-1.56 4.81-1.88-.65-1.53.72-1.56 1.44-.15 3.38-.14 6.76 0 10.16.22 6.35.08 12.71.07 19.07 0 5.71.51 11.49-.21 17.11-1 8.13-.27 16.18-.19 24.27 0 1 .44 1.28 1.36 1a25 25 0 0 1 4.17-1.26c1.73-.23 1.82-1.08 1.66-2.53a68.53 68.53 0 0 1 0-13.48c.79-9.17 1.75-18.33 2.2-27.53.23-4.78.26-9.58 1.22-14.27a49.42 49.42 0 0 0 1.45-11.4c0-1.07-.13-1.75-1.28-2.13-1.48-.48-1.78-2-.82-2.74 2.62-1.94 2.5-4.94 3.53-7.5.73-1.83.34-2.54-1.72-1.95-1.41.41-2.73-.19-4-.71a13.37 13.37 0 0 1-3.71-1.79zM290 79.76c1.67-.14 3.91 2.33 6.36.08.22-.2.69-.1 1-.17a16.72 16.72 0 0 0 5.64-1.62c3.24-1.94 6.35-4 10.23-4.51.69-.08 1.32-.51.29-1.24s-.91-1.68-.49-2.74.6-1.95.88-2.92c.14-.5.31-1.09-.23-1.38s-1 .14-1.37.46c-.68.53-1.1 1.48-2 1.61-3.84.54-7.59 2.2-11.57 1.13a29.21 29.21 0 0 0-4.51-.69c-4-.43-8-.85-11.38-3.25a4.6 4.6 0 0 0-2-.78c-4.18-.48-7.74-2.45-11.26-4.52-.4-.24-.81-.83-1.33-.41s-.08.94 0 1.41c.84 3.38 1.71 6.75 2.52 10.13.55 2.31 2.88 4.93 5.05 5.18 4.75.56 9 2.72 14.17 4.23zm-37.88 215.57c-.53 1.18-.6 1.32.06 2.28a50.72 50.72 0 0 0 11.43 11.78c.44.33.86 1 1.5.52s.24-1.06.19-1.63c-.2-2.24.33-4.28 2.68-4.93 3-.83 4.81-3 6.89-5 1.33-1.28 1.44-2-.08-3.2-3.49-2.84-6.91-5.79-10.18-8.88-2.76-2.61-2.52-2.54-5.37-.38-3.39 2.57-4.82 6.47-7.12 9.44zm-37 51.42c-1 2.26.39 5.44 2.6 7.12a55.79 55.79 0 0 1 6.62 5.62c2.39 2.51 3.39 2.52 4.72-.65 2-4.76 3.67-9.67 6.63-14 .63-.91.39-1.45-.43-1.94-3.81-2.27-6.87-5.56-10.72-7.79-1.15-.67-1.61-.34-2.32.45-3.1 3.51-4.7 7.87-7.12 11.19zM494.83 556.4a3.39 3.39 0 0 0 .86.33 4.69 4.69 0 0 0 2.81-1c.41-.25.27-.78 0-1.18-1.54-2.48-2.84-5.17-5.48-6.76a9.17 9.17 0 0 1-2.87-3.23 80.46 80.46 0 0 0-5.77-8.36c-4.22-5.18-6.76-11.51-11.11-16.63-1.86-2.2-2.76-5.09-4.94-7.08-.37-.34-.55-.8-1.22-.44-2.65 1.44-3.06 3-1.35 5.55.2.3.44.58.66.87a157.87 157.87 0 0 1 9.7 14.53c2.33 4.11 6.12 7.1 8.53 11.15a.44.44 0 0 0 .16.15c2.9 1.63 3.54 4.36 3.57 7.38 0 .61.06 1.28.7 1.46 2.21.6 3.86 2.18 5.75 3.26zm-256.3-216.95c1 .64 1.61-.12 2.05-.76 2.36-3.39 4.68-6.82 7-10.24.62-.92.67-1.72-.45-2.36-2.75-1.56-4.88-3.88-7.19-6-1.28-1.16-2.35-2.79-4-.47a2.44 2.44 0 0 1-1.62.55 1.94 1.94 0 0 0-1.69 1.18 54.15 54.15 0 0 1-5.22 7.74c-.68.92-.66 1.48.28 2.14 1.13.78 2.17 1.69 3.27 2.51q3.75 2.88 7.57 5.71zM285 287.71c.38-.69.59-1.24 0-1.86a121.34 121.34 0 0 1-8.61-10.62c-1.52-2-3.56-3.63-4.46-6.07-.14-.38 0-1-.55-1-.31 0-.6.55-.89.84-2.44 2.47-3.48 5.8-5.27 8.67a2.39 2.39 0 0 0 .34 3.15c3.94 4.57 9.07 7.86 13.16 12.25.47.5 1 .64 1.51.1 1.64-1.83 3.24-3.69 4.77-5.46zm-27.6 29.73c.36-1.74.57-3.25 1-4.7a2.14 2.14 0 0 0-.89-2.64 39.92 39.92 0 0 1-7.63-7.68c-.88-1.1-1.48-.88-2.17.13-2.09 3.06-5 5.4-7.43 8.13-.7.78-1 1.14-.31 2.13 2.77 4.13 6.66 7 10.59 9.9.31.22.7.45 1 .18 2.01-1.89 4-3.73 5.84-5.45zm-38.5-107c-1.58-.64-2.9-1.69-4.47-.51a1.09 1.09 0 0 1-1.24-.08c-1.5-1-1.3.82-1.93 1.22s-.25 1.14.36 1.57 1.27 1.14 2.05 1.58a27.79 27.79 0 0 1 8.33 7.48c.85 1.12 1.65 2.62 1 3.84-1.76 3.12-.91 6.67-2 9.86-.11.31-.31.8.11 1s.62-.2.89-.48a32.12 32.12 0 0 1 4.5-4.36c3.63-2.45 4.59-5.77 4.24-9.9a8.07 8.07 0 0 0-1.3-4.13c-2.68-3.97-6.94-5.21-10.54-7.11zm65.54-158.71c-2.16-.86-4.28-2-6.66-1.86-3.48.23-6.79 1.6-10.29 1.87-.93.07-1.35.86-.48 1.5a57.35 57.35 0 0 0 7.34 4.93c4.12 2.11 9 2.25 13 4.66a10.46 10.46 0 0 0 2.46.82c.6.17 1.23.19 1.34-.63.25-2 1.31-3.65 2.21-5.4 1.42-2.76 1.18-3.2-1.85-4.1a3.22 3.22 0 0 0-1.28-.25c-2.14.31-3.88-.92-5.79-1.54zM275 266.95a4.26 4.26 0 0 1 1 .79c2.22 2.95 4.63 5.75 6.72 8.81a72.77 72.77 0 0 0 4.79 5.88c.59.7 1.36.94 2 .09 1.22-1.53 2.4-3.08 3.59-4.64.57-.75.43-1.36-.19-2.11A104.27 104.27 0 0 0 282.5 265c-1.29-1.18-3.53-1.59-3.69-4 0-.7-.67-.25-.92.07-1 1.34-2.55 2.15-3.7 3.34-.63.65-1.8 1.21-1.55 2.18.19.72 1.27-.33 1.91.13a3.46 3.46 0 0 0 .45.23zm227.06 189.63c1.12-2.29-.23-4.73-1.14-7.24-2.18-6-5.44-11.53-8.22-17.27-.9-1.85-2-1.84-3.66-1.13s-2.31 1.56-1.77 3.33a31.39 31.39 0 0 0 3.22 6.39c3.15 5.49 5.17 11.51 7.94 17.17.37.76.47 2 1.37 2.07 1 0 1.16-1.34 1.73-2a6.85 6.85 0 0 0 .53-1.32zm-37.48 52a1 1 0 0 0-.13-1.21c-3.08-3.61-5-8-8-11.63a26.33 26.33 0 0 1-4.06-7.11c-1.27-3.07-2.51-6.19-4.79-8.74-.8-.89-1.4-2-2.75-.8-1.06.93-2.17 1.8-.6 3.28a2.87 2.87 0 0 1 .81 2 15.54 15.54 0 0 0 5.53 11.33c4.09 3.72 6.67 8.52 9.54 13.12.47.75.48 2.27 1.63 2a5.33 5.33 0 0 0 2.82-2.26zM300.67 88.43c2.91-.62 6.06-.56 8.62-2.49a5.94 5.94 0 0 1 5.94-1 17.69 17.69 0 0 0 5.11 1.06c.55 0 1.24.31 1.3-.63.22-3.23 1-6.47-.67-9.59-.72-1.36-1.54-1.81-2.67-.67a9.77 9.77 0 0 1-5.42 2.52 10.67 10.67 0 0 0-4.26 1.6 32.6 32.6 0 0 1-6.95 3.62c-1.1.45-2.14 4.44-1.4 5.34a1.52 1.52 0 0 0 .4.24zm-88.1 109.37a20.3 20.3 0 0 0-.41-4.52c-.08-.76.07-2.07-.62-2.14s-.61 1.25-.88 2c-.34.87-.51 1.81-.84 2.69-1.6 4.2-3.93 8.09-7.89 10.2-2.26 1.21-4.76 2-6.79 3.68a8.94 8.94 0 0 1-3.59 2c-2.13.48-3.12 1.85-3.74 3.8-.41 1.28-.5 2.68.23 3.53s2-.12 2.89-.64c3.76-2.3 7.42-4.76 11.58-6.32.67-.25 1.54-.6 1.53-1.39 0-1.91 1.45-2.12 2.67-2.65.78-.34 1.81-.41 2.1-1.37a34.4 34.4 0 0 1 3.76-8.87zm227.52 278.61c.44-1.25 1-2.26.06-3a8.76 8.76 0 0 0-4-2c-2.76-.42-4.86 1.72-7.49 1.75-.33 0-.91.53-.76.94.92 2.68-1.68 6.07 1.67 8.27.3.2.33.79.55 1.17 1.43 2.42 1.3 5.31 2.39 7.83.33.77.74 1.84 1.52.59.94-1.5 2.42-3.51 2-4.83-.91-3.17 3.45-4.61 2-7.64-.06-.13.47-.5.66-.8.57-.86 1.08-1.69 1.4-2.28zM268.72 333c2.18-5.63.69-10.93-1.56-16.16-.24-.56-.55-.77-1.14-.27-2.54 2.13-5.39 4-4.51 8.11.33 1.56-.16 3.28-.11 4.92a56.25 56.25 0 0 0 1 9.71c.11.53.17 1.2.84 1.43.51.18.82-.14 1-.54 1.46-2.48 3.58-4.47 4.48-7.2zM302.63 9.33c.7.89 1.45.53 2.27 0a11.26 11.26 0 0 0 3.74-4c1.19-2.23.9-2.77-1.57-3.16A57.37 57.37 0 0 1 299 .81c-5.89-1.82-11.27-.32-16.61 2C281.8 3 281 3.1 281.1 4s.77.87 1.42.94c1.2.13 2.4.27 3.59.45A20.58 20.58 0 0 1 293 7.47a3.23 3.23 0 0 1 1.81 2.68c.07.81-1.5 1.64-.34 2.25.83.44 1.62-.8 2.42-1.3a11.59 11.59 0 0 0 1.95-1.42 2.82 2.82 0 0 1 3.79-.35zM292 207.41c.73-2 1.52-2.55 3.27-1.54 1.28.74 1.22 1.46.87 2.6-.25.8-1 1.93-.19 2.42a3.35 3.35 0 0 0 3.11-.05c.77-.39 1.59-1.14 2.32-1.07 2.59.25 2.26-1.32 2.15-2.93-.2-2.78-.8-3.36-3.62-3.88a20.24 20.24 0 0 0-5.62-.34c-1.27.12-3.21.36-3.74-.32-1.71-2.22-3.26-.57-4.86-.27-.45.08-1 .27-.86 1 .56 2.43-.7 2.07-2.13 1.35-.3-.15-.55-.58-.87-.16-.09.11.14.51.28.74 1.09 1.83 3 2.62 4.68 3.75 1.17.8 2.33 1.5 2.45 3.09 0 .41 0 1 .55 1.06.69.08.71-.61.89-1a21.9 21.9 0 0 0 1.32-4.45zm-85.59 156.08c-.79 1.24-.53 1.68.77 1.76a25.39 25.39 0 0 1 6.4 1.22 12.78 12.78 0 0 0 9.51-.11c.81-.36 1.4-.72.47-1.49-3.67-3.07-7.37-6.1-11.3-8.83-.8-.56-1.34-.64-2 .45a55.76 55.76 0 0 0-3.85 7zm84.48-274.4l1.21.49c1.93.8 3.13.32 4-1.56 1-2.11-.65-2.53-2-3-6.57-2.3-13-4.92-19.94-6.19-1.34-.25-2.81.07-3 1.31s.92 2 2.37 2.29c2.45.46 5.08.54 7.05 2.44a12.5 12.5 0 0 0 7.22 3.23 12.15 12.15 0 0 1 3.09.99zm12.57-32c-1.54-.3-3.25-2.05-4.59.21a61.78 61.78 0 0 0-2.92 5.8.93.93 0 0 0 .74 1.46 21.14 21.14 0 0 0 12.09-1.23c1.12-.45 1.26-1.28.39-2-1.81-1.54-3.07-3.81-5.71-4.26zm-5.74 214.46c.46-.83-.16-1.44-.73-2q-6.68-6.49-13.4-12.95c-.51-.49-1-1.33-1.79-.68a5.21 5.21 0 0 0-1.82 2.37c-.29 1.2 1.11.3 1.57.8s.92.72 1.34 1.11c4.2 3.85 8.72 7.37 12.27 11.9.93 1.18 1.99.9 2.56-.57zM301.55 106c2.37 1 6.48 1 8.1.16.93-.5 2.26-1.17 2.43-2 .21-1-1.38-1.18-2.18-1.73-1-.66-1.91-1.31-2.92-1.88a2.23 2.23 0 0 0-2.25-.28c-2.09 1-4.23 1.88-6.33 2.85-.5.23-1.29.51-.18 1.08 1.28.67 2.55 1.36 3.33 1.8zm-21.66-17.13c-1.61-1.23-2.89 1-4.45.5-.22-.06-.06.73.35 1 1.86 1 3.4 2.73 5.8 2.66a3.11 3.11 0 0 1 2.9 1.46 3.24 3.24 0 0 0 3.28 1.5c2.31-.22 4.59 1.29 7 .4.31-.11.8.27 1.2.43s.86 1.14 1.41.5a2.8 2.8 0 0 0 .34-1.87c-.06-.77-.83-.61-1.37-.76-1.32-.36-2.38.35-3.54.74s-2.61.49-2.65-1.16-.9-1.9-1.94-2.12c-2.93-.67-5.88-1.29-8.33-3.28zm41.8-44.25c.38-.71-.12-1.11-.43-1.59-1.94-2.92-4.57-5.22-6.93-7.76-.51-.55-1.13-.81-1.68-.16-1.31 1.54-2.58 3.12-3.8 4.73-.78 1 .16 1.88.71 2.46.72.76 1.17-.09 1.63-.69 1.28-1.66 2.46-1.74 4-.37s2.89 2.44 4.16 3.82 1.65.07 2.34-.44zM200.22 253.85c1.58.49 2.82-.37 4-1.22 2.4-1.78 3.72-4.64 6.23-6.34a.68.68 0 0 0 .18-.59c-.1-.41-.46-.27-.69-.16-3.77 1.67-7.72 3-10.18 6.74-.76 1.02-.34 1.21.46 1.57zM489 425.42c1.1-1.64-.2-3.15-1.16-4.65a.87.87 0 0 0-1.57.2c-.37 1.62-2 2.05-2.75 3.25-.21.33-.87.47-.62 1a2.74 2.74 0 0 0 2.49 1.82c1.15-.14 2.85.63 3.61-1.62zM279.46 99.83l3.71.72c.37.07.82.53 1.09-.08.16-.36-.12-.66-.36-.95-1.31-1.52-2.56-3.08-4.9-2.88-.87.07-2-1.22-2.47-.3s.76 1.87 1.58 2.58a12.61 12.61 0 0 0 1.35.91zm11.55.4c-.86 0-1.8-1.34-2.65-.06-.39.59 1.74 3.29 2.67 3.66.71.28 1.19.21 1.23-.59.06-1.16 1.36-2.88-1.26-3.01zm25.52 5.57c-.82 0-1.75-1.33-2.27.39-.34 1.12-.63 2.09.87 2.6 1.29.44 2.42.19 3-1 .66-1.46-.98-1.41-1.61-1.99zM298.75 199c1-.43 2.39 1.21 3.37-.39.26-.42.27-1.24-.3-1.26a6 6 0 0 0-3.59 1.15c-.33.23.08.5.52.5zm-103.86-21.08c.3 0 .75.12 1.05-.26s0-.71-.32-.83a1 1 0 0 0-1.12.34c-.19.25.01.52.39.75zm51.22 164.64c.29-.22.33-.45.14-.6a.71.71 0 0 0-.58-.14c-.36.14-.32.45-.05.65s.38.08.49.1zM192.73 63.3c-.23-1.14-.64-2.23-.9-3.36-.5-2.18-2.1-3.1-4-1.87-2.1 1.33-4.2 1.2-6.49 1-1.81-.13-2.28-.78-1.94-2.45a6.81 6.81 0 0 0-2.21-6.87 10.34 10.34 0 0 1-1.87-3.16c-1.81-3.59-2.51-7.7-5.46-10.78a21.9 21.9 0 0 0-15.35-7c-2.59-.12-5.17.35-7.8-.09a13.1 13.1 0 0 0-5.17.13c-4.24 1-8.5-.08-12.76.07-2.94.11-5.91-.5-8.72.86a13.36 13.36 0 0 1-5.2 1.49c-2.87.09-5.29 1.25-7.87 2.22a28.31 28.31 0 0 1-7.72 2.15A95.62 95.62 0 0 0 83 38.12c-2.45.63-5.09 1.24-7.14 3a20.14 20.14 0 0 1-7.75 4.25 14.05 14.05 0 0 0-3.7 1.79c-2.58 1.65-4.1 4.48-6.8 6a13.77 13.77 0 0 0-6.06 6.56 18.52 18.52 0 0 1-1.44 2.92 23.83 23.83 0 0 0-4.26 9.89 50.61 50.61 0 0 0-1 7.08c0 4.23-.8 8.58.93 12.65a3.07 3.07 0 0 1-.78 3.88c-1.08 1-1 2.14-.81 3.57.45 3.51 4 5.6 4 9.23 0 .17.22.4.39.5 3.18 1.91 4.77 5.1 6.51 8.14 3.58 7.68 10.7 12.64 18.6 15.92a60.47 60.47 0 0 0 15.52 4.08c3.59.46 6.75-.17 9.39 1.89 1.61 1.25 2.6 4 3.85 5.6 5.26 6.7 13 14 21.82 14.89 9.06 1 17.05-3.79 24.09-9a20.53 20.53 0 0 1 2.42-.66c1.69-.34 2.35-1.6 2.19-3.27v-.35a3.54 3.54 0 0 0 0-2.26c.15-2.51.67-5 .34-7.56a2.64 2.64 0 0 1 .57-2c1.79-1.55 3.19-3.54 5.47-4.56 3.18-1.42 6.3-3 9.4-4.57a16.22 16.22 0 0 0 4.93-3.55c5-5.65 6.9-12.6 8.2-19.76.47-2.62.33-5.35.55-8 .07-.85 0-2.36 1.42-1.74 2.3 1 3.7.4 4.85-1.67a2.45 2.45 0 0 1 1.46-.91c2.34-.6 2.63-2.34 2.64-4.35 0-3.54.11-7.07.16-10.61.04-3.97.57-7.92-.23-11.84zM49.41 85c-.31.49-.58 1.5-1.27 1.25s-.28-1.16-.26-1.78c.3-7.18 1.23-14.26 5.87-20.07 1.53-1.92 1.62-4.5 3.49-6.09 4.79-4.09 9.31-8.54 15.39-10.82 3.07-1.15 5.44-3.58 8.55-4.75 2.82-1 5.18-1.21 7.45 1.26 1.84 2 4.35 3.36 6.2 5.42 1.55 1.72 1.56 3.41-.44 4.57-3.07 1.78-3.73 5.06-5.28 7.79-.43.76.09 1.35.87 1.7a2.1 2.1 0 0 0 2.84-.79c1.59-2.16 3.17-4.32 4.77-6.47 1-1.34 1.65-1.35 2.26.4a58.17 58.17 0 0 0 3 7.25c1.09 2.16 2.44 2.18 4.1.5.88-.9.64-1.58-.43-1.59-1.9 0-2.33-1.37-2.66-2.67a26.56 26.56 0 0 1-1.31-7.48 3.26 3.26 0 0 0-1.58-3.16 7.14 7.14 0 0 1-1.85-2.12 25.84 25.84 0 0 0-5.6-5.35c-.49-.35-1-.74-.81-1.39s.86-.4 1.34-.42a64 64 0 0 0 14.1-2.42c.21-.06.49-.06.61-.2 2.26-2.64 5.38-2.47 8.41-2.57a2.49 2.49 0 0 0 1.07-.17c6.29-3.45 13-1.5 19.56-1.6 1.94 0 3.87-.46 5.81-.54 3.91-.15 7.81.52 11.73 0 1.75-.24 3.12 1.1 4.65 1.68 6.07 1.85 8.07 7.15 10.29 12.21.9 2.06 1.55 4.26 3.07 6 1.87 2.11 1.19 4.68 1.45 7.08.11 1-.71.89-1.37.85-5-.28-9.94.58-14.92.57a37 37 0 0 1-6.29-.44c-2.42-.43-4.64-.61-7 .52-3.64 1.75-7.73.82-11.59 1.47a32.27 32.27 0 0 0-6.9 1.84c-2.9 1.18-5.77 2.38-9 1.69a3.2 3.2 0 0 0-2.48.69 23.76 23.76 0 0 1-14.37 4.71c-2.06 0-4.11.74-6.17 1.12-5.08.93-10.27.52-15.37 1.19a16 16 0 0 0-5.15 1.58c-2.53 1.27-5.45.65-8.13 1.24C59.77 78 53.25 78.88 49.41 85zm101.44-11.77a28.71 28.71 0 0 1 3.09 5.42c0 .11 0 .28-.06.43-.34.64-.7.38-1 0-1.07-1.63-2.39-3.12-3-5-.11-.36-.26-.75.14-1a.8.8 0 0 1 .83.15zm-37.94 13c-.68.25-.67-.59-1-.9-1.78-1.7-3.31-3.7-5.26-5.16-2.17-1.63-5-2.08-7.57-2.77-.64-.17-1.43-.06-1.4-1s.8-.65 1.34-.8c2.86-.81 5.69-1.08 8.58.31 1.29.43 2.67.92 3.24 2.49a1.27 1.27 0 0 0 1.19.84c2.16-.06 4.47.91 6.43-.59a2.5 2.5 0 0 1 3.19 0c2.7 1.62 4.84 4.07 8 5.11 1.51.5 3.79 6.5 3.45 8.12-.16.76-.56 1.1-1.15.37-1.87-2.28-4.44-4-5.61-6.85-.85-2.08-2-2.43-3.48-.86-.73.76-.91.46-1.49 0a26 26 0 0 0-3.14-2c-2.64-1.42-4.5-.52-5.1 2.39-.08.57.28 1.17-.22 1.35zm-.8-13.49c1-.79 2-1.71 3.5-1.14.92.36 1.05 1.09.74 2.18-1.13.54-2.45.15-3.7.08-.34.03-1.07-.64-.54-1.07zm20.51-2.37a3.07 3.07 0 0 1-.69-3 1 1 0 0 1 1.47-.82c1.25.83-.16 1.91.08 2.78-.15.67-.42 1.45-.86 1.09zm-38.87 8a3.17 3.17 0 0 1-2.58.58c-4.55-2-9.15-.41-13.73-.31-.36 0-1 .45-1-.24 0-.41.56-.34.89-.45 3.31-1.08 6.78-.54 10.15-1 1.64-.25 3.31-.37 5-.51 1.4-.14 1.35.84 1.27 1.97zM64.65 81a5.56 5.56 0 0 1-.76.44 24.28 24.28 0 0 1-3.64 1.32c-2 .42-3.26 2.09-5 2.85-.42.18-1.16.72-1.5 0-.24-.5.46-.73.83-1.06 2.58-2.29 5.73-3.19 9-3.77.32-.09.79-.48 1.07.22zm111.12 27c-.07.28-.16.67-.36.78-2.32 1.27-2.87 3.48-3.24 5.83-.06.39-.13 1-.67 1s-.65-.53-.78-.92c-.45-1.31-.93-2.61-1.26-4a4.48 4.48 0 0 0-1-2.06 2.71 2.71 0 0 1-2.51 1.19h-1.32a10.77 10.77 0 0 0 .22 1.9c.16 1.13.62 2.25.31 3.44-.25.93-.4 1.86-1.7 1.86s-2.18-.1-2.63-1.42a46.72 46.72 0 0 1-1.46-5.44c-1.47.2-2.94.48-4.4.79a13.39 13.39 0 0 1-.58 4.15c-.16.47-.08 1.18-.62 1.32s-.69-.61-1-1-.64-1-1-1.42a2.72 2.72 0 0 0-3.05-1.13c-1.25.42-1.19 1.5-1.19 2.53v7c0 .36.18.78-.15 1s-.84 0-1.2-.23c-1.46-.9-1.41-2.51-1.6-3.89a25.56 25.56 0 0 0-1.29-5 4.53 4.53 0 0 0-3.66 1 16.54 16.54 0 0 1 .92 3.29 3.85 3.85 0 0 1-.31 2.76c-.68 1-1.69 2.09-2.92 2.06s-1.29-1.46-1.62-2.36a11.71 11.71 0 0 1-.7-5.22 3.78 3.78 0 0 0-3 .19c-.38.18-.75.41-1.12.64.15 2.64 0 5.3.38 7.92a3.36 3.36 0 0 1-.26 1.49 1.52 1.52 0 0 1-1.29 1c-.74.06-.93-.55-1-1.16a48.29 48.29 0 0 1-.95-7.14c-.69.5-1.37 1-2.06 1.42-2.27 1.43-4.15 2.28-3.85 5.4a7.78 7.78 0 0 0 .75 2.58 3 3 0 0 1 .59.38 8.83 8.83 0 0 1 1 .94 3.62 3.62 0 0 1 .52-.84c.87-1 1.05.45 1.43.86 1.5 1.65 4.78 2.1 6.51.22 1.46-1.59 2.39-2.22 4.3-.9.59.41 1.67-.13 2.24-.94.29-.41.65-.77 1-1.17.94-1.23 2-1.71 3.26-.44a6 6 0 0 0 1.17.7 7.92 7.92 0 0 0 3.78.55c1.81-.16 3.3-.87 3.3-3 0-1.19.51-1.31 1.5-1 1.52.48 2.49-.34 3.2-1.57.32-.57.55-1.19.83-1.78.38-.82.81-1.29 1.48-.22a2.28 2.28 0 0 0 2.63 1.13c2.09-.59 4.59 0 6.23-2 .36-.45 1-.37 1.26.22s.15.92-.44 1.23c-1.66.88-3.2 2.19-5 2.65-3.18.83-5.57 3-8.46 4.35-1.81.83-3.16 2.71-4.87 4a3.75 3.75 0 0 0-1.27 2.39 3.3 3.3 0 0 1 .53 1.44c2.3 17.06-23.33 22.21-34.43 13.52-4.78-3.74-7.9-12-12.72-15-3.77-2.35-8.19-2.14-13-2.8-11-1.52-18.38-4.32-24.51-12.66-.37-.45-.66-1-1-1.43s-.59-.81-.88-1.27v-.08a19.7 19.7 0 0 1-1.92-4.26 3 3 0 0 0-2.78-2.37 3.47 3.47 0 0 0-.25-.46c-.22-.36-.72-.77-.37-1.13a1 1 0 0 1 1.4.08c1.5 1.18 2.9-.05 4.34-.2.52-.05.8-.69.83-1.18s-.5-.73-.88-.81a2.38 2.38 0 0 1-1.29-.74c-1.09-1.12-2.13-2.16-.16-3.48.68-.46 1.45-1.33.7-2.22-.89-1-1.47 0-2.06.57-.19.19-.64.44-.7.38-1.81-1.72-5.09-.29-6.49-3.17-.48-1-.59-1.49 0-2.21a6.53 6.53 0 0 1 4.46-2.71 13.87 13.87 0 0 0 5.09-1.92c3.61-2.06 7.58-2.87 11.56-3.68 3.62-.73 7.26-1.39 10.87-2.16 1.58-.34 3.17-.25 4.73-.43 1.93-.23 2.56.65 2.76 2.18.64 4.69 3 8.76 4.68 13.07.47 1.2 1.69 1.76 2.52 2.66 1.61 1.75 3.67 3 5.26 4.83a1.41 1.41 0 0 0 .85.45 6.47 6.47 0 0 1 3.38-.67c4-1.16 8.07-2.24 11.76-4.36a7.94 7.94 0 0 1 3.18-.62c3.06-.27 5.7-2.15 8.81-2.19.14 0 .28-.1.42-.11 4.9-.44 5.22-.65 6.51-5.52a48.64 48.64 0 0 0 2-9.81c.12-2.24 2.42-3.32 2.62-5.54.06-.72.94-.18 1.36.23a24 24 0 0 1 3.15 3.57 149.35 149.35 0 0 1 8.23 14.72 2.59 2.59 0 0 0 3.43 1.43 2.85 2.85 0 0 1 3 .27c1 .8 2.12-.22 3.16.13v.06c.14-2.24 1.51-3.22 3.57-3.61s4-.83 5.93-1.32c1.06-.27 1.32.2 1.3 1.1a59.27 59.27 0 0 1-1.97 13.52zm12.13-22.36c-.4.84-1.2 1.47-1.81.57-2.09-3.12-6.1-3.4-8.55-6-.94-1-2.09-1.78-2.5-3.18a3.08 3.08 0 0 0-3.38-2.48c-1.26.07-1.77-.61-2.24-1.64-.91-2-2.17-2.47-4.19-1.56a4.17 4.17 0 0 1-2.9.51 2.46 2.46 0 0 0-2.62 1.14c-1.33 1.67-3.25 1.46-4.09-.46-1-2.22-2.47-4.11-3.57-6.24-.75-1.43-.13-1.86 1.19-1.82 2.88.09 3.14.43 3.36 3.76.07 1-.65 2.67 1.09 2.83s3.72.64 4.89-1.38 3.25-1.32 4.81-2.13c.22-.12 1 .09 1 .61 0 2.58 2 2.39 3.53 2.25a2.31 2.31 0 0 1 2.46 1.23c1 1.53 2.25 2.65 4.35 1.8a1.52 1.52 0 0 1 2 .83c1.11 1.87 2.6 2 3.83.24.78-1.11 1-.51 1.52.1 2.11 2.36 2.37 5.12 1.85 8.07-.18.96.41 1.97-.04 2.98zm-1.64-21.15c.61.17.87-.58 1.39-.85.08-.35.09-.7-.33-.82a1 1 0 0 0-1.21.62c-.22.4-.37.94.15 1.09zM147.17 66a.88.88 0 0 0-.6-.83c-.32-.08-.65 0-.57.36a1.51 1.51 0 0 0 .59.84c.26.15.57-.05.58-.37zm-28.56 30.85a1.93 1.93 0 0 0-2.06.63c-.16.6-.18 1.25.39 1.36.88.16 1.4-.63 2-1.16.31-.34.06-.74-.33-.83zm-12.55 3.08a2.19 2.19 0 0 0-.55-1.07c-.23-.24-.53 0-.6.28-.12.54.36.68.69.91.18.07.51.16.45-.13zm36.31-30.21c.31-.51-.14-.77-.55-1a2.29 2.29 0 0 1-1.33-1.63c-.16-.78-.53-1.17-1.36-1s-1 .77-1 1.48-.13 1.43.87 1.56a5.69 5.69 0 0 1 2.24.57c.35.15.82.51 1.13.01zm16.75 18.38c-1 1 0 1.88.3 2.73.2.54.35 1.63 1 1.38s0-1.08-.19-1.6c-.31-.87-.75-1.69-1.14-2.54zm5-1.77c.12 0 .42-.08.43-.15a1.81 1.81 0 0 0-.58-1.52c-.22-.22-.42 0-.48.17a1.2 1.2 0 0 0 .61 1.49zm-60.72 6.82h-.13zm62.92-16h.1-.13a.66.66 0 0 0-.11-.92h-.19c.08.28.19.59.31.9zm-89 228c-.81-1.37-1.69-1.44-2.48 0-.94 1.68-2.41 2.92-3.32 4.69-1.63 3.16-4.72 4.7-8.14 5.16a15.91 15.91 0 0 1-7.48-.72c-3-1-6.22-1.38-9-3.07-.31-.19-.74-.21-1-.44-2.9-2.77-5.96-1.57-8.9-.09-1.85.94-2.52 3.1-3.85 4.62a19.41 19.41 0 0 0-4.15 7.08c-.39 1.29-1.8 1.8-2.34 3-.22.5-1 .5-1.59.21-.86-.42-.8-1.2-.54-1.89.87-2.22 1.41-4.55 2.92-6.53 1.64-2.16 2.94-4.56 4.43-6.83 2.44-3.71 6.55-4.62 10.37-5.86 1.44-.46 2.9.69 4.21 1.5a29.32 29.32 0 0 0 14.92 4.57 11 11 0 0 0 2.59-.31c1.27-.28 1.69-.8 1.55-2.41-.49-5.94-2.24-11.74-2.33-17.67-.07-4.77-.26-9.53-.63-14.27s-1.89-9.52-2.19-14.37c-.55-8.93-2.48-17.75-2-26.79.21-3.82-.74-7.62-1.2-11.43a61.42 61.42 0 0 1 0-16.14 69.59 69.59 0 0 1 2.62-12.42c.18-.53-.13-.86-.64-.88a18.77 18.77 0 0 0-2 .09c-.76.05-1.53 0-1.85-.8a1.67 1.67 0 0 1 .62-2.13c1.28-.84 1.7-1.69.92-3.25s0-2.77 2.09-2.93c1.49-.11 2.68-.26 3.1-2 .25-1 1.2-1.36 2.25-1.37s1.14.53 1 1.41c-.06.42.45.53.82.36a5.06 5.06 0 0 0 1.51-.83c.34-.33-.13-.53-.39-.78-1.93-1.87-1.91-2.8.22-4.27 3.87-2.66 8-4.83 11.72-7.85 2.71-2.21 6.56-2.25 10-.88 1.57.63 2.92 1 4.54.14a5.54 5.54 0 0 1 4.66.25 2.92 2.92 0 0 0 3.4-.62c1.26-1.19 2.64-1.33 3.61-.12s.3 2.49-1.1 3.21a1.69 1.69 0 0 0-.91 2.51.7.7 0 0 1 .08.2c.14 1.15.65 2.69-.39 3.27-1.48.83-1.51-.66-1.59-1.67a7.23 7.23 0 0 1 0-1.09c.11-1.38-.61-1.75-1.89-2.05-2.69-.65-5.19-.95-7.67.75-1.11.76-2.45.11-3.5-.54a6.57 6.57 0 0 0-7.55.19c-2.18 1.68-4.28 3.49-6.94 4.45a5.39 5.39 0 0 0-1.76 1.27c-.63.61-1.36 1.49-1 2.27.41.94 1.23-.2 1.88-.11.95.13 2.41-.35 1.51 1.73-.34.78.44 2.06.76 3.09.91 3 .34 6.19.9 9.28a40 40 0 0 0 1.26 6.16c.23.67.32 1.63-.54 1.5-3.37-.55-1.67 1.81-1.48 2.78.29 1.48.59 3 .92 4.45.85 3.88.12 7.76.14 11.64A50.51 50.51 0 0 0 79.16 238a11.59 11.59 0 0 1 .68 5.12 45.32 45.32 0 0 0 .47 13.38c.82 4.32-.42 8.83.37 13.24 1.29 7.22 1.94 14.52 2.61 21.81a2.29 2.29 0 0 0 1.22 1.93c2 1.11 3.92 2.53 6.23 3.11a12.66 12.66 0 0 1 7 4.85c2 2.61 7.29 3.19 10.33 1.27a13.89 13.89 0 0 1 15.6.81c1.7 1.28 1.08 2.7.64 3.8s-1.93.67-2.89.17c-2.24-1.15-4.71-1.44-7.09-2.07-1.49-.39-2.49.42-3.58 1.13C107 309 103 310 98.8 307.76a44 44 0 0 1-6.14-4.51c-2.45-2-5.61-2.35-8.27-3.87-.9-.51-1 .59-.95 1.17a2.06 2.06 0 0 1-1.32 2.45 1.76 1.76 0 0 1-2.45-1.11c-.2-.42-.56-.89-1-.42-.54.62-1.57.89-1.51 2 0 .58 0 1.16.06 1.74zm-7.44-102l.44.17.65-.65.65-.27a.69.69 0 0 0 .52-.84c-.56-2.78 0-5.68-.85-8.41-.38-1.19-.16-2 1.06-2.39.5-.18 1.23-.21 1-1.11-.31-1.19-.58-2.39-.88-3.58-.26-1-.9-1.19-1.83-.81-1.67.7-3.33 1.46-5.06 2A2.07 2.07 0 0 0 64 189.5c-.18 4.48-1.15 8.85-1.75 13.27a104.55 104.55 0 0 0-.76 14c0 5 1.47 9.74 1.47 14.69 0 3.59 0 7.21.25 10.77s.89 7.17 1.25 10.77c.46 4.59.66 9.2 1.52 13.77s1.88 9.14 1.52 13.89a44.53 44.53 0 0 0 .25 8c.5 4.67 1.26 9.32 1.81 14 .15 1.22.63 1.05 1.14.42a38.76 38.76 0 0 1 6-5.6c2.3-1.86 2.53-4.18 1.6-6.79a2.2 2.2 0 0 1-.22-1.05c.59-3.07-.25-6-.63-9A121.33 121.33 0 0 1 76 267.19c-.06-3.58.57-7.18-.3-10.76-.25-1-.33-1.79-1.63-1.79a1.36 1.36 0 1 1 .12-2.71 1.15 1.15 0 0 0 1.29-1.37c-.58-2.9.3-5.84-.13-8.65a113.26 113.26 0 0 1-1.73-16.8c0-6.55-1-13.1-1.44-19.65-.09-1.3-.4-1.65-1.67-1.27-.74.22-1.68.32-1.73-.95l.64-.29zm4 50.93l1-.18a3.34 3.34 0 0 0-.47-.37c-.3-.16-.65-.39-.87.08-.07.08.16.29.28.46zm14.55-66.58a10 10 0 0 1 3.3-3.67 55.93 55.93 0 0 1 24.27-7.9c4-.34 7.8-1.79 11.79-2 5.55-.25 11.05-1.31 16.64-.86a2.57 2.57 0 0 1 2.71 2.54c.09 1.21.7 1.41 1.71 1.41s2 .22 3 .28a1.69 1.69 0 0 1 1.68 1.44 1.38 1.38 0 0 1-1.29 1.52c-2.44.45-1.69 1.7-1 3.14 3.32 6.7 6.62 13.44 11.24 19.36 1.67 2.14 3 4.63 5.27 6.3.31.23.48.93 1 .52a1.37 1.37 0 0 0 .31-1.2c-.38-1.21-.18-2.47-.45-3.67-1.49-6.66-2.71-13.39-6.09-19.46a39.09 39.09 0 0 0-6.33-8.77c-.94-.95-1.95-1.95-.37-3.24 1.2-1 3.16-1 3.84.29 2.48 4.7 6.39 8.44 8.66 13.31a60.32 60.32 0 0 1 4.21 14.16c.68 3.48.93 7 1.37 10.54.41 3.3 2.32 6.39 3.35 9.65 2.18 6.93 4.56 13.8 7.33 20.51a31.28 31.28 0 0 0 6.31 9.46c1.07 1.13 1.78 2.25.73 3.61-.9 1.18-2.47.75-3.9-.79a38 38 0 0 1-7.11-11.13 99.5 99.5 0 0 1-3.16-10.15c-1.4-4.8-3-9.55-3.91-14.47-.21-1.1-.76-1.52-2.12-1.56-2.85-.09-4.61-2.31-6.23-4.29-4.92-6-9.9-12-13.57-18.91-.43-.81-1-1.28-1.5-.15-1.8 3.89-5.38 5.39-9.1 6-8.63 1.45-17.18 3.89-26 3.64a160.9 160.9 0 0 1-16.26-1c-4.7-.61-7.52-2.51-9.58-6.38-.49-.92-1.05-1.7-.67-2.82.48-1.4-.3-2.68-.49-4a3.47 3.47 0 0 1 .35-1.27zm15.89 4.18a3.07 3.07 0 0 1-.45-.18c-1.19-.65-2.57-1.09-2.63-2.84s1.42-2 2.53-2.56a40.51 40.51 0 0 0 5.51-3.5c.4-.29 1.15-.52.95-1-.27-.65-1-.25-1.54-.14a64.14 64.14 0 0 0-13.27 4.73c-2.21 1-2.77 2.6-2.71 4.68a5.79 5.79 0 0 0 3.49 5.51 22.94 22.94 0 0 0 7 1.48 161.63 161.63 0 0 0 16.92.16 2.12 2.12 0 0 0 2.12-1.11c.56-1 2.36-.55 2.32-.36-.35 1.69.79.79 1.22.73 4.07-.63 8.14-1.35 12.21-2a16.15 16.15 0 0 0 5.61-1.62c.32-.18.72-.3.64-.75a.54.54 0 0 0-.66-.41c-1.87.21-3.79-.44-5.63.18-3.78 1.28-7.69 1.28-11.61 1.27-3.77 0-7.51-.06-11.12-1.37a8.23 8.23 0 0 0-3.2-.27c-2.58.08-5.16.54-7.75-.64zm41.11-9c-4.13-1-8-2-12-.48a18.23 18.23 0 0 1-10.47.92c-5-1-8.95.49-12.39 4-.26.26-.62.55-.42.91s.64.16 1 .15a12.58 12.58 0 0 1 3.66-.11 51 51 0 0 0 13.72 1.4c5.44 0 10.71-1.8 16.17-1.25a11.82 11.82 0 0 0 2.57-.37c.61-.08 1-.35.79-1-.68-1.7-1.32-3.33-2.68-4.23zm-16.44-4.39c-.62.15-1.31 0-1.82.54.16.11.35.34.48.31a6.42 6.42 0 0 0 1.62-.52c.15-.16-.1-.37-.33-.39zm75.65 355.25c-.09-.34 0-.76-.48-.9s-.68.21-.86.5c-1.64 2.64-4 4.76-5.47 7.51a55.37 55.37 0 0 1-3 5.06c-2.48 3.62-2.91 3.56-5.32-.45-2-3.32-4.24-6.47-8-8-1.54-.6-3.26-1.29-4.76-.17a140.51 140.51 0 0 1-17.42 10.67c-4.84 2.62-11.11 1.36-14.14-3.13-1.55-2.29-2.85-4.7-4.24-7.07-1.16-2-2-4.54-4.12-5.52-4.54-2.06-7.6-5.75-11-9.06-1.69-1.63-3-1.88-4.95-.42a84.28 84.28 0 0 0-18.66 19.83 2.71 2.71 0 0 0-.12 3.28 2.78 2.78 0 0 0 3.57.61 4 4 0 0 0 1.68-1.65 34.3 34.3 0 0 1 6.2-8.58c.76-.76 1.35-1.74 2.05-2.5 1.73-1.88 2.38-4.93 5.54-5.37a2.27 2.27 0 0 0 1.05-.75c.92-.93 1.72-.76 2.63.08 2.88 2.65 5.7 5.39 8.77 7.81a17.05 17.05 0 0 1 4.47 4.95c1.33 2.34 2.73 4.63 4 7 2.86 5.21 7.19 7.65 13.16 7.29 3-.19 5.51-1.56 8-3.08 4.2-2.57 8.78-4.51 12.78-7.41 2.95-2.13 4.2-2.14 6.84.41a41.71 41.71 0 0 1 6 7.42c2.05 3.18 4.62 3.33 7.09.48a9.2 9.2 0 0 0 1.53-2.38 140.43 140.43 0 0 1 6.37-13.15c.25-1.15 1.1-2.09.76-3.37zM25.88 339.71a32.49 32.49 0 0 1-6.49-.14c-3.8-.28-7.29.2-10.06 3.7-2 2.55-4.25 5.46-8.14 5.7a1.2 1.2 0 0 0-1.09 1.74 1.51 1.51 0 0 0 2 1.16 12.2 12.2 0 0 0 7.73-4.53c2.44-3.22 5.28-4.79 9.49-4.32 3.94.44 7.39 1.29 9.64 4.86A9 9 0 0 0 32.5 351a24.46 24.46 0 0 1 6 3.85 3.31 3.31 0 0 0 3.71.44 21.3 21.3 0 0 0 9.41-7.8 17.41 17.41 0 0 1 4.71-4.93c2.11-1.41 4.33-2.68 5.93-4.75 1.17-1.51 2.59-1.57 4.22-.55a16.74 16.74 0 0 1 2.71 2.18c1.46 1.41 2.86 2.89 4.39 4.21 1.05.9 2.24 1.61 3.77.78a40.38 40.38 0 0 0 9.23-6.43c1.44-1.42 3-2.24 5-.95.82.53 1.84.46 2.13-.58.41-1.45-2.4-4.87-3.88-4.73-2.26.22-4.49.64-6 2.69s-3.71 3.21-5.85 4.46a2 2 0 0 1-2.74-.34c-1.65-1.63-3.33-3.22-5-4.86-2.41-2.4-8.32-3.29-10.42.7-.19.36-.61.6-.88.93-1.58 2-4.24 2.49-5.89 4.4-2.27 2.63-4.6 5.21-6.93 7.79-3.2 3.53-4.37 3.65-8.26 1a4.31 4.31 0 0 0-1-.51 13.63 13.63 0 0 1-6.1-4.76 32.36 32.36 0 0 0-3.12-3.24 7.24 7.24 0 0 0-1.76-.29zm549.27-96c3.54-.66 6.37-4.78 5.13-7.51-.37-.81-.83-1.68-1.8-1.68s-1.13 1-1.4 1.72c-.92 2.53-2.22 3.62-4.91 3.25a16.14 16.14 0 0 1-9.71-4.82 49 49 0 0 0-4-3.95c-4.18-3.46-4.52-3.33-8 .69-1.77 2.07-3.27 4.67-6.69 4.4-1-.08-1.52.9-2.16 1.63-2.1 2.36-4.57 4.46-7.79 4.74-4.92.43-8.46-2.29-11.46-5.89-1-1.14-1.51-2.93-2.92-3.31a22.35 22.35 0 0 1-4.73-2.13c-5.36-2.83-7.7-1.57-8.37 4.45-.25 2.2.07 4.49-1 6.6-.4.82-1 1.73-.09 2.6a2.6 2.6 0 0 0 2.17.81c1.08-.23 1.07-1.39 1.3-2.29a65.64 65.64 0 0 0 1.12-7.32c.24-1.74.85-2.63 3-2 3.55 1 5.7 3.43 8 6 3.5 3.86 7.4 7.27 13.22 6.89 3.39-.22 5.94-2.13 8.47-4.07 1.12-.86 1.77-2.55 3.24-2.66 3.32-.24 5.19-2.24 6.81-4.77s2.17-2.59 4.54-.77c.4.31.73.72 1.13 1 3.11 2.38 5.34 6 9.12 6.74 5 2.02 5.32 2.08 7.78 1.62zm1.78 87.74v-.09c-2 2.28-3.29 5.08-4.92 7.62a4 4 0 0 1-3.58 1.94 14.09 14.09 0 0 1-10.9-4.64 13.4 13.4 0 0 0-8-4.07c-2.44-.46-3.46.06-4.39 2.37-1.34 3.35-2.58 6.74-4 10.06-.65 1.55-.89 2.93 1 3.57s2.49-.72 2.92-2.13c.67-2.15 1.2-4.35 1.92-6.48 1.23-3.68 2.94-4.2 6.24-2a17.81 17.81 0 0 1 1.49 1.26c3.78 3.19 7.51 6.27 12.89 6.52 3 .14 5.43-.24 7-3.09.59-1.08 1.28-2.11 1.92-3.17a22.92 22.92 0 0 1 4.63-6 3 3 0 0 1 3.34-.59c3.26 1.14 4.5 4.19 6.49 6.52 1.7 2 5.45 3.46 7.8 2.51 3-1.22 6.1-2.21 8.74-4.23a8 8 0 0 0 2.78-8.55c-.16-.46-.14-1.13-.84-1.07-.54 0-.49.63-.6 1a9.46 9.46 0 0 1-4.61 5.74c-1.72 1.07-3.63 1.44-5.43 2.19-3.48 1.46-5 .36-6.83-2.27a15.24 15.24 0 0 0-3.81-4.13c-2.26-1.56-4.53-3.58-7.69-2.16l.07.09v-.12c-1.35 1-2.13 2.58-3.73 3.28zM418.42 166.79c2.06-1.24 4.49-2 5.38-4.72a3.08 3.08 0 0 0-1.2-3.58c-1-.7-1.51.93-2.13 1.64-1.76 2-3.74 3.8-6.55 3-3.86-1.15-7.91-2.15-10.39-5.86a14.76 14.76 0 0 0-1.73-2c-2.49-2.58-4.86-3.11-8.06-1.76a8.9 8.9 0 0 0-3.34 2.72 21.4 21.4 0 0 1-5 4.82c-1.88 1.18-3.6 3.65-5.79 3.05-3.56-1-7.41-1.59-10.34-4.34-1.84-1.72-3.41-3.78-5.78-4.9-3.9-1.85-7.64-3.14-10.43 1.4a17.19 17.19 0 0 1-4.29 4.59c-1.74 1.31-1.25 2.88-1.11 4.42.08.85 1.06 1.2 1.85 1.31a1.7 1.7 0 0 0 2-1.06 9.82 9.82 0 0 1 1.83-2.93c3.91-5.8 5.49-6.9 11.64-1.95a1.09 1.09 0 0 1 .17.13c3.34 4.09 8 5.84 12.84 7.17a7.45 7.45 0 0 0 6.57-.78 45.55 45.55 0 0 0 9.22-8.49c2.14-2.4 4.42-2.4 6.4.12 2.62 3.34 5.51 6.24 10.1 7 2.42 1.72 5.15 2.8 8.14 1zm-289.55 79.85c-.84.33-1.52-1.29-2.24-.11a1.28 1.28 0 0 0 .48 1.89c.8.39 1.46-.26 2-.69.24-.54.19-1.26-.24-1.09zm3.48 52.07l-.55-.14.28-.49H132c.29-.16.79-.14.79-.59s-.37-.44-.63-.31a3.39 3.39 0 0 0-1.16.82 1 1 0 0 0 .23 1.34 2 2 0 0 0 2 .42c.35-.16.62-.46.42-.85-.33-.64-.87-.19-1.33-.18zM176.06 193a.35.35 0 0 1 .08.33c-.29.36-.59.08-.88 0 .44.85 1.06 1.23 1.92.61.46-.34.92-.88.73-1.47a1.4 1.4 0 0 0-1.64-.8c-.79.16-1.5.69-1 1.74.21-.32.38-.66.79-.41zm11.44 101.54c.14-.76-.65-1.23-1.11-1.74-.27-.3-.71 0-.83.37a1 1 0 0 0 .79 1.5c.41.01 1.06.33 1.16-.14zM283 118.05c.38.18 1 0 1-.47.05-.75.33-1.67-.37-2.21-.48-.37-.67.24-.85.69.22.63-.93 1.44.22 1.99zm45.61 69.69c.06-.12 0-.33-.05-.49-.17.09-.4.13-.5.27s0 .33 0 .63c.24-.15.45-.26.52-.41zM267 95.17c.06 0 .17.08.18.06a1.73 1.73 0 0 0 .17-.28l-.18-.07zm43.06-43.41l-.22-.12v.14c0 .02.1 0 .16 0zm0 0v-.38l-.06.39zM328.79 189l.62-.81v-.06l-.63.9zM326 559.38zm0 0h-.11.16zM78 306.11l-.45-.2h-.06l.5.22zm0 0v-.08.14a.3.3 0 0 0 0-.07zm-.45-.19l-.2-.73h-.06l.2.74zm54.5-7.84l.29.68.05-.05-.27-.63zm197.4-109.9v-.11a.34.34 0 0 1-.04.11zm68.85 52.06c-6.89-2-13.47-5-20.7-5.68-2.52-.24-5.05-.23-7.58-.4-4.41-.3-8.8-.84-13.21-.93a105.6 105.6 0 0 0-12.57.54c-2.42.24-4-.65-5.95-1.14s-2.29-2-.8-3.46c.39-.37.83-.65.65-1.24-1.11-3.68.61-7 1.43-10.38.37-1.52 1.58-1.89 2.92-1.46a48.41 48.41 0 0 0 11.12 1.79c3.28.25 6.48 1.54 9.77 2 3.63.48 7 2.29 10.49 2.61 4.71.43 7.89 3.35 11.54 5.59a6.62 6.62 0 0 0 3 1.1 65 65 0 0 1 14.94 2.52 21.65 21.65 0 0 1 5.47 2.6 12.54 12.54 0 0 0 4.14 1.89c3.18.7 5.83 2.47 8.52 4.23a69.67 69.67 0 0 0 9.85 5.55 19.73 19.73 0 0 1 5.39 3.56 88.87 88.87 0 0 1 12 13 59.58 59.58 0 0 0 9.69 10.17 2.83 2.83 0 0 1 1.19 2.84c-.24 1.17-1.17 1.33-2.18 1.36-3.45.13-6 1.55-7.07 5-.46 1.55-1.69 1.55-2.77 1.31a1.84 1.84 0 0 1-1.36-2.36 3.08 3.08 0 0 0-1.1-3.14c-4-3.57-7.27-7.88-11.19-11.55-4.35-4.09-9.25-7.46-13.89-11.18A139.34 139.34 0 0 0 403.69 243c-1.75-1-3.6-1.83-5.42-2.76zm6.11-4.31a18.93 18.93 0 0 0-2-.8c-2.17-.6-4.3-1.43-6.6-1.29-.39 0-1-.07-1 .56 0 .43.42.54.74.68a6.5 6.5 0 0 0 1.22.48c5.17 1.13 9.38 4.2 13.58 7.1 5.7 3.94 11.15 8.25 16.58 12.57 1.93 1.54 4.16 2.67 5.92 4.37 4.81 4.63 9.68 9.21 14.1 14.19 1.75 2 2.93 1.88 4.89.94 1.54-.74 2.15-1.37.6-2.72-3.79-3.31-6.61-7.48-9.87-11.26-4.26-5-8.7-9.77-14.77-12.68-2.08-1-4.36-1.56-6.21-3.11-2.79-2.33-5.77-4.4-9.56-4.87a4.24 4.24 0 0 1-2.17-1 17.84 17.84 0 0 0-5.48-3.17zm-61.59-15.25A18.92 18.92 0 0 0 342 225c-.09 4.52.16 4.74 4.8 4.46 3.11-.18 6.23-.25 9.34-.4 4.81-.23 9.52.91 14.3 1.08 3.4.13 6.79.32 10.19.47a5.86 5.86 0 0 0 1.05-.14c-.08-.26-.08-.65-.26-.76-1.58-1-2.88-2.53-4.76-3-5.88-1.48-11.79-2.8-17.65-4.34a23.55 23.55 0 0 0-5.6-.71 24.91 24.91 0 0 1-8.56-1.17c-.78-.24-1.85-.58-2.06.18zm141.69 114.25c-4.07-.32-4.4-4.47-6.12-7.42a1.35 1.35 0 0 1 .38-1.77c3.72-3.17 7.25-6.55 11.45-9.15 2-1.23 3.14-.42 4.15 1.11s1.21 3.69 1.9 5.51a1.66 1.66 0 0 1-.24 1.66l-8.57 10c-.73.87-1.58.94-2.95.06zm7.69-11.23a3.14 3.14 0 0 0-.37-3c-.49-.71-1.26-.31-1.73.12-2.26 2-4.55 4-6.68 6.21-1.23 1.26-.12 2.5.63 3.49a1.6 1.6 0 0 0 2.51.27 34 34 0 0 0 5.65-7.09zm-257.89-85c-.17-.08-.7.25-.84.51a.82.82 0 0 0 .43 1.24c.55.09 0-.57.25-.78-.02-.37.95-.58.17-.97zm70.82 132.88c-1.36.16-2.56.89-2.19 2.62.32 1.51 1.06 2.53 2.9 2.12a5 5 0 0 1 3 .07c1 .42 2.64.51 2.72 1.76.07 1.08-1.54 1-2.37 1.56a7.51 7.51 0 0 1-1.63.6c-2.47.8-3.79 2.84-5.12 4.83-.69 1-.17 2 .64 2.71a1.75 1.75 0 0 0 2.57.06c1.75-1.93 4.12-2.67 6.38-3.62 1-.42 2.18-1.72 3.07-.91.65.59-.38 2-.66 3-1 3.86-1.84 7.75-.89 11.75.24 1 .42 2.24 2 2a2.11 2.11 0 0 0 2-2.63c-.71-3.81.67-7.09 2.22-10.37.18-.37.39-.91.7-1 .65-.18.74.52 1 .94a53.41 53.41 0 0 0 5.79 8.44c2.36 2.65 4.59 5.46 7.56 7.49 1.24.85 2.66.93 3.48-.37a2.26 2.26 0 0 0-.92-3.34 21.1 21.1 0 0 1-4.37-3.57c-3.18-3.28-6.31-6.62-8.13-10.92-.22-.52-.65-1.15-.29-1.65s1.17-.27 1.81-.18a20 20 0 0 1 6.33 2.29 2.6 2.6 0 0 0 3.46-.69c1-1.24.14-2.4-.9-3.16-1.72-1.26-3.81-1.74-5.78-2.47-.65-.24-1.65-.16-1.57-1.16.06-.8.08-1.74 1.16-2.13 2.25-.82 2.45-2.94 2.69-4.85.17-1.36-1.59-2.68-2.43-1.92-1.57 1.41-3.7 2-5.1 3.42-2.78 2.89-2.69 3-7.1 1-3.26-1.07-7.52-2.3-12.03-1.72zm15.42-28.34c.74 0 1 .79 1.34 1.3a17.19 17.19 0 0 0 3.59 3.75c1.26 1 2.67 1.86 3.94.15s0-2.87-1.24-3.57c-1.83-1-2.49-2.77-3.35-4.42a1.92 1.92 0 0 1 .82-2.79c4.2-2.61 8.53-4.77 13.7-4a34.47 34.47 0 0 0 7.14.34 18.27 18.27 0 0 1 6.65.69 2.15 2.15 0 0 0 2.56-2.88c-.61-2-2.41-2.13-4-2.5-2.5-.58-5 .3-7.5.18-4.18-.2-8.4-1.11-12.54.31a1.78 1.78 0 0 1-1.46-.27 3.33 3.33 0 0 0-2.31-.09c-1.67.29-2.58 1.51-3.61 2.6-.42.44-.82.86-1.49.6a1.3 1.3 0 0 1-.79-1.61 12.27 12.27 0 0 1 .41-1.68c.57-1.8 1.22-3.58 1.71-5.4a2.13 2.13 0 0 0-1.28-2.69 2 2 0 0 0-2.71 1.08 7.85 7.85 0 0 0-.85 2.23c-.51 3-2.33 5.68-1.76 8.88a1.2 1.2 0 0 1-.75 1.24c-.6.24-.91-.32-1.16-.75-.85-1.44-1.73-2.85-2.47-4.34-.63-1.26-1.56-2.07-2.89-1.51s-1.38 1.72-.86 3a27.92 27.92 0 0 0 4.88 8.19 3.2 3.2 0 0 1 .9 2.74 26 26 0 0 1-1 5.54c-.74 2.13-1.2 4.38.2 6.51a1.86 1.86 0 0 0 3.42-.18c1.08-2.32 2-4.7 1.37-7.34a2.32 2.32 0 0 1 .36-1.86c.29-.3.14-1.39 1.04-1.44zm-139.62-5.14c.64.74 1.37 1.14 2.29.6a14.92 14.92 0 0 1 3.94-1.19c2.73-.73 5.43-1.54 8.15-2.31a2 2 0 0 0 1.48-2c.12-1 0-2.1-1-2.46a8.19 8.19 0 0 1-3.12-2.58 1.84 1.84 0 0 0-2.31-.63 1.64 1.64 0 0 0-1.11 1.92c.71 2.6-1 2.84-2.79 3.15-1.22.21-2.41.55-3.6.88a3.67 3.67 0 0 0-2.53 2.28 2.25 2.25 0 0 0 .6 2.34zm11.65 7.58l.9.36c-.18-.42-.48-.47-.9-.36zm52.2-88.91c-1.15.31-1.8 1-1.58 2.21s.54 2.46 2.15 2.55c3.4.2 3.8.55 4.14 3.89a9.36 9.36 0 0 0 2.53 5.83 1.82 1.82 0 0 0 2.33.51 1.57 1.57 0 0 0 .63-2.27c-.86-1.69-.79-3.5-1-5.3a8.26 8.26 0 0 0-5.2-7.14 7.49 7.49 0 0 0-4.01-.29zM239 290.53v-.27l-.05.22zm0 0l.08-.08h-.16zm39.27-100.28h.14-.17zm-176-142.43c-.49 1 .12 1.78 1 2.34s1.66 1.16 2.55 1.64 1.7 0 2.41-.54a.92.92 0 0 0 0-1.37 12.88 12.88 0 0 0-3.02-2.89c-1.21-.35-2.33-.3-2.9.82zm9 5.28c-.45-.29-.66 0-.72.41-.1.7-.26 1.1-.8.22-.13-.22-.38-.27-.53-.06a.79.79 0 0 0-.06.6 1.3 1.3 0 0 0 1.38.84c.56 0 .85-.49 1.22-.92a1.09 1.09 0 0 0-.47-1.1zm-51.82 5.5c-.61-.17-1.2.37-1.56.9s-.09.83.42 1 1.15.55 1.25-.45c.09-.55.8-1.21-.09-1.46zm101.08-7.8c.33.16.69.28 1 0a.28.28 0 0 0-.19-.48c-.43-.08-.58.31-.81.57zm2.88-.37c-.32 0-.26.24-.28.42l.29-.36zm0 .06l-.3-.12c0 .35.15.23.29.07zm-2.92.36v.11-.16zm-7.66 52.06c1-1.22.58-2.41.15-3.67-.76-2.2-1.94-4.2-1.57-6.8.32-2.23-2-3.49-4-2.3a33.82 33.82 0 0 0-4.41 3.34 1.51 1.51 0 0 0-.13 2.48c1.75 1.33 2 3.07 1.75 5-.17 1.53.7 2.31 2.05 2.06 1.16-.21 2.09-.2 2.57.3 1.66 1.06 2.67.68 3.61-.4zM167 98.25v.16-.09zM70 202.77l1-.05.6-.25c-1.61-1.35-2.3-1.14-2.74.83l.59-.27zm0-.05l-.2.47.48.18z" fill="none"/></svg>