<svg data-name="Layer 1" xmlns="http://www.w3.org/2000/svg" viewBox="0 0 42.88 42.88"><title>social-in</title><path d="M42.88 21.44q0 6.39-.14 8.85-.28 5.81-3.46 9t-9 3.46q-2.46.14-8.85.14t-8.85-.14q-5.8-.28-9-3.46t-3.46-9Q0 27.83 0 21.44t.14-8.85q.28-5.81 3.46-9t9-3.46q2.46-.14 8.85-.14t8.85.14q5.81.28 9 3.46t3.46 9q.12 2.46.12 8.85zm-19.3-17.6h-7.22q-1 0-2.7.08a22.08 22.08 0 0 0-2.87.28 11.27 11.27 0 0 0-2 .52A7.29 7.29 0 0 0 4.71 8.8a11 11 0 0 0-.52 2 21.71 21.71 0 0 0-.28 2.87q-.07 1.69-.08 2.69t0 2.94v7.23q0 1.01.08 2.69a21.75 21.75 0 0 0 .28 2.88 11 11 0 0 0 .52 2 7.29 7.29 0 0 0 4.08 4.08 11.09 11.09 0 0 0 2 .52 21.33 21.33 0 0 0 2.87.28q1.69.07 2.7.08h10.16q1 0 2.69-.08a21.33 21.33 0 0 0 2.88-.28 11 11 0 0 0 2-.52 7.3 7.3 0 0 0 4.08-4.08 11 11 0 0 0 .52-2 21.34 21.34 0 0 0 .28-2.88q.07-1.69.08-2.69t0-2.95v-2.14-2.14-2.94q0-1-.08-2.69a21.31 21.31 0 0 0-.28-2.87 11.06 11.06 0 0 0-.52-2 7.3 7.3 0 0 0-4.08-4.08 11.19 11.19 0 0 0-2-.52 22.08 22.08 0 0 0-2.88-.28q-1.69-.07-2.69-.08zm5.65 9.81a10.61 10.61 0 0 1 3.21 7.79 11 11 0 0 1-11 11 11 11 0 0 1-11-11 11 11 0 0 1 11-11 10.61 10.61 0 0 1 7.79 3.21zM26.5 26.49a7.15 7.15 0 0 0 0-10.11 7.15 7.15 0 0 0-10.11 0 7.15 7.15 0 0 0 0 10.11 7.15 7.15 0 0 0 10.11 0zm8.21-18.31a2.56 2.56 0 1 1-1.82-.74 2.47 2.47 0 0 1 1.81.74z" fill="#1b3d34"/></svg>