<svg data-name="Layer 1" xmlns="http://www.w3.org/2000/svg" viewBox="0 0 44 35.74"><title>social-tw</title><path d="M44 4.25a18.89 18.89 0 0 1-4.52 4.62v1.17a25.65 25.65 0 0 1-1.06 7.24 26.1 26.1 0 0 1-3.22 6.94 27.23 27.23 0 0 1-5.15 5.88 22.88 22.88 0 0 1-7.2 4.08 26.29 26.29 0 0 1-9 1.52A25 25 0 0 1 0 31.69a19.05 19.05 0 0 0 2.18.11 17.66 17.66 0 0 0 11.19-3.85 9 9 0 0 1-8.43-6.25 11.4 11.4 0 0 0 1.7.14A9.3 9.3 0 0 0 9 21.53a8.87 8.87 0 0 1-5.18-3.11 8.71 8.71 0 0 1-2.05-5.74v-.11a8.93 8.93 0 0 0 4.08 1.14 9 9 0 0 1-2.93-3.21 9 9 0 0 1 .14-8.85 25.56 25.56 0 0 0 8.22 6.66 25.12 25.12 0 0 0 10.37 2.78 10.18 10.18 0 0 1-.22-2.07 8.69 8.69 0 0 1 2.64-6.38A9 9 0 0 1 37 2.87a17.68 17.68 0 0 0 5.77-2.2 8.75 8.75 0 0 1-4 5A18 18 0 0 0 44 4.25z" fill="#1b3d34"/></svg>